<svg width="324" height="173" viewBox="0 0 324 173" fill="none" xmlns="http://www.w3.org/2000/svg">
<rect x="0.5" y="0.5" width="323" height="172" rx="4.5" stroke="#9747FF" stroke-dasharray="10 5"/>
<path d="M37.25 43L29.75 35.5L37.25 28" stroke="#8A8C9F" stroke-width="2" stroke-linecap="round" stroke-linejoin="round"/>
<path d="M29.75 43L22.25 35.5L29.75 28" stroke="#8A8C9F" stroke-width="2" stroke-linecap="round" stroke-linejoin="round"/>
<path d="M57.232 33.644C57.232 34.068 57.132 34.468 56.932 34.844C56.732 35.22 56.412 35.528 55.972 35.768C55.532 36 54.968 36.116 54.28 36.116H52.768V39.5H51.4V31.16H54.28C54.92 31.16 55.46 31.272 55.9 31.496C56.348 31.712 56.68 32.008 56.896 32.384C57.12 32.76 57.232 33.18 57.232 33.644ZM54.28 35C54.8 35 55.188 34.884 55.444 34.652C55.7 34.412 55.828 34.076 55.828 33.644C55.828 32.732 55.312 32.276 54.28 32.276H52.768V35H54.28ZM59.9047 33.848C60.1047 33.512 60.3687 33.252 60.6967 33.068C61.0327 32.876 61.4287 32.78 61.8847 32.78V34.196H61.5367C61.0007 34.196 60.5927 34.332 60.3127 34.604C60.0407 34.876 59.9047 35.348 59.9047 36.02V39.5H58.5367V32.888H59.9047V33.848ZM69.2022 36.032C69.2022 36.28 69.1862 36.504 69.1542 36.704H64.1022C64.1422 37.232 64.3382 37.656 64.6902 37.976C65.0422 38.296 65.4742 38.456 65.9862 38.456C66.7222 38.456 67.2422 38.148 67.5462 37.532H69.0222C68.8222 38.14 68.4582 38.64 67.9302 39.032C67.4102 39.416 66.7622 39.608 65.9862 39.608C65.3542 39.608 64.7862 39.468 64.2822 39.188C63.7862 38.9 63.3942 38.5 63.1062 37.988C62.8262 37.468 62.6862 36.868 62.6862 36.188C62.6862 35.508 62.8222 34.912 63.0942 34.4C63.3742 33.88 63.7622 33.48 64.2582 33.2C64.7622 32.92 65.3382 32.78 65.9862 32.78C66.6102 32.78 67.1662 32.916 67.6542 33.188C68.1422 33.46 68.5222 33.844 68.7942 34.34C69.0662 34.828 69.2022 35.392 69.2022 36.032ZM67.7742 35.6C67.7662 35.096 67.5862 34.692 67.2342 34.388C66.8822 34.084 66.4462 33.932 65.9262 33.932C65.4542 33.932 65.0502 34.084 64.7142 34.388C64.3782 34.684 64.1782 35.088 64.1142 35.6H67.7742ZM73.1044 38.276L74.9764 32.888H76.4284L73.9084 39.5H72.2764L69.7684 32.888H71.2324L73.1044 38.276ZM78.1585 32.012C77.9105 32.012 77.7025 31.928 77.5345 31.76C77.3665 31.592 77.2825 31.384 77.2825 31.136C77.2825 30.888 77.3665 30.68 77.5345 30.512C77.7025 30.344 77.9105 30.26 78.1585 30.26C78.3985 30.26 78.6025 30.344 78.7705 30.512C78.9385 30.68 79.0225 30.888 79.0225 31.136C79.0225 31.384 78.9385 31.592 78.7705 31.76C78.6025 31.928 78.3985 32.012 78.1585 32.012ZM78.8305 32.888V39.5H77.4625V32.888H78.8305ZM83.4946 39.608C82.8706 39.608 82.3066 39.468 81.8026 39.188C81.2986 38.9 80.9026 38.5 80.6146 37.988C80.3266 37.468 80.1826 36.868 80.1826 36.188C80.1826 35.516 80.3306 34.92 80.6266 34.4C80.9226 33.88 81.3266 33.48 81.8386 33.2C82.3506 32.92 82.9226 32.78 83.5546 32.78C84.1866 32.78 84.7586 32.92 85.2706 33.2C85.7826 33.48 86.1866 33.88 86.4826 34.4C86.7786 34.92 86.9266 35.516 86.9266 36.188C86.9266 36.86 86.7746 37.456 86.4706 37.976C86.1666 38.496 85.7506 38.9 85.2226 39.188C84.7026 39.468 84.1266 39.608 83.4946 39.608ZM83.4946 38.42C83.8466 38.42 84.1746 38.336 84.4786 38.168C84.7906 38 85.0426 37.748 85.2346 37.412C85.4266 37.076 85.5226 36.668 85.5226 36.188C85.5226 35.708 85.4306 35.304 85.2466 34.976C85.0626 34.64 84.8186 34.388 84.5146 34.22C84.2106 34.052 83.8826 33.968 83.5306 33.968C83.1786 33.968 82.8506 34.052 82.5466 34.22C82.2506 34.388 82.0146 34.64 81.8386 34.976C81.6626 35.304 81.5746 35.708 81.5746 36.188C81.5746 36.9 81.7546 37.452 82.1146 37.844C82.4826 38.228 82.9426 38.42 83.4946 38.42ZM94.2669 32.888V39.5H92.8989V38.72C92.6829 38.992 92.3989 39.208 92.0469 39.368C91.7029 39.52 91.3349 39.596 90.9429 39.596C90.4229 39.596 89.9549 39.488 89.5389 39.272C89.1309 39.056 88.8069 38.736 88.5669 38.312C88.3349 37.888 88.2189 37.376 88.2189 36.776V32.888H89.5749V36.572C89.5749 37.164 89.7229 37.62 90.0189 37.94C90.3149 38.252 90.7189 38.408 91.2309 38.408C91.7429 38.408 92.1469 38.252 92.4429 37.94C92.7469 37.62 92.8989 37.164 92.8989 36.572V32.888H94.2669ZM98.4719 39.608C97.9519 39.608 97.4839 39.516 97.0679 39.332C96.6599 39.14 96.3359 38.884 96.0959 38.564C95.8559 38.236 95.7279 37.872 95.7119 37.472H97.1279C97.1519 37.752 97.2839 37.988 97.5239 38.18C97.7719 38.364 98.0799 38.456 98.4479 38.456C98.8319 38.456 99.1279 38.384 99.3359 38.24C99.5519 38.088 99.6599 37.896 99.6599 37.664C99.6599 37.416 99.5399 37.232 99.2999 37.112C99.0679 36.992 98.6959 36.86 98.1839 36.716C97.6879 36.58 97.2839 36.448 96.9719 36.32C96.6599 36.192 96.3879 35.996 96.1559 35.732C95.9319 35.468 95.8199 35.12 95.8199 34.688C95.8199 34.336 95.9239 34.016 96.1319 33.728C96.3399 33.432 96.6359 33.2 97.0199 33.032C97.4119 32.864 97.8599 32.78 98.3639 32.78C99.1159 32.78 99.7199 32.972 100.176 33.356C100.64 33.732 100.888 34.248 100.92 34.904H99.5519C99.5279 34.608 99.4079 34.372 99.1919 34.196C98.9759 34.02 98.6839 33.932 98.3159 33.932C97.9559 33.932 97.6799 34 97.4879 34.136C97.2959 34.272 97.1999 34.452 97.1999 34.676C97.1999 34.852 97.2639 35 97.3919 35.12C97.5199 35.24 97.6759 35.336 97.8599 35.408C98.0439 35.472 98.3159 35.556 98.6759 35.66C99.1559 35.788 99.5479 35.92 99.8519 36.056C100.164 36.184 100.432 36.376 100.656 36.632C100.88 36.888 100.996 37.228 101.004 37.652C101.004 38.028 100.9 38.364 100.692 38.66C100.484 38.956 100.188 39.188 99.8039 39.356C99.4279 39.524 98.9839 39.608 98.4719 39.608Z" fill="#8A8C9F"/>
<rect x="114.5" y="19.5" width="32" height="32" rx="8" fill="#01042E"/>
<path d="M128.942 32.5V31.252H131.438V40H130.058V32.5H128.942Z" fill="white"/>
<rect x="158.5" y="19.5" width="32" height="32" rx="8" fill="#E6E6EA"/>
<path d="M172.513 38.14C173.281 37.476 173.885 36.932 174.325 36.508C174.773 36.076 175.145 35.628 175.441 35.164C175.737 34.7 175.885 34.236 175.885 33.772C175.885 33.292 175.769 32.916 175.537 32.644C175.313 32.372 174.957 32.236 174.469 32.236C173.997 32.236 173.629 32.388 173.365 32.692C173.109 32.988 172.973 33.388 172.957 33.892H171.637C171.661 32.98 171.933 32.284 172.453 31.804C172.981 31.316 173.649 31.072 174.457 31.072C175.329 31.072 176.009 31.312 176.497 31.792C176.993 32.272 177.241 32.912 177.241 33.712C177.241 34.288 177.093 34.844 176.797 35.38C176.509 35.908 176.161 36.384 175.753 36.808C175.353 37.224 174.841 37.708 174.217 38.26L173.677 38.74H177.481V39.88H171.649V38.884L172.513 38.14Z" fill="#01042E"/>
<rect x="202.5" y="19.5" width="32" height="32" rx="8" fill="#E6E6EA"/>
<path d="M215.634 33.412C215.682 32.668 215.966 32.088 216.486 31.672C217.014 31.256 217.686 31.048 218.502 31.048C219.062 31.048 219.546 31.148 219.954 31.348C220.362 31.548 220.67 31.82 220.878 32.164C221.086 32.508 221.19 32.896 221.19 33.328C221.19 33.824 221.058 34.248 220.794 34.6C220.53 34.952 220.214 35.188 219.846 35.308V35.356C220.318 35.5 220.686 35.764 220.95 36.148C221.214 36.524 221.346 37.008 221.346 37.6C221.346 38.072 221.238 38.492 221.022 38.86C220.806 39.228 220.486 39.52 220.062 39.736C219.638 39.944 219.13 40.048 218.538 40.048C217.674 40.048 216.962 39.828 216.402 39.388C215.85 38.94 215.554 38.3 215.514 37.468H216.834C216.866 37.892 217.03 38.24 217.326 38.512C217.622 38.776 218.022 38.908 218.526 38.908C219.014 38.908 219.39 38.776 219.654 38.512C219.918 38.24 220.05 37.892 220.05 37.468C220.05 36.908 219.87 36.512 219.51 36.28C219.158 36.04 218.614 35.92 217.878 35.92H217.566V34.792H217.89C218.538 34.784 219.03 34.676 219.366 34.468C219.71 34.26 219.882 33.932 219.882 33.484C219.882 33.1 219.758 32.796 219.51 32.572C219.262 32.34 218.91 32.224 218.454 32.224C218.006 32.224 217.658 32.34 217.41 32.572C217.162 32.796 217.014 33.076 216.966 33.412H215.634Z" fill="#01042E"/>
<path d="M254.252 39.5H252.884L248.768 33.272V39.5H247.4V31.148H248.768L252.884 37.364V31.148H254.252V39.5ZM262.108 36.032C262.108 36.28 262.092 36.504 262.06 36.704H257.008C257.048 37.232 257.244 37.656 257.596 37.976C257.948 38.296 258.38 38.456 258.892 38.456C259.628 38.456 260.148 38.148 260.452 37.532H261.928C261.728 38.14 261.364 38.64 260.836 39.032C260.316 39.416 259.668 39.608 258.892 39.608C258.26 39.608 257.692 39.468 257.188 39.188C256.692 38.9 256.3 38.5 256.012 37.988C255.732 37.468 255.592 36.868 255.592 36.188C255.592 35.508 255.728 34.912 256 34.4C256.28 33.88 256.668 33.48 257.164 33.2C257.668 32.92 258.244 32.78 258.892 32.78C259.516 32.78 260.072 32.916 260.56 33.188C261.048 33.46 261.428 33.844 261.7 34.34C261.972 34.828 262.108 35.392 262.108 36.032ZM260.68 35.6C260.672 35.096 260.492 34.692 260.14 34.388C259.788 34.084 259.352 33.932 258.832 33.932C258.36 33.932 257.956 34.084 257.62 34.388C257.284 34.684 257.084 35.088 257.02 35.6H260.68ZM266.287 36.152L268.423 39.5H266.875L265.447 37.256L264.103 39.5H262.675L264.811 36.248L262.675 32.888H264.223L265.651 35.132L266.995 32.888H268.423L266.287 36.152ZM271.039 34.004V37.664C271.039 37.912 271.095 38.092 271.207 38.204C271.327 38.308 271.527 38.36 271.807 38.36H272.647V39.5H271.567C270.951 39.5 270.479 39.356 270.151 39.068C269.823 38.78 269.659 38.312 269.659 37.664V34.004H268.879V32.888H269.659V31.244H271.039V32.888H272.647V34.004H271.039Z" fill="#01042E"/>
<path d="M286.75 43L294.25 35.5L286.75 28" stroke="#01042E" stroke-width="2" stroke-linecap="round" stroke-linejoin="round"/>
<path d="M294.25 43L301.75 35.5L294.25 28" stroke="#01042E" stroke-width="2" stroke-linecap="round" stroke-linejoin="round"/>
<path d="M38.75 94.5L31.25 87L38.75 79.5" stroke="#01042E" stroke-width="2" stroke-linecap="round" stroke-linejoin="round"/>
<path d="M31.25 94.5L23.75 87L31.25 79.5" stroke="#01042E" stroke-width="2" stroke-linecap="round" stroke-linejoin="round"/>
<path d="M58.732 85.144C58.732 85.568 58.632 85.968 58.432 86.344C58.232 86.72 57.912 87.028 57.472 87.268C57.032 87.5 56.468 87.616 55.78 87.616H54.268V91H52.9V82.66H55.78C56.42 82.66 56.96 82.772 57.4 82.996C57.848 83.212 58.18 83.508 58.396 83.884C58.62 84.26 58.732 84.68 58.732 85.144ZM55.78 86.5C56.3 86.5 56.688 86.384 56.944 86.152C57.2 85.912 57.328 85.576 57.328 85.144C57.328 84.232 56.812 83.776 55.78 83.776H54.268V86.5H55.78ZM61.4047 85.348C61.6047 85.012 61.8687 84.752 62.1967 84.568C62.5327 84.376 62.9287 84.28 63.3847 84.28V85.696H63.0367C62.5007 85.696 62.0927 85.832 61.8127 86.104C61.5407 86.376 61.4047 86.848 61.4047 87.52V91H60.0367V84.388H61.4047V85.348ZM70.7022 87.532C70.7022 87.78 70.6862 88.004 70.6542 88.204H65.6022C65.6422 88.732 65.8382 89.156 66.1902 89.476C66.5422 89.796 66.9742 89.956 67.4862 89.956C68.2222 89.956 68.7422 89.648 69.0462 89.032H70.5222C70.3222 89.64 69.9582 90.14 69.4302 90.532C68.9102 90.916 68.2622 91.108 67.4862 91.108C66.8542 91.108 66.2862 90.968 65.7822 90.688C65.2862 90.4 64.8942 90 64.6062 89.488C64.3262 88.968 64.1862 88.368 64.1862 87.688C64.1862 87.008 64.3222 86.412 64.5942 85.9C64.8742 85.38 65.2622 84.98 65.7582 84.7C66.2622 84.42 66.8382 84.28 67.4862 84.28C68.1102 84.28 68.6662 84.416 69.1542 84.688C69.6422 84.96 70.0222 85.344 70.2942 85.84C70.5662 86.328 70.7022 86.892 70.7022 87.532ZM69.2742 87.1C69.2662 86.596 69.0862 86.192 68.7342 85.888C68.3822 85.584 67.9462 85.432 67.4262 85.432C66.9542 85.432 66.5502 85.584 66.2142 85.888C65.8782 86.184 65.6782 86.588 65.6142 87.1H69.2742ZM74.6044 89.776L76.4764 84.388H77.9284L75.4084 91H73.7764L71.2684 84.388H72.7324L74.6044 89.776ZM79.6585 83.512C79.4105 83.512 79.2025 83.428 79.0345 83.26C78.8665 83.092 78.7825 82.884 78.7825 82.636C78.7825 82.388 78.8665 82.18 79.0345 82.012C79.2025 81.844 79.4105 81.76 79.6585 81.76C79.8985 81.76 80.1025 81.844 80.2705 82.012C80.4385 82.18 80.5225 82.388 80.5225 82.636C80.5225 82.884 80.4385 83.092 80.2705 83.26C80.1025 83.428 79.8985 83.512 79.6585 83.512ZM80.3305 84.388V91H78.9625V84.388H80.3305ZM84.9946 91.108C84.3706 91.108 83.8066 90.968 83.3026 90.688C82.7986 90.4 82.4026 90 82.1146 89.488C81.8266 88.968 81.6826 88.368 81.6826 87.688C81.6826 87.016 81.8306 86.42 82.1266 85.9C82.4226 85.38 82.8266 84.98 83.3386 84.7C83.8506 84.42 84.4226 84.28 85.0546 84.28C85.6866 84.28 86.2586 84.42 86.7706 84.7C87.2826 84.98 87.6866 85.38 87.9826 85.9C88.2786 86.42 88.4266 87.016 88.4266 87.688C88.4266 88.36 88.2746 88.956 87.9706 89.476C87.6666 89.996 87.2506 90.4 86.7226 90.688C86.2026 90.968 85.6266 91.108 84.9946 91.108ZM84.9946 89.92C85.3466 89.92 85.6746 89.836 85.9786 89.668C86.2906 89.5 86.5426 89.248 86.7346 88.912C86.9266 88.576 87.0226 88.168 87.0226 87.688C87.0226 87.208 86.9306 86.804 86.7466 86.476C86.5626 86.14 86.3186 85.888 86.0146 85.72C85.7106 85.552 85.3826 85.468 85.0306 85.468C84.6786 85.468 84.3506 85.552 84.0466 85.72C83.7506 85.888 83.5146 86.14 83.3386 86.476C83.1626 86.804 83.0746 87.208 83.0746 87.688C83.0746 88.4 83.2546 88.952 83.6146 89.344C83.9826 89.728 84.4426 89.92 84.9946 89.92ZM95.7669 84.388V91H94.3989V90.22C94.1829 90.492 93.8989 90.708 93.5469 90.868C93.2029 91.02 92.8349 91.096 92.4429 91.096C91.9229 91.096 91.4549 90.988 91.0389 90.772C90.6309 90.556 90.3069 90.236 90.0669 89.812C89.8349 89.388 89.7189 88.876 89.7189 88.276V84.388H91.0749V88.072C91.0749 88.664 91.2229 89.12 91.5189 89.44C91.8149 89.752 92.2189 89.908 92.7309 89.908C93.2429 89.908 93.6469 89.752 93.9429 89.44C94.2469 89.12 94.3989 88.664 94.3989 88.072V84.388H95.7669ZM99.9719 91.108C99.4519 91.108 98.9839 91.016 98.5679 90.832C98.1599 90.64 97.8359 90.384 97.5959 90.064C97.3559 89.736 97.2279 89.372 97.2119 88.972H98.6279C98.6519 89.252 98.7839 89.488 99.0239 89.68C99.2719 89.864 99.5799 89.956 99.9479 89.956C100.332 89.956 100.628 89.884 100.836 89.74C101.052 89.588 101.16 89.396 101.16 89.164C101.16 88.916 101.04 88.732 100.8 88.612C100.568 88.492 100.196 88.36 99.6839 88.216C99.1879 88.08 98.7839 87.948 98.4719 87.82C98.1599 87.692 97.8879 87.496 97.6559 87.232C97.4319 86.968 97.3199 86.62 97.3199 86.188C97.3199 85.836 97.4239 85.516 97.6319 85.228C97.8399 84.932 98.1359 84.7 98.5199 84.532C98.9119 84.364 99.3599 84.28 99.8639 84.28C100.616 84.28 101.22 84.472 101.676 84.856C102.14 85.232 102.388 85.748 102.42 86.404H101.052C101.028 86.108 100.908 85.872 100.692 85.696C100.476 85.52 100.184 85.432 99.8159 85.432C99.4559 85.432 99.1799 85.5 98.9879 85.636C98.7959 85.772 98.6999 85.952 98.6999 86.176C98.6999 86.352 98.7639 86.5 98.8919 86.62C99.0199 86.74 99.1759 86.836 99.3599 86.908C99.5439 86.972 99.8159 87.056 100.176 87.16C100.656 87.288 101.048 87.42 101.352 87.556C101.664 87.684 101.932 87.876 102.156 88.132C102.38 88.388 102.496 88.728 102.504 89.152C102.504 89.528 102.4 89.864 102.192 90.16C101.984 90.456 101.688 90.688 101.304 90.856C100.928 91.024 100.484 91.108 99.9719 91.108Z" fill="#01042E"/>
<rect x="116" y="71" width="32" height="32" rx="8" fill="#E6E6EA"/>
<path d="M130.442 84V82.752H132.938V91.5H131.558V84H130.442Z" fill="#01042E"/>
<rect x="160" y="71" width="32" height="32" rx="8" fill="#01042E"/>
<path d="M174.013 89.64C174.781 88.976 175.385 88.432 175.825 88.008C176.273 87.576 176.645 87.128 176.941 86.664C177.237 86.2 177.385 85.736 177.385 85.272C177.385 84.792 177.269 84.416 177.037 84.144C176.813 83.872 176.457 83.736 175.969 83.736C175.497 83.736 175.129 83.888 174.865 84.192C174.609 84.488 174.473 84.888 174.457 85.392H173.137C173.161 84.48 173.433 83.784 173.953 83.304C174.481 82.816 175.149 82.572 175.957 82.572C176.829 82.572 177.509 82.812 177.997 83.292C178.493 83.772 178.741 84.412 178.741 85.212C178.741 85.788 178.593 86.344 178.297 86.88C178.009 87.408 177.661 87.884 177.253 88.308C176.853 88.724 176.341 89.208 175.717 89.76L175.177 90.24H178.981V91.38H173.149V90.384L174.013 89.64Z" fill="white"/>
<rect x="204" y="71" width="32" height="32" rx="8" fill="#E6E6EA"/>
<path d="M217.134 84.912C217.182 84.168 217.466 83.588 217.986 83.172C218.514 82.756 219.186 82.548 220.002 82.548C220.562 82.548 221.046 82.648 221.454 82.848C221.862 83.048 222.17 83.32 222.378 83.664C222.586 84.008 222.69 84.396 222.69 84.828C222.69 85.324 222.558 85.748 222.294 86.1C222.03 86.452 221.714 86.688 221.346 86.808V86.856C221.818 87 222.186 87.264 222.45 87.648C222.714 88.024 222.846 88.508 222.846 89.1C222.846 89.572 222.738 89.992 222.522 90.36C222.306 90.728 221.986 91.02 221.562 91.236C221.138 91.444 220.63 91.548 220.038 91.548C219.174 91.548 218.462 91.328 217.902 90.888C217.35 90.44 217.054 89.8 217.014 88.968H218.334C218.366 89.392 218.53 89.74 218.826 90.012C219.122 90.276 219.522 90.408 220.026 90.408C220.514 90.408 220.89 90.276 221.154 90.012C221.418 89.74 221.55 89.392 221.55 88.968C221.55 88.408 221.37 88.012 221.01 87.78C220.658 87.54 220.114 87.42 219.378 87.42H219.066V86.292H219.39C220.038 86.284 220.53 86.176 220.866 85.968C221.21 85.76 221.382 85.432 221.382 84.984C221.382 84.6 221.258 84.296 221.01 84.072C220.762 83.84 220.41 83.724 219.954 83.724C219.506 83.724 219.158 83.84 218.91 84.072C218.662 84.296 218.514 84.576 218.466 84.912H217.134Z" fill="#01042E"/>
<path d="M255.752 91H254.384L250.268 84.772V91H248.9V82.648H250.268L254.384 88.864V82.648H255.752V91ZM263.608 87.532C263.608 87.78 263.592 88.004 263.56 88.204H258.508C258.548 88.732 258.744 89.156 259.096 89.476C259.448 89.796 259.88 89.956 260.392 89.956C261.128 89.956 261.648 89.648 261.952 89.032H263.428C263.228 89.64 262.864 90.14 262.336 90.532C261.816 90.916 261.168 91.108 260.392 91.108C259.76 91.108 259.192 90.968 258.688 90.688C258.192 90.4 257.8 90 257.512 89.488C257.232 88.968 257.092 88.368 257.092 87.688C257.092 87.008 257.228 86.412 257.5 85.9C257.78 85.38 258.168 84.98 258.664 84.7C259.168 84.42 259.744 84.28 260.392 84.28C261.016 84.28 261.572 84.416 262.06 84.688C262.548 84.96 262.928 85.344 263.2 85.84C263.472 86.328 263.608 86.892 263.608 87.532ZM262.18 87.1C262.172 86.596 261.992 86.192 261.64 85.888C261.288 85.584 260.852 85.432 260.332 85.432C259.86 85.432 259.456 85.584 259.12 85.888C258.784 86.184 258.584 86.588 258.52 87.1H262.18ZM267.787 87.652L269.923 91H268.375L266.947 88.756L265.603 91H264.175L266.311 87.748L264.175 84.388H265.723L267.151 86.632L268.495 84.388H269.923L267.787 87.652ZM272.539 85.504V89.164C272.539 89.412 272.595 89.592 272.707 89.704C272.827 89.808 273.027 89.86 273.307 89.86H274.147V91H273.067C272.451 91 271.979 90.856 271.651 90.568C271.323 90.28 271.159 89.812 271.159 89.164V85.504H270.379V84.388H271.159V82.744H272.539V84.388H274.147V85.504H272.539Z" fill="#01042E"/>
<path d="M288.25 94.5L295.75 87L288.25 79.5" stroke="#01042E" stroke-width="2" stroke-linecap="round" stroke-linejoin="round"/>
<path d="M295.75 94.5L303.25 87L295.75 79.5" stroke="#01042E" stroke-width="2" stroke-linecap="round" stroke-linejoin="round"/>
<path d="M38.75 145.5L31.25 138L38.75 130.5" stroke="#01042E" stroke-width="2" stroke-linecap="round" stroke-linejoin="round"/>
<path d="M31.25 145.5L23.75 138L31.25 130.5" stroke="#01042E" stroke-width="2" stroke-linecap="round" stroke-linejoin="round"/>
<path d="M58.732 136.144C58.732 136.568 58.632 136.968 58.432 137.344C58.232 137.72 57.912 138.028 57.472 138.268C57.032 138.5 56.468 138.616 55.78 138.616H54.268V142H52.9V133.66H55.78C56.42 133.66 56.96 133.772 57.4 133.996C57.848 134.212 58.18 134.508 58.396 134.884C58.62 135.26 58.732 135.68 58.732 136.144ZM55.78 137.5C56.3 137.5 56.688 137.384 56.944 137.152C57.2 136.912 57.328 136.576 57.328 136.144C57.328 135.232 56.812 134.776 55.78 134.776H54.268V137.5H55.78ZM61.4047 136.348C61.6047 136.012 61.8687 135.752 62.1967 135.568C62.5327 135.376 62.9287 135.28 63.3847 135.28V136.696H63.0367C62.5007 136.696 62.0927 136.832 61.8127 137.104C61.5407 137.376 61.4047 137.848 61.4047 138.52V142H60.0367V135.388H61.4047V136.348ZM70.7022 138.532C70.7022 138.78 70.6862 139.004 70.6542 139.204H65.6022C65.6422 139.732 65.8382 140.156 66.1902 140.476C66.5422 140.796 66.9742 140.956 67.4862 140.956C68.2222 140.956 68.7422 140.648 69.0462 140.032H70.5222C70.3222 140.64 69.9582 141.14 69.4302 141.532C68.9102 141.916 68.2622 142.108 67.4862 142.108C66.8542 142.108 66.2862 141.968 65.7822 141.688C65.2862 141.4 64.8942 141 64.6062 140.488C64.3262 139.968 64.1862 139.368 64.1862 138.688C64.1862 138.008 64.3222 137.412 64.5942 136.9C64.8742 136.38 65.2622 135.98 65.7582 135.7C66.2622 135.42 66.8382 135.28 67.4862 135.28C68.1102 135.28 68.6662 135.416 69.1542 135.688C69.6422 135.96 70.0222 136.344 70.2942 136.84C70.5662 137.328 70.7022 137.892 70.7022 138.532ZM69.2742 138.1C69.2662 137.596 69.0862 137.192 68.7342 136.888C68.3822 136.584 67.9462 136.432 67.4262 136.432C66.9542 136.432 66.5502 136.584 66.2142 136.888C65.8782 137.184 65.6782 137.588 65.6142 138.1H69.2742ZM74.6044 140.776L76.4764 135.388H77.9284L75.4084 142H73.7764L71.2684 135.388H72.7324L74.6044 140.776ZM79.6585 134.512C79.4105 134.512 79.2025 134.428 79.0345 134.26C78.8665 134.092 78.7825 133.884 78.7825 133.636C78.7825 133.388 78.8665 133.18 79.0345 133.012C79.2025 132.844 79.4105 132.76 79.6585 132.76C79.8985 132.76 80.1025 132.844 80.2705 133.012C80.4385 133.18 80.5225 133.388 80.5225 133.636C80.5225 133.884 80.4385 134.092 80.2705 134.26C80.1025 134.428 79.8985 134.512 79.6585 134.512ZM80.3305 135.388V142H78.9625V135.388H80.3305ZM84.9946 142.108C84.3706 142.108 83.8066 141.968 83.3026 141.688C82.7986 141.4 82.4026 141 82.1146 140.488C81.8266 139.968 81.6826 139.368 81.6826 138.688C81.6826 138.016 81.8306 137.42 82.1266 136.9C82.4226 136.38 82.8266 135.98 83.3386 135.7C83.8506 135.42 84.4226 135.28 85.0546 135.28C85.6866 135.28 86.2586 135.42 86.7706 135.7C87.2826 135.98 87.6866 136.38 87.9826 136.9C88.2786 137.42 88.4266 138.016 88.4266 138.688C88.4266 139.36 88.2746 139.956 87.9706 140.476C87.6666 140.996 87.2506 141.4 86.7226 141.688C86.2026 141.968 85.6266 142.108 84.9946 142.108ZM84.9946 140.92C85.3466 140.92 85.6746 140.836 85.9786 140.668C86.2906 140.5 86.5426 140.248 86.7346 139.912C86.9266 139.576 87.0226 139.168 87.0226 138.688C87.0226 138.208 86.9306 137.804 86.7466 137.476C86.5626 137.14 86.3186 136.888 86.0146 136.72C85.7106 136.552 85.3826 136.468 85.0306 136.468C84.6786 136.468 84.3506 136.552 84.0466 136.72C83.7506 136.888 83.5146 137.14 83.3386 137.476C83.1626 137.804 83.0746 138.208 83.0746 138.688C83.0746 139.4 83.2546 139.952 83.6146 140.344C83.9826 140.728 84.4426 140.92 84.9946 140.92ZM95.7669 135.388V142H94.3989V141.22C94.1829 141.492 93.8989 141.708 93.5469 141.868C93.2029 142.02 92.8349 142.096 92.4429 142.096C91.9229 142.096 91.4549 141.988 91.0389 141.772C90.6309 141.556 90.3069 141.236 90.0669 140.812C89.8349 140.388 89.7189 139.876 89.7189 139.276V135.388H91.0749V139.072C91.0749 139.664 91.2229 140.12 91.5189 140.44C91.8149 140.752 92.2189 140.908 92.7309 140.908C93.2429 140.908 93.6469 140.752 93.9429 140.44C94.2469 140.12 94.3989 139.664 94.3989 139.072V135.388H95.7669ZM99.9719 142.108C99.4519 142.108 98.9839 142.016 98.5679 141.832C98.1599 141.64 97.8359 141.384 97.5959 141.064C97.3559 140.736 97.2279 140.372 97.2119 139.972H98.6279C98.6519 140.252 98.7839 140.488 99.0239 140.68C99.2719 140.864 99.5799 140.956 99.9479 140.956C100.332 140.956 100.628 140.884 100.836 140.74C101.052 140.588 101.16 140.396 101.16 140.164C101.16 139.916 101.04 139.732 100.8 139.612C100.568 139.492 100.196 139.36 99.6839 139.216C99.1879 139.08 98.7839 138.948 98.4719 138.82C98.1599 138.692 97.8879 138.496 97.6559 138.232C97.4319 137.968 97.3199 137.62 97.3199 137.188C97.3199 136.836 97.4239 136.516 97.6319 136.228C97.8399 135.932 98.1359 135.7 98.5199 135.532C98.9119 135.364 99.3599 135.28 99.8639 135.28C100.616 135.28 101.22 135.472 101.676 135.856C102.14 136.232 102.388 136.748 102.42 137.404H101.052C101.028 137.108 100.908 136.872 100.692 136.696C100.476 136.52 100.184 136.432 99.8159 136.432C99.4559 136.432 99.1799 136.5 98.9879 136.636C98.7959 136.772 98.6999 136.952 98.6999 137.176C98.6999 137.352 98.7639 137.5 98.8919 137.62C99.0199 137.74 99.1759 137.836 99.3599 137.908C99.5439 137.972 99.8159 138.056 100.176 138.16C100.656 138.288 101.048 138.42 101.352 138.556C101.664 138.684 101.932 138.876 102.156 139.132C102.38 139.388 102.496 139.728 102.504 140.152C102.504 140.528 102.4 140.864 102.192 141.16C101.984 141.456 101.688 141.688 101.304 141.856C100.928 142.024 100.484 142.108 99.9719 142.108Z" fill="#01042E"/>
<rect x="116" y="122" width="32" height="32" rx="8" fill="#E6E6EA"/>
<path d="M130.442 135V133.752H132.938V142.5H131.558V135H130.442Z" fill="#01042E"/>
<rect x="160" y="122" width="32" height="32" rx="8" fill="#E6E6EA"/>
<path d="M174.013 140.64C174.781 139.976 175.385 139.432 175.825 139.008C176.273 138.576 176.645 138.128 176.941 137.664C177.237 137.2 177.385 136.736 177.385 136.272C177.385 135.792 177.269 135.416 177.037 135.144C176.813 134.872 176.457 134.736 175.969 134.736C175.497 134.736 175.129 134.888 174.865 135.192C174.609 135.488 174.473 135.888 174.457 136.392H173.137C173.161 135.48 173.433 134.784 173.953 134.304C174.481 133.816 175.149 133.572 175.957 133.572C176.829 133.572 177.509 133.812 177.997 134.292C178.493 134.772 178.741 135.412 178.741 136.212C178.741 136.788 178.593 137.344 178.297 137.88C178.009 138.408 177.661 138.884 177.253 139.308C176.853 139.724 176.341 140.208 175.717 140.76L175.177 141.24H178.981V142.38H173.149V141.384L174.013 140.64Z" fill="#01042E"/>
<rect x="204" y="122" width="32" height="32" rx="8" fill="#01042E"/>
<path d="M217.134 135.912C217.182 135.168 217.466 134.588 217.986 134.172C218.514 133.756 219.186 133.548 220.002 133.548C220.562 133.548 221.046 133.648 221.454 133.848C221.862 134.048 222.17 134.32 222.378 134.664C222.586 135.008 222.69 135.396 222.69 135.828C222.69 136.324 222.558 136.748 222.294 137.1C222.03 137.452 221.714 137.688 221.346 137.808V137.856C221.818 138 222.186 138.264 222.45 138.648C222.714 139.024 222.846 139.508 222.846 140.1C222.846 140.572 222.738 140.992 222.522 141.36C222.306 141.728 221.986 142.02 221.562 142.236C221.138 142.444 220.63 142.548 220.038 142.548C219.174 142.548 218.462 142.328 217.902 141.888C217.35 141.44 217.054 140.8 217.014 139.968H218.334C218.366 140.392 218.53 140.74 218.826 141.012C219.122 141.276 219.522 141.408 220.026 141.408C220.514 141.408 220.89 141.276 221.154 141.012C221.418 140.74 221.55 140.392 221.55 139.968C221.55 139.408 221.37 139.012 221.01 138.78C220.658 138.54 220.114 138.42 219.378 138.42H219.066V137.292H219.39C220.038 137.284 220.53 137.176 220.866 136.968C221.21 136.76 221.382 136.432 221.382 135.984C221.382 135.6 221.258 135.296 221.01 135.072C220.762 134.84 220.41 134.724 219.954 134.724C219.506 134.724 219.158 134.84 218.91 135.072C218.662 135.296 218.514 135.576 218.466 135.912H217.134Z" fill="white"/>
<path d="M255.752 142H254.384L250.268 135.772V142H248.9V133.648H250.268L254.384 139.864V133.648H255.752V142ZM263.608 138.532C263.608 138.78 263.592 139.004 263.56 139.204H258.508C258.548 139.732 258.744 140.156 259.096 140.476C259.448 140.796 259.88 140.956 260.392 140.956C261.128 140.956 261.648 140.648 261.952 140.032H263.428C263.228 140.64 262.864 141.14 262.336 141.532C261.816 141.916 261.168 142.108 260.392 142.108C259.76 142.108 259.192 141.968 258.688 141.688C258.192 141.4 257.8 141 257.512 140.488C257.232 139.968 257.092 139.368 257.092 138.688C257.092 138.008 257.228 137.412 257.5 136.9C257.78 136.38 258.168 135.98 258.664 135.7C259.168 135.42 259.744 135.28 260.392 135.28C261.016 135.28 261.572 135.416 262.06 135.688C262.548 135.96 262.928 136.344 263.2 136.84C263.472 137.328 263.608 137.892 263.608 138.532ZM262.18 138.1C262.172 137.596 261.992 137.192 261.64 136.888C261.288 136.584 260.852 136.432 260.332 136.432C259.86 136.432 259.456 136.584 259.12 136.888C258.784 137.184 258.584 137.588 258.52 138.1H262.18ZM267.787 138.652L269.923 142H268.375L266.947 139.756L265.603 142H264.175L266.311 138.748L264.175 135.388H265.723L267.151 137.632L268.495 135.388H269.923L267.787 138.652ZM272.539 136.504V140.164C272.539 140.412 272.595 140.592 272.707 140.704C272.827 140.808 273.027 140.86 273.307 140.86H274.147V142H273.067C272.451 142 271.979 141.856 271.651 141.568C271.323 141.28 271.159 140.812 271.159 140.164V136.504H270.379V135.388H271.159V133.744H272.539V135.388H274.147V136.504H272.539Z" fill="#8A8C9F"/>
<path d="M288.25 145.5L295.75 138L288.25 130.5" stroke="#8A8C9F" stroke-width="2" stroke-linecap="round" stroke-linejoin="round"/>
<path d="M295.75 145.5L303.25 138L295.75 130.5" stroke="#8A8C9F" stroke-width="2" stroke-linecap="round" stroke-linejoin="round"/>
</svg>
