<svg width="708" height="320" viewBox="0 0 708 320" fill="none" xmlns="http://www.w3.org/2000/svg">
<rect x="0.5" y="0.5" width="707" height="319" rx="4.5" stroke="#9747FF" stroke-dasharray="10 5"/>
<path d="M26.976 38L24.416 33.552H23.024V38H21.2V26.88H25.04C25.8933 26.88 26.6133 27.0293 27.2 27.328C27.7973 27.6267 28.24 28.0267 28.528 28.528C28.8267 29.0293 28.976 29.5893 28.976 30.208C28.976 30.9333 28.7627 31.5947 28.336 32.192C27.92 32.7787 27.2747 33.1787 26.4 33.392L29.152 38H26.976ZM23.024 32.096H25.04C25.7227 32.096 26.2347 31.9253 26.576 31.584C26.928 31.2427 27.104 30.784 27.104 30.208C27.104 29.632 26.9333 29.184 26.592 28.864C26.2507 28.5333 25.7333 28.368 25.04 28.368H23.024V32.096ZM30.7014 33.552C30.7014 32.6667 30.8827 31.8827 31.2454 31.2C31.6187 30.5173 32.12 29.9893 32.7494 29.616C33.3894 29.232 34.0934 29.04 34.8614 29.04C35.5547 29.04 36.1574 29.1787 36.6694 29.456C37.192 29.7227 37.608 30.0587 37.9174 30.464V29.184H39.7574V38H37.9174V36.688C37.608 37.104 37.1867 37.4507 36.6534 37.728C36.12 38.0053 35.512 38.144 34.8294 38.144C34.072 38.144 33.3787 37.952 32.7494 37.568C32.12 37.1733 31.6187 36.6293 31.2454 35.936C30.8827 35.232 30.7014 34.4373 30.7014 33.552ZM37.9174 33.584C37.9174 32.976 37.7894 32.448 37.5334 32C37.288 31.552 36.9627 31.2107 36.5574 30.976C36.152 30.7413 35.7147 30.624 35.2454 30.624C34.776 30.624 34.3387 30.7413 33.9334 30.976C33.528 31.2 33.1974 31.536 32.9414 31.984C32.696 32.4213 32.5734 32.944 32.5734 33.552C32.5734 34.16 32.696 34.6933 32.9414 35.152C33.1974 35.6107 33.528 35.9627 33.9334 36.208C34.3494 36.4427 34.7867 36.56 35.2454 36.56C35.7147 36.56 36.152 36.4427 36.5574 36.208C36.9627 35.9733 37.288 35.632 37.5334 35.184C37.7894 34.7253 37.9174 34.192 37.9174 33.584ZM46.6011 29.04C47.2945 29.04 47.9131 29.184 48.4571 29.472C49.0118 29.76 49.4438 30.1867 49.7531 30.752C50.0625 31.3173 50.2171 32 50.2171 32.8V38H48.4091V33.072C48.4091 32.2827 48.2118 31.68 47.8171 31.264C47.4225 30.8373 46.8838 30.624 46.2011 30.624C45.5185 30.624 44.9745 30.8373 44.5691 31.264C44.1745 31.68 43.9771 32.2827 43.9771 33.072V38H42.1531V29.184H43.9771V30.192C44.2758 29.8293 44.6545 29.5467 45.1131 29.344C45.5825 29.1413 46.0785 29.04 46.6011 29.04ZM56.0958 29.04C56.7784 29.04 57.3811 29.1787 57.9038 29.456C58.4371 29.7227 58.8531 30.0587 59.1518 30.464V29.184H60.9918V38.144C60.9918 38.9547 60.8211 39.6747 60.4798 40.304C60.1384 40.944 59.6424 41.4453 58.9918 41.808C58.3518 42.1707 57.5838 42.352 56.6878 42.352C55.4931 42.352 54.5011 42.0693 53.7118 41.504C52.9224 40.9493 52.4744 40.192 52.3678 39.232H54.1758C54.3144 39.6907 54.6078 40.0587 55.0558 40.336C55.5144 40.624 56.0584 40.768 56.6878 40.768C57.4238 40.768 58.0158 40.544 58.4638 40.096C58.9224 39.648 59.1518 38.9973 59.1518 38.144V36.672C58.8424 37.088 58.4211 37.44 57.8878 37.728C57.3651 38.0053 56.7678 38.144 56.0958 38.144C55.3278 38.144 54.6238 37.952 53.9838 37.568C53.3544 37.1733 52.8531 36.6293 52.4798 35.936C52.1171 35.232 51.9358 34.4373 51.9358 33.552C51.9358 32.6667 52.1171 31.8827 52.4798 31.2C52.8531 30.5173 53.3544 29.9893 53.9838 29.616C54.6238 29.232 55.3278 29.04 56.0958 29.04ZM59.1518 33.584C59.1518 32.976 59.0238 32.448 58.7678 32C58.5224 31.552 58.1971 31.2107 57.7918 30.976C57.3864 30.7413 56.9491 30.624 56.4798 30.624C56.0104 30.624 55.5731 30.7413 55.1678 30.976C54.7624 31.2 54.4318 31.536 54.1758 31.984C53.9304 32.4213 53.8078 32.944 53.8078 33.552C53.8078 34.16 53.9304 34.6933 54.1758 35.152C54.4318 35.6107 54.7624 35.9627 55.1678 36.208C55.5838 36.4427 56.0211 36.56 56.4798 36.56C56.9491 36.56 57.3864 36.4427 57.7918 36.208C58.1971 35.9733 58.5224 35.632 58.7678 35.184C59.0238 34.7253 59.1518 34.192 59.1518 33.584ZM71.4675 33.376C71.4675 33.7067 71.4462 34.0053 71.4035 34.272H64.6675C64.7208 34.976 64.9822 35.5413 65.4515 35.968C65.9208 36.3947 66.4968 36.608 67.1795 36.608C68.1608 36.608 68.8542 36.1973 69.2595 35.376H71.2275C70.9608 36.1867 70.4755 36.8533 69.7715 37.376C69.0782 37.888 68.2142 38.144 67.1795 38.144C66.3368 38.144 65.5795 37.9573 64.9075 37.584C64.2462 37.2 63.7235 36.6667 63.3395 35.984C62.9662 35.2907 62.7795 34.4907 62.7795 33.584C62.7795 32.6773 62.9608 31.8827 63.3235 31.2C63.6968 30.5067 64.2142 29.9733 64.8755 29.6C65.5475 29.2267 66.3155 29.04 67.1795 29.04C68.0115 29.04 68.7528 29.2213 69.4035 29.584C70.0542 29.9467 70.5608 30.4587 70.9235 31.12C71.2862 31.7707 71.4675 32.5227 71.4675 33.376ZM69.5635 32.8C69.5528 32.128 69.3128 31.5893 68.8435 31.184C68.3742 30.7787 67.7928 30.576 67.0995 30.576C66.4702 30.576 65.9315 30.7787 65.4835 31.184C65.0355 31.5787 64.7688 32.1173 64.6835 32.8H69.5635ZM79.2428 36.528H83.0028V38H77.4188V26.88H79.2428V36.528ZM83.9201 33.552C83.9201 32.6667 84.1015 31.8827 84.4641 31.2C84.8375 30.5173 85.3388 29.9893 85.9681 29.616C86.6081 29.232 87.3121 29.04 88.0801 29.04C88.7735 29.04 89.3761 29.1787 89.8881 29.456C90.4108 29.7227 90.8268 30.0587 91.1361 30.464V29.184H92.9761V38H91.1361V36.688C90.8268 37.104 90.4055 37.4507 89.8721 37.728C89.3388 38.0053 88.7308 38.144 88.0481 38.144C87.2908 38.144 86.5975 37.952 85.9681 37.568C85.3388 37.1733 84.8375 36.6293 84.4641 35.936C84.1015 35.232 83.9201 34.4373 83.9201 33.552ZM91.1361 33.584C91.1361 32.976 91.0081 32.448 90.7521 32C90.5068 31.552 90.1815 31.2107 89.7761 30.976C89.3708 30.7413 88.9335 30.624 88.4641 30.624C87.9948 30.624 87.5575 30.7413 87.1521 30.976C86.7468 31.2 86.4161 31.536 86.1601 31.984C85.9148 32.4213 85.7921 32.944 85.7921 33.552C85.7921 34.16 85.9148 34.6933 86.1601 35.152C86.4161 35.6107 86.7468 35.9627 87.1521 36.208C87.5681 36.4427 88.0055 36.56 88.4641 36.56C88.9335 36.56 89.3708 36.4427 89.7761 36.208C90.1815 35.9733 90.5068 35.632 90.7521 35.184C91.0081 34.7253 91.1361 34.192 91.1361 33.584ZM97.1959 30.496C97.5052 30.0693 97.9265 29.7227 98.4599 29.456C99.0039 29.1787 99.6065 29.04 100.268 29.04C101.047 29.04 101.751 29.2267 102.38 29.6C103.009 29.9733 103.505 30.5067 103.868 31.2C104.231 31.8827 104.412 32.6667 104.412 33.552C104.412 34.4373 104.231 35.232 103.868 35.936C103.505 36.6293 103.004 37.1733 102.364 37.568C101.735 37.952 101.036 38.144 100.268 38.144C99.5852 38.144 98.9772 38.0107 98.4439 37.744C97.9212 37.4773 97.5052 37.136 97.1959 36.72V38H95.3719V26.16H97.1959V30.496ZM102.556 33.552C102.556 32.944 102.428 32.4213 102.172 31.984C101.927 31.536 101.596 31.2 101.18 30.976C100.775 30.7413 100.337 30.624 99.8679 30.624C99.4092 30.624 98.9719 30.7413 98.5559 30.976C98.1505 31.2107 97.8199 31.552 97.5639 32C97.3185 32.448 97.1959 32.976 97.1959 33.584C97.1959 34.192 97.3185 34.7253 97.5639 35.184C97.8199 35.632 98.1505 35.9733 98.5559 36.208C98.9719 36.4427 99.4092 36.56 99.8679 36.56C100.337 36.56 100.775 36.4427 101.18 36.208C101.596 35.9627 101.927 35.6107 102.172 35.152C102.428 34.6933 102.556 34.16 102.556 33.552ZM114.296 33.376C114.296 33.7067 114.274 34.0053 114.232 34.272H107.496C107.549 34.976 107.81 35.5413 108.28 35.968C108.749 36.3947 109.325 36.608 110.008 36.608C110.989 36.608 111.682 36.1973 112.088 35.376H114.056C113.789 36.1867 113.304 36.8533 112.6 37.376C111.906 37.888 111.042 38.144 110.008 38.144C109.165 38.144 108.408 37.9573 107.736 37.584C107.074 37.2 106.552 36.6667 106.168 35.984C105.794 35.2907 105.608 34.4907 105.608 33.584C105.608 32.6773 105.789 31.8827 106.152 31.2C106.525 30.5067 107.042 29.9733 107.704 29.6C108.376 29.2267 109.144 29.04 110.008 29.04C110.84 29.04 111.581 29.2213 112.232 29.584C112.882 29.9467 113.389 30.4587 113.752 31.12C114.114 31.7707 114.296 32.5227 114.296 33.376ZM112.392 32.8C112.381 32.128 112.141 31.5893 111.672 31.184C111.202 30.7787 110.621 30.576 109.928 30.576C109.298 30.576 108.76 30.7787 108.312 31.184C107.864 31.5787 107.597 32.1173 107.512 32.8H112.392ZM117.915 26.16V38H116.091V26.16H117.915Z" fill="#3A3A3A"/>
<path d="M126.272 27.136L126.992 28.416L124.8 29.232L126.992 30.048L126.256 31.36L124.432 29.92L124.768 32.24H123.296L123.6 29.92L121.776 31.392L121.008 30.032L123.184 29.216L121.008 28.432L121.744 27.12L123.616 28.56L123.296 26.224H124.784L124.432 28.56L126.272 27.136Z" fill="#DC3545"/>
<path d="M29.684 55.66V64H28.316V58.288L25.772 64H24.824L22.268 58.288V64H20.9V55.66H22.376L25.304 62.2L28.22 55.66H29.684ZM32.178 56.512C31.93 56.512 31.722 56.428 31.554 56.26C31.386 56.092 31.302 55.884 31.302 55.636C31.302 55.388 31.386 55.18 31.554 55.012C31.722 54.844 31.93 54.76 32.178 54.76C32.418 54.76 32.622 54.844 32.79 55.012C32.958 55.18 33.042 55.388 33.042 55.636C33.042 55.884 32.958 56.092 32.79 56.26C32.622 56.428 32.418 56.512 32.178 56.512ZM32.85 57.388V64H31.482V57.388H32.85ZM37.9821 57.28C38.5021 57.28 38.9661 57.388 39.3741 57.604C39.7901 57.82 40.1141 58.14 40.3461 58.564C40.5781 58.988 40.6941 59.5 40.6941 60.1V64H39.3381V60.304C39.3381 59.712 39.1901 59.26 38.8941 58.948C38.5981 58.628 38.1941 58.468 37.6821 58.468C37.1701 58.468 36.7621 58.628 36.4581 58.948C36.1621 59.26 36.0141 59.712 36.0141 60.304V64H34.6461V57.388H36.0141V58.144C36.2381 57.872 36.5221 57.66 36.8661 57.508C37.2181 57.356 37.5901 57.28 37.9821 57.28Z" fill="#3A3A3A"/>
<g filter="url(#filter0_d_1635_2345)">
<path d="M20 80C20 75.5817 23.5817 72 28 72H139C143.418 72 147 75.5817 147 80V112C147 116.418 143.418 120 139 120H28C23.5817 120 20 116.418 20 112V80Z" fill="white" shape-rendering="crispEdges"/>
<path d="M20.5 80C20.5 75.8579 23.8579 72.5 28 72.5H139C143.142 72.5 146.5 75.8579 146.5 80V112C146.5 116.142 143.142 119.5 139 119.5H28C23.8579 119.5 20.5 116.142 20.5 112V80Z" stroke="#7B7B7B" shape-rendering="crispEdges"/>
<path d="M44.544 90.928V102H43.088V93.744L39.408 102H38.384L34.688 93.728V102H33.232V90.928H34.8L38.896 100.08L42.992 90.928H44.544ZM47.7653 91.808C47.4879 91.808 47.2533 91.712 47.0613 91.52C46.8693 91.328 46.7733 91.0933 46.7733 90.816C46.7733 90.5387 46.8693 90.304 47.0613 90.112C47.2533 89.92 47.4879 89.824 47.7653 89.824C48.0319 89.824 48.2559 89.92 48.4373 90.112C48.6293 90.304 48.7253 90.5387 48.7253 90.816C48.7253 91.0933 48.6293 91.328 48.4373 91.52C48.2559 91.712 48.0319 91.808 47.7653 91.808ZM48.4693 93.232V102H47.0133V93.232H48.4693ZM55.2228 93.072C56.2894 93.072 57.1534 93.3973 57.8148 94.048C58.4761 94.688 58.8068 95.616 58.8068 96.832V102H57.3668V97.04C57.3668 96.1653 57.1481 95.4987 56.7108 95.04C56.2734 94.5707 55.6761 94.336 54.9188 94.336C54.1508 94.336 53.5374 94.576 53.0788 95.056C52.6308 95.536 52.4068 96.2347 52.4068 97.152V102H50.9508V93.232H52.4068V94.48C52.6948 94.032 53.0841 93.6853 53.5748 93.44C54.0761 93.1947 54.6254 93.072 55.2228 93.072Z" fill="#A4A4A4"/>
</g>
<path d="M180.684 55.66V64H179.316V58.288L176.772 64H175.824L173.268 58.288V64H171.9V55.66H173.376L176.304 62.2L179.22 55.66H180.684ZM182.026 60.664C182.026 60 182.162 59.412 182.434 58.9C182.714 58.388 183.09 57.992 183.562 57.712C184.042 57.424 184.57 57.28 185.146 57.28C185.666 57.28 186.118 57.384 186.502 57.592C186.894 57.792 187.206 58.044 187.438 58.348V57.388H188.818V64H187.438V63.016C187.206 63.328 186.89 63.588 186.49 63.796C186.09 64.004 185.634 64.108 185.122 64.108C184.554 64.108 184.034 63.964 183.562 63.676C183.09 63.38 182.714 62.972 182.434 62.452C182.162 61.924 182.026 61.328 182.026 60.664ZM187.438 60.688C187.438 60.232 187.342 59.836 187.15 59.5C186.966 59.164 186.722 58.908 186.418 58.732C186.114 58.556 185.786 58.468 185.434 58.468C185.082 58.468 184.754 58.556 184.45 58.732C184.146 58.9 183.898 59.152 183.706 59.488C183.522 59.816 183.43 60.208 183.43 60.664C183.43 61.12 183.522 61.52 183.706 61.864C183.898 62.208 184.146 62.472 184.45 62.656C184.762 62.832 185.09 62.92 185.434 62.92C185.786 62.92 186.114 62.832 186.418 62.656C186.722 62.48 186.966 62.224 187.15 61.888C187.342 61.544 187.438 61.144 187.438 60.688ZM193.447 60.652L195.583 64H194.035L192.607 61.756L191.263 64H189.835L191.971 60.748L189.835 57.388H191.383L192.811 59.632L194.155 57.388H195.583L193.447 60.652Z" fill="#3A3A3A"/>
<g filter="url(#filter1_d_1635_2345)">
<path d="M171 80C171 75.5817 174.582 72 179 72H290C294.418 72 298 75.5817 298 80V112C298 116.418 294.418 120 290 120H179C174.582 120 171 116.418 171 112V80Z" fill="white" shape-rendering="crispEdges"/>
<path d="M171.5 80C171.5 75.8579 174.858 72.5 179 72.5H290C294.142 72.5 297.5 75.8579 297.5 80V112C297.5 116.142 294.142 119.5 290 119.5H179C174.858 119.5 171.5 116.142 171.5 112V80Z" stroke="#7B7B7B" shape-rendering="crispEdges"/>
<path d="M195.544 90.928V102H194.088V93.744L190.408 102H189.384L185.688 93.728V102H184.232V90.928H185.8L189.896 100.08L193.992 90.928H195.544ZM197.469 97.584C197.469 96.688 197.651 95.904 198.013 95.232C198.376 94.5493 198.872 94.0213 199.501 93.648C200.141 93.2747 200.851 93.088 201.629 93.088C202.397 93.088 203.064 93.2533 203.629 93.584C204.195 93.9147 204.616 94.3307 204.893 94.832V93.232H206.365V102H204.893V100.368C204.605 100.88 204.173 101.307 203.597 101.648C203.032 101.979 202.371 102.144 201.613 102.144C200.835 102.144 200.131 101.952 199.501 101.568C198.872 101.184 198.376 100.645 198.013 99.952C197.651 99.2587 197.469 98.4693 197.469 97.584ZM204.893 97.6C204.893 96.9387 204.76 96.3627 204.493 95.872C204.227 95.3813 203.864 95.008 203.405 94.752C202.957 94.4853 202.461 94.352 201.917 94.352C201.373 94.352 200.877 94.48 200.429 94.736C199.981 94.992 199.624 95.3653 199.357 95.856C199.091 96.3467 198.957 96.9227 198.957 97.584C198.957 98.256 199.091 98.8427 199.357 99.344C199.624 99.8347 199.981 100.213 200.429 100.48C200.877 100.736 201.373 100.864 201.917 100.864C202.461 100.864 202.957 100.736 203.405 100.48C203.864 100.213 204.227 99.8347 204.493 99.344C204.76 98.8427 204.893 98.2613 204.893 97.6ZM213.402 102L211.322 98.736L209.322 102H207.802L210.634 97.648L207.802 93.232H209.45L211.53 96.48L213.514 93.232H215.034L212.218 97.568L215.05 102H213.402Z" fill="#A4A4A4"/>
</g>
<path d="M383.976 38L381.416 33.552H380.024V38H378.2V26.88H382.04C382.893 26.88 383.613 27.0293 384.2 27.328C384.797 27.6267 385.24 28.0267 385.528 28.528C385.827 29.0293 385.976 29.5893 385.976 30.208C385.976 30.9333 385.763 31.5947 385.336 32.192C384.92 32.7787 384.275 33.1787 383.4 33.392L386.152 38H383.976ZM380.024 32.096H382.04C382.723 32.096 383.235 31.9253 383.576 31.584C383.928 31.2427 384.104 30.784 384.104 30.208C384.104 29.632 383.933 29.184 383.592 28.864C383.251 28.5333 382.733 28.368 382.04 28.368H380.024V32.096ZM387.701 33.552C387.701 32.6667 387.883 31.8827 388.245 31.2C388.619 30.5173 389.12 29.9893 389.749 29.616C390.389 29.232 391.093 29.04 391.861 29.04C392.555 29.04 393.157 29.1787 393.669 29.456C394.192 29.7227 394.608 30.0587 394.917 30.464V29.184H396.757V38H394.917V36.688C394.608 37.104 394.187 37.4507 393.653 37.728C393.12 38.0053 392.512 38.144 391.829 38.144C391.072 38.144 390.379 37.952 389.749 37.568C389.12 37.1733 388.619 36.6293 388.245 35.936C387.883 35.232 387.701 34.4373 387.701 33.552ZM394.917 33.584C394.917 32.976 394.789 32.448 394.533 32C394.288 31.552 393.963 31.2107 393.557 30.976C393.152 30.7413 392.715 30.624 392.245 30.624C391.776 30.624 391.339 30.7413 390.933 30.976C390.528 31.2 390.197 31.536 389.941 31.984C389.696 32.4213 389.573 32.944 389.573 33.552C389.573 34.16 389.696 34.6933 389.941 35.152C390.197 35.6107 390.528 35.9627 390.933 36.208C391.349 36.4427 391.787 36.56 392.245 36.56C392.715 36.56 393.152 36.4427 393.557 36.208C393.963 35.9733 394.288 35.632 394.533 35.184C394.789 34.7253 394.917 34.192 394.917 33.584ZM403.601 29.04C404.294 29.04 404.913 29.184 405.457 29.472C406.012 29.76 406.444 30.1867 406.753 30.752C407.062 31.3173 407.217 32 407.217 32.8V38H405.409V33.072C405.409 32.2827 405.212 31.68 404.817 31.264C404.422 30.8373 403.884 30.624 403.201 30.624C402.518 30.624 401.974 30.8373 401.569 31.264C401.174 31.68 400.977 32.2827 400.977 33.072V38H399.153V29.184H400.977V30.192C401.276 29.8293 401.654 29.5467 402.113 29.344C402.582 29.1413 403.078 29.04 403.601 29.04ZM413.096 29.04C413.778 29.04 414.381 29.1787 414.904 29.456C415.437 29.7227 415.853 30.0587 416.152 30.464V29.184H417.992V38.144C417.992 38.9547 417.821 39.6747 417.48 40.304C417.138 40.944 416.642 41.4453 415.992 41.808C415.352 42.1707 414.584 42.352 413.688 42.352C412.493 42.352 411.501 42.0693 410.712 41.504C409.922 40.9493 409.474 40.192 409.368 39.232H411.176C411.314 39.6907 411.608 40.0587 412.056 40.336C412.514 40.624 413.058 40.768 413.688 40.768C414.424 40.768 415.016 40.544 415.464 40.096C415.922 39.648 416.152 38.9973 416.152 38.144V36.672C415.842 37.088 415.421 37.44 414.888 37.728C414.365 38.0053 413.768 38.144 413.096 38.144C412.328 38.144 411.624 37.952 410.984 37.568C410.354 37.1733 409.853 36.6293 409.48 35.936C409.117 35.232 408.936 34.4373 408.936 33.552C408.936 32.6667 409.117 31.8827 409.48 31.2C409.853 30.5173 410.354 29.9893 410.984 29.616C411.624 29.232 412.328 29.04 413.096 29.04ZM416.152 33.584C416.152 32.976 416.024 32.448 415.768 32C415.522 31.552 415.197 31.2107 414.792 30.976C414.386 30.7413 413.949 30.624 413.48 30.624C413.01 30.624 412.573 30.7413 412.168 30.976C411.762 31.2 411.432 31.536 411.176 31.984C410.93 32.4213 410.808 32.944 410.808 33.552C410.808 34.16 410.93 34.6933 411.176 35.152C411.432 35.6107 411.762 35.9627 412.168 36.208C412.584 36.4427 413.021 36.56 413.48 36.56C413.949 36.56 414.386 36.4427 414.792 36.208C415.197 35.9733 415.522 35.632 415.768 35.184C416.024 34.7253 416.152 34.192 416.152 33.584ZM428.468 33.376C428.468 33.7067 428.446 34.0053 428.404 34.272H421.668C421.721 34.976 421.982 35.5413 422.452 35.968C422.921 36.3947 423.497 36.608 424.18 36.608C425.161 36.608 425.854 36.1973 426.26 35.376H428.227C427.961 36.1867 427.476 36.8533 426.772 37.376C426.078 37.888 425.214 38.144 424.18 38.144C423.337 38.144 422.58 37.9573 421.908 37.584C421.246 37.2 420.724 36.6667 420.34 35.984C419.966 35.2907 419.78 34.4907 419.78 33.584C419.78 32.6773 419.961 31.8827 420.324 31.2C420.697 30.5067 421.214 29.9733 421.876 29.6C422.548 29.2267 423.316 29.04 424.18 29.04C425.012 29.04 425.753 29.2213 426.404 29.584C427.054 29.9467 427.561 30.4587 427.924 31.12C428.286 31.7707 428.468 32.5227 428.468 33.376ZM426.564 32.8C426.553 32.128 426.313 31.5893 425.844 31.184C425.374 30.7787 424.793 30.576 424.1 30.576C423.47 30.576 422.932 30.7787 422.484 31.184C422.036 31.5787 421.769 32.1173 421.684 32.8H426.564ZM436.243 36.528H440.003V38H434.419V26.88H436.243V36.528ZM440.92 33.552C440.92 32.6667 441.101 31.8827 441.464 31.2C441.837 30.5173 442.339 29.9893 442.968 29.616C443.608 29.232 444.312 29.04 445.08 29.04C445.773 29.04 446.376 29.1787 446.888 29.456C447.411 29.7227 447.827 30.0587 448.136 30.464V29.184H449.976V38H448.136V36.688C447.827 37.104 447.405 37.4507 446.872 37.728C446.339 38.0053 445.731 38.144 445.048 38.144C444.291 38.144 443.597 37.952 442.968 37.568C442.339 37.1733 441.837 36.6293 441.464 35.936C441.101 35.232 440.92 34.4373 440.92 33.552ZM448.136 33.584C448.136 32.976 448.008 32.448 447.752 32C447.507 31.552 447.181 31.2107 446.776 30.976C446.371 30.7413 445.933 30.624 445.464 30.624C444.995 30.624 444.557 30.7413 444.152 30.976C443.747 31.2 443.416 31.536 443.16 31.984C442.915 32.4213 442.792 32.944 442.792 33.552C442.792 34.16 442.915 34.6933 443.16 35.152C443.416 35.6107 443.747 35.9627 444.152 36.208C444.568 36.4427 445.005 36.56 445.464 36.56C445.933 36.56 446.371 36.4427 446.776 36.208C447.181 35.9733 447.507 35.632 447.752 35.184C448.008 34.7253 448.136 34.192 448.136 33.584ZM454.196 30.496C454.505 30.0693 454.927 29.7227 455.46 29.456C456.004 29.1787 456.607 29.04 457.268 29.04C458.047 29.04 458.751 29.2267 459.38 29.6C460.009 29.9733 460.505 30.5067 460.868 31.2C461.231 31.8827 461.412 32.6667 461.412 33.552C461.412 34.4373 461.231 35.232 460.868 35.936C460.505 36.6293 460.004 37.1733 459.364 37.568C458.735 37.952 458.036 38.144 457.268 38.144C456.585 38.144 455.977 38.0107 455.444 37.744C454.921 37.4773 454.505 37.136 454.196 36.72V38H452.372V26.16H454.196V30.496ZM459.556 33.552C459.556 32.944 459.428 32.4213 459.172 31.984C458.927 31.536 458.596 31.2 458.18 30.976C457.775 30.7413 457.337 30.624 456.868 30.624C456.409 30.624 455.972 30.7413 455.556 30.976C455.151 31.2107 454.82 31.552 454.564 32C454.319 32.448 454.196 32.976 454.196 33.584C454.196 34.192 454.319 34.7253 454.564 35.184C454.82 35.632 455.151 35.9733 455.556 36.208C455.972 36.4427 456.409 36.56 456.868 36.56C457.337 36.56 457.775 36.4427 458.18 36.208C458.596 35.9627 458.927 35.6107 459.172 35.152C459.428 34.6933 459.556 34.16 459.556 33.552ZM471.296 33.376C471.296 33.7067 471.274 34.0053 471.232 34.272H464.496C464.549 34.976 464.81 35.5413 465.28 35.968C465.749 36.3947 466.325 36.608 467.008 36.608C467.989 36.608 468.682 36.1973 469.088 35.376H471.056C470.789 36.1867 470.304 36.8533 469.6 37.376C468.906 37.888 468.042 38.144 467.008 38.144C466.165 38.144 465.408 37.9573 464.736 37.584C464.074 37.2 463.552 36.6667 463.168 35.984C462.794 35.2907 462.608 34.4907 462.608 33.584C462.608 32.6773 462.789 31.8827 463.152 31.2C463.525 30.5067 464.042 29.9733 464.704 29.6C465.376 29.2267 466.144 29.04 467.008 29.04C467.84 29.04 468.581 29.2213 469.232 29.584C469.882 29.9467 470.389 30.4587 470.752 31.12C471.114 31.7707 471.296 32.5227 471.296 33.376ZM469.392 32.8C469.381 32.128 469.141 31.5893 468.672 31.184C468.202 30.7787 467.621 30.576 466.928 30.576C466.298 30.576 465.76 30.7787 465.312 31.184C464.864 31.5787 464.597 32.1173 464.512 32.8H469.392ZM474.915 26.16V38H473.091V26.16H474.915Z" fill="#3A3A3A"/>
<path d="M483.272 27.136L483.992 28.416L481.8 29.232L483.992 30.048L483.256 31.36L481.432 29.92L481.768 32.24H480.296L480.6 29.92L478.776 31.392L478.008 30.032L480.184 29.216L478.008 28.432L478.744 27.12L480.616 28.56L480.296 26.224H481.784L481.432 28.56L483.272 27.136Z" fill="#DC3545"/>
<path d="M386.684 55.66V64H385.316V58.288L382.772 64H381.824L379.268 58.288V64H377.9V55.66H379.376L382.304 62.2L385.22 55.66H386.684ZM389.178 56.512C388.93 56.512 388.722 56.428 388.554 56.26C388.386 56.092 388.302 55.884 388.302 55.636C388.302 55.388 388.386 55.18 388.554 55.012C388.722 54.844 388.93 54.76 389.178 54.76C389.418 54.76 389.622 54.844 389.79 55.012C389.958 55.18 390.042 55.388 390.042 55.636C390.042 55.884 389.958 56.092 389.79 56.26C389.622 56.428 389.418 56.512 389.178 56.512ZM389.85 57.388V64H388.482V57.388H389.85ZM394.982 57.28C395.502 57.28 395.966 57.388 396.374 57.604C396.79 57.82 397.114 58.14 397.346 58.564C397.578 58.988 397.694 59.5 397.694 60.1V64H396.338V60.304C396.338 59.712 396.19 59.26 395.894 58.948C395.598 58.628 395.194 58.468 394.682 58.468C394.17 58.468 393.762 58.628 393.458 58.948C393.162 59.26 393.014 59.712 393.014 60.304V64H391.646V57.388H393.014V58.144C393.238 57.872 393.522 57.66 393.866 57.508C394.218 57.356 394.59 57.28 394.982 57.28Z" fill="#3A3A3A"/>
<g filter="url(#filter2_d_1635_2345)">
<path d="M377 80C377 75.5817 380.582 72 385 72H496C500.418 72 504 75.5817 504 80V108C504 112.418 500.418 116 496 116H385C380.582 116 377 112.418 377 108V80Z" fill="white" shape-rendering="crispEdges"/>
<path d="M377.5 80C377.5 75.8579 380.858 72.5 385 72.5H496C500.142 72.5 503.5 75.8579 503.5 80V108C503.5 112.142 500.142 115.5 496 115.5H385C380.858 115.5 377.5 112.142 377.5 108V80Z" stroke="#7B7B7B" shape-rendering="crispEdges"/>
<path d="M401.544 88.928V100H400.088V91.744L396.408 100H395.384L391.688 91.728V100H390.232V88.928H391.8L395.896 98.08L399.992 88.928H401.544ZM404.765 89.808C404.488 89.808 404.253 89.712 404.061 89.52C403.869 89.328 403.773 89.0933 403.773 88.816C403.773 88.5387 403.869 88.304 404.061 88.112C404.253 87.92 404.488 87.824 404.765 87.824C405.032 87.824 405.256 87.92 405.437 88.112C405.629 88.304 405.725 88.5387 405.725 88.816C405.725 89.0933 405.629 89.328 405.437 89.52C405.256 89.712 405.032 89.808 404.765 89.808ZM405.469 91.232V100H404.013V91.232H405.469ZM412.223 91.072C413.289 91.072 414.153 91.3973 414.815 92.048C415.476 92.688 415.807 93.616 415.807 94.832V100H414.367V95.04C414.367 94.1653 414.148 93.4987 413.711 93.04C413.273 92.5707 412.676 92.336 411.919 92.336C411.151 92.336 410.537 92.576 410.079 93.056C409.631 93.536 409.407 94.2347 409.407 95.152V100H407.951V91.232H409.407V92.48C409.695 92.032 410.084 91.6853 410.575 91.44C411.076 91.1947 411.625 91.072 412.223 91.072Z" fill="#A4A4A4"/>
</g>
<path d="M537.684 55.66V64H536.316V58.288L533.772 64H532.824L530.268 58.288V64H528.9V55.66H530.376L533.304 62.2L536.22 55.66H537.684ZM539.026 60.664C539.026 60 539.162 59.412 539.434 58.9C539.714 58.388 540.09 57.992 540.562 57.712C541.042 57.424 541.57 57.28 542.146 57.28C542.666 57.28 543.118 57.384 543.502 57.592C543.894 57.792 544.206 58.044 544.438 58.348V57.388H545.818V64H544.438V63.016C544.206 63.328 543.89 63.588 543.49 63.796C543.09 64.004 542.634 64.108 542.122 64.108C541.554 64.108 541.034 63.964 540.562 63.676C540.09 63.38 539.714 62.972 539.434 62.452C539.162 61.924 539.026 61.328 539.026 60.664ZM544.438 60.688C544.438 60.232 544.342 59.836 544.15 59.5C543.966 59.164 543.722 58.908 543.418 58.732C543.114 58.556 542.786 58.468 542.434 58.468C542.082 58.468 541.754 58.556 541.45 58.732C541.146 58.9 540.898 59.152 540.706 59.488C540.522 59.816 540.43 60.208 540.43 60.664C540.43 61.12 540.522 61.52 540.706 61.864C540.898 62.208 541.146 62.472 541.45 62.656C541.762 62.832 542.09 62.92 542.434 62.92C542.786 62.92 543.114 62.832 543.418 62.656C543.722 62.48 543.966 62.224 544.15 61.888C544.342 61.544 544.438 61.144 544.438 60.688ZM550.447 60.652L552.583 64H551.035L549.607 61.756L548.263 64H546.835L548.971 60.748L546.835 57.388H548.383L549.811 59.632L551.155 57.388H552.583L550.447 60.652Z" fill="#3A3A3A"/>
<g filter="url(#filter3_d_1635_2345)">
<path d="M528 80C528 75.5817 531.582 72 536 72H647C651.418 72 655 75.5817 655 80V108C655 112.418 651.418 116 647 116H536C531.582 116 528 112.418 528 108V80Z" fill="white" shape-rendering="crispEdges"/>
<path d="M528.5 80C528.5 75.8579 531.858 72.5 536 72.5H647C651.142 72.5 654.5 75.8579 654.5 80V108C654.5 112.142 651.142 115.5 647 115.5H536C531.858 115.5 528.5 112.142 528.5 108V80Z" stroke="#7B7B7B" shape-rendering="crispEdges"/>
<path d="M552.544 88.928V100H551.088V91.744L547.408 100H546.384L542.688 91.728V100H541.232V88.928H542.8L546.896 98.08L550.992 88.928H552.544ZM554.469 95.584C554.469 94.688 554.651 93.904 555.013 93.232C555.376 92.5493 555.872 92.0213 556.501 91.648C557.141 91.2747 557.851 91.088 558.629 91.088C559.397 91.088 560.064 91.2533 560.629 91.584C561.195 91.9147 561.616 92.3307 561.893 92.832V91.232H563.365V100H561.893V98.368C561.605 98.88 561.173 99.3067 560.597 99.648C560.032 99.9787 559.371 100.144 558.613 100.144C557.835 100.144 557.131 99.952 556.501 99.568C555.872 99.184 555.376 98.6453 555.013 97.952C554.651 97.2587 554.469 96.4693 554.469 95.584ZM561.893 95.6C561.893 94.9387 561.76 94.3627 561.493 93.872C561.227 93.3813 560.864 93.008 560.405 92.752C559.957 92.4853 559.461 92.352 558.917 92.352C558.373 92.352 557.877 92.48 557.429 92.736C556.981 92.992 556.624 93.3653 556.357 93.856C556.091 94.3467 555.957 94.9227 555.957 95.584C555.957 96.256 556.091 96.8427 556.357 97.344C556.624 97.8347 556.981 98.2133 557.429 98.48C557.877 98.736 558.373 98.864 558.917 98.864C559.461 98.864 559.957 98.736 560.405 98.48C560.864 98.2133 561.227 97.8347 561.493 97.344C561.76 96.8427 561.893 96.2613 561.893 95.6ZM570.402 100L568.322 96.736L566.322 100H564.802L567.634 95.648L564.802 91.232H566.45L568.53 94.48L570.514 91.232H572.034L569.218 95.568L572.05 100H570.402Z" fill="#A4A4A4"/>
</g>
<path d="M26.976 183L24.416 178.552H23.024V183H21.2V171.88H25.04C25.8933 171.88 26.6133 172.029 27.2 172.328C27.7973 172.627 28.24 173.027 28.528 173.528C28.8267 174.029 28.976 174.589 28.976 175.208C28.976 175.933 28.7627 176.595 28.336 177.192C27.92 177.779 27.2747 178.179 26.4 178.392L29.152 183H26.976ZM23.024 177.096H25.04C25.7227 177.096 26.2347 176.925 26.576 176.584C26.928 176.243 27.104 175.784 27.104 175.208C27.104 174.632 26.9333 174.184 26.592 173.864C26.2507 173.533 25.7333 173.368 25.04 173.368H23.024V177.096ZM30.7014 178.552C30.7014 177.667 30.8827 176.883 31.2454 176.2C31.6187 175.517 32.12 174.989 32.7494 174.616C33.3894 174.232 34.0934 174.04 34.8614 174.04C35.5547 174.04 36.1574 174.179 36.6694 174.456C37.192 174.723 37.608 175.059 37.9174 175.464V174.184H39.7574V183H37.9174V181.688C37.608 182.104 37.1867 182.451 36.6534 182.728C36.12 183.005 35.512 183.144 34.8294 183.144C34.072 183.144 33.3787 182.952 32.7494 182.568C32.12 182.173 31.6187 181.629 31.2454 180.936C30.8827 180.232 30.7014 179.437 30.7014 178.552ZM37.9174 178.584C37.9174 177.976 37.7894 177.448 37.5334 177C37.288 176.552 36.9627 176.211 36.5574 175.976C36.152 175.741 35.7147 175.624 35.2454 175.624C34.776 175.624 34.3387 175.741 33.9334 175.976C33.528 176.2 33.1974 176.536 32.9414 176.984C32.696 177.421 32.5734 177.944 32.5734 178.552C32.5734 179.16 32.696 179.693 32.9414 180.152C33.1974 180.611 33.528 180.963 33.9334 181.208C34.3494 181.443 34.7867 181.56 35.2454 181.56C35.7147 181.56 36.152 181.443 36.5574 181.208C36.9627 180.973 37.288 180.632 37.5334 180.184C37.7894 179.725 37.9174 179.192 37.9174 178.584ZM46.6011 174.04C47.2945 174.04 47.9131 174.184 48.4571 174.472C49.0118 174.76 49.4438 175.187 49.7531 175.752C50.0625 176.317 50.2171 177 50.2171 177.8V183H48.4091V178.072C48.4091 177.283 48.2118 176.68 47.8171 176.264C47.4225 175.837 46.8838 175.624 46.2011 175.624C45.5185 175.624 44.9745 175.837 44.5691 176.264C44.1745 176.68 43.9771 177.283 43.9771 178.072V183H42.1531V174.184H43.9771V175.192C44.2758 174.829 44.6545 174.547 45.1131 174.344C45.5825 174.141 46.0785 174.04 46.6011 174.04ZM56.0958 174.04C56.7784 174.04 57.3811 174.179 57.9038 174.456C58.4371 174.723 58.8531 175.059 59.1518 175.464V174.184H60.9918V183.144C60.9918 183.955 60.8211 184.675 60.4798 185.304C60.1384 185.944 59.6424 186.445 58.9918 186.808C58.3518 187.171 57.5838 187.352 56.6878 187.352C55.4931 187.352 54.5011 187.069 53.7118 186.504C52.9224 185.949 52.4744 185.192 52.3678 184.232H54.1758C54.3144 184.691 54.6078 185.059 55.0558 185.336C55.5144 185.624 56.0584 185.768 56.6878 185.768C57.4238 185.768 58.0158 185.544 58.4638 185.096C58.9224 184.648 59.1518 183.997 59.1518 183.144V181.672C58.8424 182.088 58.4211 182.44 57.8878 182.728C57.3651 183.005 56.7678 183.144 56.0958 183.144C55.3278 183.144 54.6238 182.952 53.9838 182.568C53.3544 182.173 52.8531 181.629 52.4798 180.936C52.1171 180.232 51.9358 179.437 51.9358 178.552C51.9358 177.667 52.1171 176.883 52.4798 176.2C52.8531 175.517 53.3544 174.989 53.9838 174.616C54.6238 174.232 55.3278 174.04 56.0958 174.04ZM59.1518 178.584C59.1518 177.976 59.0238 177.448 58.7678 177C58.5224 176.552 58.1971 176.211 57.7918 175.976C57.3864 175.741 56.9491 175.624 56.4798 175.624C56.0104 175.624 55.5731 175.741 55.1678 175.976C54.7624 176.2 54.4318 176.536 54.1758 176.984C53.9304 177.421 53.8078 177.944 53.8078 178.552C53.8078 179.16 53.9304 179.693 54.1758 180.152C54.4318 180.611 54.7624 180.963 55.1678 181.208C55.5838 181.443 56.0211 181.56 56.4798 181.56C56.9491 181.56 57.3864 181.443 57.7918 181.208C58.1971 180.973 58.5224 180.632 58.7678 180.184C59.0238 179.725 59.1518 179.192 59.1518 178.584ZM71.4675 178.376C71.4675 178.707 71.4462 179.005 71.4035 179.272H64.6675C64.7208 179.976 64.9822 180.541 65.4515 180.968C65.9208 181.395 66.4968 181.608 67.1795 181.608C68.1608 181.608 68.8542 181.197 69.2595 180.376H71.2275C70.9608 181.187 70.4755 181.853 69.7715 182.376C69.0782 182.888 68.2142 183.144 67.1795 183.144C66.3368 183.144 65.5795 182.957 64.9075 182.584C64.2462 182.2 63.7235 181.667 63.3395 180.984C62.9662 180.291 62.7795 179.491 62.7795 178.584C62.7795 177.677 62.9608 176.883 63.3235 176.2C63.6968 175.507 64.2142 174.973 64.8755 174.6C65.5475 174.227 66.3155 174.04 67.1795 174.04C68.0115 174.04 68.7528 174.221 69.4035 174.584C70.0542 174.947 70.5608 175.459 70.9235 176.12C71.2862 176.771 71.4675 177.523 71.4675 178.376ZM69.5635 177.8C69.5528 177.128 69.3128 176.589 68.8435 176.184C68.3742 175.779 67.7928 175.576 67.0995 175.576C66.4702 175.576 65.9315 175.779 65.4835 176.184C65.0355 176.579 64.7688 177.117 64.6835 177.8H69.5635ZM79.2428 181.528H83.0028V183H77.4188V171.88H79.2428V181.528ZM83.9201 178.552C83.9201 177.667 84.1015 176.883 84.4641 176.2C84.8375 175.517 85.3388 174.989 85.9681 174.616C86.6081 174.232 87.3121 174.04 88.0801 174.04C88.7735 174.04 89.3761 174.179 89.8881 174.456C90.4108 174.723 90.8268 175.059 91.1361 175.464V174.184H92.9761V183H91.1361V181.688C90.8268 182.104 90.4055 182.451 89.8721 182.728C89.3388 183.005 88.7308 183.144 88.0481 183.144C87.2908 183.144 86.5975 182.952 85.9681 182.568C85.3388 182.173 84.8375 181.629 84.4641 180.936C84.1015 180.232 83.9201 179.437 83.9201 178.552ZM91.1361 178.584C91.1361 177.976 91.0081 177.448 90.7521 177C90.5068 176.552 90.1815 176.211 89.7761 175.976C89.3708 175.741 88.9335 175.624 88.4641 175.624C87.9948 175.624 87.5575 175.741 87.1521 175.976C86.7468 176.2 86.4161 176.536 86.1601 176.984C85.9148 177.421 85.7921 177.944 85.7921 178.552C85.7921 179.16 85.9148 179.693 86.1601 180.152C86.4161 180.611 86.7468 180.963 87.1521 181.208C87.5681 181.443 88.0055 181.56 88.4641 181.56C88.9335 181.56 89.3708 181.443 89.7761 181.208C90.1815 180.973 90.5068 180.632 90.7521 180.184C91.0081 179.725 91.1361 179.192 91.1361 178.584ZM97.1959 175.496C97.5052 175.069 97.9265 174.723 98.4599 174.456C99.0039 174.179 99.6065 174.04 100.268 174.04C101.047 174.04 101.751 174.227 102.38 174.6C103.009 174.973 103.505 175.507 103.868 176.2C104.231 176.883 104.412 177.667 104.412 178.552C104.412 179.437 104.231 180.232 103.868 180.936C103.505 181.629 103.004 182.173 102.364 182.568C101.735 182.952 101.036 183.144 100.268 183.144C99.5852 183.144 98.9772 183.011 98.4439 182.744C97.9212 182.477 97.5052 182.136 97.1959 181.72V183H95.3719V171.16H97.1959V175.496ZM102.556 178.552C102.556 177.944 102.428 177.421 102.172 176.984C101.927 176.536 101.596 176.2 101.18 175.976C100.775 175.741 100.337 175.624 99.8679 175.624C99.4092 175.624 98.9719 175.741 98.5559 175.976C98.1505 176.211 97.8199 176.552 97.5639 177C97.3185 177.448 97.1959 177.976 97.1959 178.584C97.1959 179.192 97.3185 179.725 97.5639 180.184C97.8199 180.632 98.1505 180.973 98.5559 181.208C98.9719 181.443 99.4092 181.56 99.8679 181.56C100.337 181.56 100.775 181.443 101.18 181.208C101.596 180.963 101.927 180.611 102.172 180.152C102.428 179.693 102.556 179.16 102.556 178.552ZM114.296 178.376C114.296 178.707 114.274 179.005 114.232 179.272H107.496C107.549 179.976 107.81 180.541 108.28 180.968C108.749 181.395 109.325 181.608 110.008 181.608C110.989 181.608 111.682 181.197 112.088 180.376H114.056C113.789 181.187 113.304 181.853 112.6 182.376C111.906 182.888 111.042 183.144 110.008 183.144C109.165 183.144 108.408 182.957 107.736 182.584C107.074 182.2 106.552 181.667 106.168 180.984C105.794 180.291 105.608 179.491 105.608 178.584C105.608 177.677 105.789 176.883 106.152 176.2C106.525 175.507 107.042 174.973 107.704 174.6C108.376 174.227 109.144 174.04 110.008 174.04C110.84 174.04 111.581 174.221 112.232 174.584C112.882 174.947 113.389 175.459 113.752 176.12C114.114 176.771 114.296 177.523 114.296 178.376ZM112.392 177.8C112.381 177.128 112.141 176.589 111.672 176.184C111.202 175.779 110.621 175.576 109.928 175.576C109.298 175.576 108.76 175.779 108.312 176.184C107.864 176.579 107.597 177.117 107.512 177.8H112.392ZM117.915 171.16V183H116.091V171.16H117.915Z" fill="#3A3A3A"/>
<path d="M126.272 172.136L126.992 173.416L124.8 174.232L126.992 175.048L126.256 176.36L124.432 174.92L124.768 177.24H123.296L123.6 174.92L121.776 176.392L121.008 175.032L123.184 174.216L121.008 173.432L121.744 172.12L123.616 173.56L123.296 171.224H124.784L124.432 173.56L126.272 172.136Z" fill="#DC3545"/>
<path d="M29.684 200.66V209H28.316V203.288L25.772 209H24.824L22.268 203.288V209H20.9V200.66H22.376L25.304 207.2L28.22 200.66H29.684ZM32.178 201.512C31.93 201.512 31.722 201.428 31.554 201.26C31.386 201.092 31.302 200.884 31.302 200.636C31.302 200.388 31.386 200.18 31.554 200.012C31.722 199.844 31.93 199.76 32.178 199.76C32.418 199.76 32.622 199.844 32.79 200.012C32.958 200.18 33.042 200.388 33.042 200.636C33.042 200.884 32.958 201.092 32.79 201.26C32.622 201.428 32.418 201.512 32.178 201.512ZM32.85 202.388V209H31.482V202.388H32.85ZM37.9821 202.28C38.5021 202.28 38.9661 202.388 39.3741 202.604C39.7901 202.82 40.1141 203.14 40.3461 203.564C40.5781 203.988 40.6941 204.5 40.6941 205.1V209H39.3381V205.304C39.3381 204.712 39.1901 204.26 38.8941 203.948C38.5981 203.628 38.1941 203.468 37.6821 203.468C37.1701 203.468 36.7621 203.628 36.4581 203.948C36.1621 204.26 36.0141 204.712 36.0141 205.304V209H34.6461V202.388H36.0141V203.144C36.2381 202.872 36.5221 202.66 36.8661 202.508C37.2181 202.356 37.5901 202.28 37.9821 202.28Z" fill="#3A3A3A"/>
<g filter="url(#filter4_d_1635_2345)">
<path d="M20 225C20 220.582 23.5817 217 28 217H139C143.418 217 147 220.582 147 225V257C147 261.418 143.418 265 139 265H28C23.5817 265 20 261.418 20 257V225Z" fill="#C2C2C2" shape-rendering="crispEdges"/>
<path d="M44.544 235.928V247H43.088V238.744L39.408 247H38.384L34.688 238.728V247H33.232V235.928H34.8L38.896 245.08L42.992 235.928H44.544ZM47.7653 236.808C47.4879 236.808 47.2533 236.712 47.0613 236.52C46.8693 236.328 46.7733 236.093 46.7733 235.816C46.7733 235.539 46.8693 235.304 47.0613 235.112C47.2533 234.92 47.4879 234.824 47.7653 234.824C48.0319 234.824 48.2559 234.92 48.4373 235.112C48.6293 235.304 48.7253 235.539 48.7253 235.816C48.7253 236.093 48.6293 236.328 48.4373 236.52C48.2559 236.712 48.0319 236.808 47.7653 236.808ZM48.4693 238.232V247H47.0133V238.232H48.4693ZM55.2228 238.072C56.2894 238.072 57.1534 238.397 57.8148 239.048C58.4761 239.688 58.8068 240.616 58.8068 241.832V247H57.3668V242.04C57.3668 241.165 57.1481 240.499 56.7108 240.04C56.2734 239.571 55.6761 239.336 54.9188 239.336C54.1508 239.336 53.5374 239.576 53.0788 240.056C52.6308 240.536 52.4068 241.235 52.4068 242.152V247H50.9508V238.232H52.4068V239.48C52.6948 239.032 53.0841 238.685 53.5748 238.44C54.0761 238.195 54.6254 238.072 55.2228 238.072Z" fill="#3A3A3A"/>
</g>
<path d="M180.684 200.66V209H179.316V203.288L176.772 209H175.824L173.268 203.288V209H171.9V200.66H173.376L176.304 207.2L179.22 200.66H180.684ZM182.026 205.664C182.026 205 182.162 204.412 182.434 203.9C182.714 203.388 183.09 202.992 183.562 202.712C184.042 202.424 184.57 202.28 185.146 202.28C185.666 202.28 186.118 202.384 186.502 202.592C186.894 202.792 187.206 203.044 187.438 203.348V202.388H188.818V209H187.438V208.016C187.206 208.328 186.89 208.588 186.49 208.796C186.09 209.004 185.634 209.108 185.122 209.108C184.554 209.108 184.034 208.964 183.562 208.676C183.09 208.38 182.714 207.972 182.434 207.452C182.162 206.924 182.026 206.328 182.026 205.664ZM187.438 205.688C187.438 205.232 187.342 204.836 187.15 204.5C186.966 204.164 186.722 203.908 186.418 203.732C186.114 203.556 185.786 203.468 185.434 203.468C185.082 203.468 184.754 203.556 184.45 203.732C184.146 203.9 183.898 204.152 183.706 204.488C183.522 204.816 183.43 205.208 183.43 205.664C183.43 206.12 183.522 206.52 183.706 206.864C183.898 207.208 184.146 207.472 184.45 207.656C184.762 207.832 185.09 207.92 185.434 207.92C185.786 207.92 186.114 207.832 186.418 207.656C186.722 207.48 186.966 207.224 187.15 206.888C187.342 206.544 187.438 206.144 187.438 205.688ZM193.447 205.652L195.583 209H194.035L192.607 206.756L191.263 209H189.835L191.971 205.748L189.835 202.388H191.383L192.811 204.632L194.155 202.388H195.583L193.447 205.652Z" fill="#3A3A3A"/>
<g filter="url(#filter5_d_1635_2345)">
<path d="M171 225C171 220.582 174.582 217 179 217H290C294.418 217 298 220.582 298 225V257C298 261.418 294.418 265 290 265H179C174.582 265 171 261.418 171 257V225Z" fill="#C2C2C2" shape-rendering="crispEdges"/>
<path d="M195.544 235.928V247H194.088V238.744L190.408 247H189.384L185.688 238.728V247H184.232V235.928H185.8L189.896 245.08L193.992 235.928H195.544ZM197.469 242.584C197.469 241.688 197.651 240.904 198.013 240.232C198.376 239.549 198.872 239.021 199.501 238.648C200.141 238.275 200.851 238.088 201.629 238.088C202.397 238.088 203.064 238.253 203.629 238.584C204.195 238.915 204.616 239.331 204.893 239.832V238.232H206.365V247H204.893V245.368C204.605 245.88 204.173 246.307 203.597 246.648C203.032 246.979 202.371 247.144 201.613 247.144C200.835 247.144 200.131 246.952 199.501 246.568C198.872 246.184 198.376 245.645 198.013 244.952C197.651 244.259 197.469 243.469 197.469 242.584ZM204.893 242.6C204.893 241.939 204.76 241.363 204.493 240.872C204.227 240.381 203.864 240.008 203.405 239.752C202.957 239.485 202.461 239.352 201.917 239.352C201.373 239.352 200.877 239.48 200.429 239.736C199.981 239.992 199.624 240.365 199.357 240.856C199.091 241.347 198.957 241.923 198.957 242.584C198.957 243.256 199.091 243.843 199.357 244.344C199.624 244.835 199.981 245.213 200.429 245.48C200.877 245.736 201.373 245.864 201.917 245.864C202.461 245.864 202.957 245.736 203.405 245.48C203.864 245.213 204.227 244.835 204.493 244.344C204.76 243.843 204.893 243.261 204.893 242.6ZM213.402 247L211.322 243.736L209.322 247H207.802L210.634 242.648L207.802 238.232H209.45L211.53 241.48L213.514 238.232H215.034L212.218 242.568L215.05 247H213.402Z" fill="#3A3A3A"/>
</g>
<path d="M383.976 183L381.416 178.552H380.024V183H378.2V171.88H382.04C382.893 171.88 383.613 172.029 384.2 172.328C384.797 172.627 385.24 173.027 385.528 173.528C385.827 174.029 385.976 174.589 385.976 175.208C385.976 175.933 385.763 176.595 385.336 177.192C384.92 177.779 384.275 178.179 383.4 178.392L386.152 183H383.976ZM380.024 177.096H382.04C382.723 177.096 383.235 176.925 383.576 176.584C383.928 176.243 384.104 175.784 384.104 175.208C384.104 174.632 383.933 174.184 383.592 173.864C383.251 173.533 382.733 173.368 382.04 173.368H380.024V177.096ZM387.701 178.552C387.701 177.667 387.883 176.883 388.245 176.2C388.619 175.517 389.12 174.989 389.749 174.616C390.389 174.232 391.093 174.04 391.861 174.04C392.555 174.04 393.157 174.179 393.669 174.456C394.192 174.723 394.608 175.059 394.917 175.464V174.184H396.757V183H394.917V181.688C394.608 182.104 394.187 182.451 393.653 182.728C393.12 183.005 392.512 183.144 391.829 183.144C391.072 183.144 390.379 182.952 389.749 182.568C389.12 182.173 388.619 181.629 388.245 180.936C387.883 180.232 387.701 179.437 387.701 178.552ZM394.917 178.584C394.917 177.976 394.789 177.448 394.533 177C394.288 176.552 393.963 176.211 393.557 175.976C393.152 175.741 392.715 175.624 392.245 175.624C391.776 175.624 391.339 175.741 390.933 175.976C390.528 176.2 390.197 176.536 389.941 176.984C389.696 177.421 389.573 177.944 389.573 178.552C389.573 179.16 389.696 179.693 389.941 180.152C390.197 180.611 390.528 180.963 390.933 181.208C391.349 181.443 391.787 181.56 392.245 181.56C392.715 181.56 393.152 181.443 393.557 181.208C393.963 180.973 394.288 180.632 394.533 180.184C394.789 179.725 394.917 179.192 394.917 178.584ZM403.601 174.04C404.294 174.04 404.913 174.184 405.457 174.472C406.012 174.76 406.444 175.187 406.753 175.752C407.062 176.317 407.217 177 407.217 177.8V183H405.409V178.072C405.409 177.283 405.212 176.68 404.817 176.264C404.422 175.837 403.884 175.624 403.201 175.624C402.518 175.624 401.974 175.837 401.569 176.264C401.174 176.68 400.977 177.283 400.977 178.072V183H399.153V174.184H400.977V175.192C401.276 174.829 401.654 174.547 402.113 174.344C402.582 174.141 403.078 174.04 403.601 174.04ZM413.096 174.04C413.778 174.04 414.381 174.179 414.904 174.456C415.437 174.723 415.853 175.059 416.152 175.464V174.184H417.992V183.144C417.992 183.955 417.821 184.675 417.48 185.304C417.138 185.944 416.642 186.445 415.992 186.808C415.352 187.171 414.584 187.352 413.688 187.352C412.493 187.352 411.501 187.069 410.712 186.504C409.922 185.949 409.474 185.192 409.368 184.232H411.176C411.314 184.691 411.608 185.059 412.056 185.336C412.514 185.624 413.058 185.768 413.688 185.768C414.424 185.768 415.016 185.544 415.464 185.096C415.922 184.648 416.152 183.997 416.152 183.144V181.672C415.842 182.088 415.421 182.44 414.888 182.728C414.365 183.005 413.768 183.144 413.096 183.144C412.328 183.144 411.624 182.952 410.984 182.568C410.354 182.173 409.853 181.629 409.48 180.936C409.117 180.232 408.936 179.437 408.936 178.552C408.936 177.667 409.117 176.883 409.48 176.2C409.853 175.517 410.354 174.989 410.984 174.616C411.624 174.232 412.328 174.04 413.096 174.04ZM416.152 178.584C416.152 177.976 416.024 177.448 415.768 177C415.522 176.552 415.197 176.211 414.792 175.976C414.386 175.741 413.949 175.624 413.48 175.624C413.01 175.624 412.573 175.741 412.168 175.976C411.762 176.2 411.432 176.536 411.176 176.984C410.93 177.421 410.808 177.944 410.808 178.552C410.808 179.16 410.93 179.693 411.176 180.152C411.432 180.611 411.762 180.963 412.168 181.208C412.584 181.443 413.021 181.56 413.48 181.56C413.949 181.56 414.386 181.443 414.792 181.208C415.197 180.973 415.522 180.632 415.768 180.184C416.024 179.725 416.152 179.192 416.152 178.584ZM428.468 178.376C428.468 178.707 428.446 179.005 428.404 179.272H421.668C421.721 179.976 421.982 180.541 422.452 180.968C422.921 181.395 423.497 181.608 424.18 181.608C425.161 181.608 425.854 181.197 426.26 180.376H428.227C427.961 181.187 427.476 181.853 426.772 182.376C426.078 182.888 425.214 183.144 424.18 183.144C423.337 183.144 422.58 182.957 421.908 182.584C421.246 182.2 420.724 181.667 420.34 180.984C419.966 180.291 419.78 179.491 419.78 178.584C419.78 177.677 419.961 176.883 420.324 176.2C420.697 175.507 421.214 174.973 421.876 174.6C422.548 174.227 423.316 174.04 424.18 174.04C425.012 174.04 425.753 174.221 426.404 174.584C427.054 174.947 427.561 175.459 427.924 176.12C428.286 176.771 428.468 177.523 428.468 178.376ZM426.564 177.8C426.553 177.128 426.313 176.589 425.844 176.184C425.374 175.779 424.793 175.576 424.1 175.576C423.47 175.576 422.932 175.779 422.484 176.184C422.036 176.579 421.769 177.117 421.684 177.8H426.564ZM436.243 181.528H440.003V183H434.419V171.88H436.243V181.528ZM440.92 178.552C440.92 177.667 441.101 176.883 441.464 176.2C441.837 175.517 442.339 174.989 442.968 174.616C443.608 174.232 444.312 174.04 445.08 174.04C445.773 174.04 446.376 174.179 446.888 174.456C447.411 174.723 447.827 175.059 448.136 175.464V174.184H449.976V183H448.136V181.688C447.827 182.104 447.405 182.451 446.872 182.728C446.339 183.005 445.731 183.144 445.048 183.144C444.291 183.144 443.597 182.952 442.968 182.568C442.339 182.173 441.837 181.629 441.464 180.936C441.101 180.232 440.92 179.437 440.92 178.552ZM448.136 178.584C448.136 177.976 448.008 177.448 447.752 177C447.507 176.552 447.181 176.211 446.776 175.976C446.371 175.741 445.933 175.624 445.464 175.624C444.995 175.624 444.557 175.741 444.152 175.976C443.747 176.2 443.416 176.536 443.16 176.984C442.915 177.421 442.792 177.944 442.792 178.552C442.792 179.16 442.915 179.693 443.16 180.152C443.416 180.611 443.747 180.963 444.152 181.208C444.568 181.443 445.005 181.56 445.464 181.56C445.933 181.56 446.371 181.443 446.776 181.208C447.181 180.973 447.507 180.632 447.752 180.184C448.008 179.725 448.136 179.192 448.136 178.584ZM454.196 175.496C454.505 175.069 454.927 174.723 455.46 174.456C456.004 174.179 456.607 174.04 457.268 174.04C458.047 174.04 458.751 174.227 459.38 174.6C460.009 174.973 460.505 175.507 460.868 176.2C461.231 176.883 461.412 177.667 461.412 178.552C461.412 179.437 461.231 180.232 460.868 180.936C460.505 181.629 460.004 182.173 459.364 182.568C458.735 182.952 458.036 183.144 457.268 183.144C456.585 183.144 455.977 183.011 455.444 182.744C454.921 182.477 454.505 182.136 454.196 181.72V183H452.372V171.16H454.196V175.496ZM459.556 178.552C459.556 177.944 459.428 177.421 459.172 176.984C458.927 176.536 458.596 176.2 458.18 175.976C457.775 175.741 457.337 175.624 456.868 175.624C456.409 175.624 455.972 175.741 455.556 175.976C455.151 176.211 454.82 176.552 454.564 177C454.319 177.448 454.196 177.976 454.196 178.584C454.196 179.192 454.319 179.725 454.564 180.184C454.82 180.632 455.151 180.973 455.556 181.208C455.972 181.443 456.409 181.56 456.868 181.56C457.337 181.56 457.775 181.443 458.18 181.208C458.596 180.963 458.927 180.611 459.172 180.152C459.428 179.693 459.556 179.16 459.556 178.552ZM471.296 178.376C471.296 178.707 471.274 179.005 471.232 179.272H464.496C464.549 179.976 464.81 180.541 465.28 180.968C465.749 181.395 466.325 181.608 467.008 181.608C467.989 181.608 468.682 181.197 469.088 180.376H471.056C470.789 181.187 470.304 181.853 469.6 182.376C468.906 182.888 468.042 183.144 467.008 183.144C466.165 183.144 465.408 182.957 464.736 182.584C464.074 182.2 463.552 181.667 463.168 180.984C462.794 180.291 462.608 179.491 462.608 178.584C462.608 177.677 462.789 176.883 463.152 176.2C463.525 175.507 464.042 174.973 464.704 174.6C465.376 174.227 466.144 174.04 467.008 174.04C467.84 174.04 468.581 174.221 469.232 174.584C469.882 174.947 470.389 175.459 470.752 176.12C471.114 176.771 471.296 177.523 471.296 178.376ZM469.392 177.8C469.381 177.128 469.141 176.589 468.672 176.184C468.202 175.779 467.621 175.576 466.928 175.576C466.298 175.576 465.76 175.779 465.312 176.184C464.864 176.579 464.597 177.117 464.512 177.8H469.392ZM474.915 171.16V183H473.091V171.16H474.915Z" fill="#3A3A3A"/>
<path d="M483.272 172.136L483.992 173.416L481.8 174.232L483.992 175.048L483.256 176.36L481.432 174.92L481.768 177.24H480.296L480.6 174.92L478.776 176.392L478.008 175.032L480.184 174.216L478.008 173.432L478.744 172.12L480.616 173.56L480.296 171.224H481.784L481.432 173.56L483.272 172.136Z" fill="#DC3545"/>
<path d="M386.684 200.66V209H385.316V203.288L382.772 209H381.824L379.268 203.288V209H377.9V200.66H379.376L382.304 207.2L385.22 200.66H386.684ZM389.178 201.512C388.93 201.512 388.722 201.428 388.554 201.26C388.386 201.092 388.302 200.884 388.302 200.636C388.302 200.388 388.386 200.18 388.554 200.012C388.722 199.844 388.93 199.76 389.178 199.76C389.418 199.76 389.622 199.844 389.79 200.012C389.958 200.18 390.042 200.388 390.042 200.636C390.042 200.884 389.958 201.092 389.79 201.26C389.622 201.428 389.418 201.512 389.178 201.512ZM389.85 202.388V209H388.482V202.388H389.85ZM394.982 202.28C395.502 202.28 395.966 202.388 396.374 202.604C396.79 202.82 397.114 203.14 397.346 203.564C397.578 203.988 397.694 204.5 397.694 205.1V209H396.338V205.304C396.338 204.712 396.19 204.26 395.894 203.948C395.598 203.628 395.194 203.468 394.682 203.468C394.17 203.468 393.762 203.628 393.458 203.948C393.162 204.26 393.014 204.712 393.014 205.304V209H391.646V202.388H393.014V203.144C393.238 202.872 393.522 202.66 393.866 202.508C394.218 202.356 394.59 202.28 394.982 202.28Z" fill="#3A3A3A"/>
<g filter="url(#filter6_d_1635_2345)">
<path d="M377 225C377 220.582 380.582 217 385 217H496C500.418 217 504 220.582 504 225V253C504 257.418 500.418 261 496 261H385C380.582 261 377 257.418 377 253V225Z" fill="#C2C2C2" shape-rendering="crispEdges"/>
<path d="M401.544 233.928V245H400.088V236.744L396.408 245H395.384L391.688 236.728V245H390.232V233.928H391.8L395.896 243.08L399.992 233.928H401.544ZM404.765 234.808C404.488 234.808 404.253 234.712 404.061 234.52C403.869 234.328 403.773 234.093 403.773 233.816C403.773 233.539 403.869 233.304 404.061 233.112C404.253 232.92 404.488 232.824 404.765 232.824C405.032 232.824 405.256 232.92 405.437 233.112C405.629 233.304 405.725 233.539 405.725 233.816C405.725 234.093 405.629 234.328 405.437 234.52C405.256 234.712 405.032 234.808 404.765 234.808ZM405.469 236.232V245H404.013V236.232H405.469ZM412.223 236.072C413.289 236.072 414.153 236.397 414.815 237.048C415.476 237.688 415.807 238.616 415.807 239.832V245H414.367V240.04C414.367 239.165 414.148 238.499 413.711 238.04C413.273 237.571 412.676 237.336 411.919 237.336C411.151 237.336 410.537 237.576 410.079 238.056C409.631 238.536 409.407 239.235 409.407 240.152V245H407.951V236.232H409.407V237.48C409.695 237.032 410.084 236.685 410.575 236.44C411.076 236.195 411.625 236.072 412.223 236.072Z" fill="#3A3A3A"/>
</g>
<path d="M537.684 200.66V209H536.316V203.288L533.772 209H532.824L530.268 203.288V209H528.9V200.66H530.376L533.304 207.2L536.22 200.66H537.684ZM539.026 205.664C539.026 205 539.162 204.412 539.434 203.9C539.714 203.388 540.09 202.992 540.562 202.712C541.042 202.424 541.57 202.28 542.146 202.28C542.666 202.28 543.118 202.384 543.502 202.592C543.894 202.792 544.206 203.044 544.438 203.348V202.388H545.818V209H544.438V208.016C544.206 208.328 543.89 208.588 543.49 208.796C543.09 209.004 542.634 209.108 542.122 209.108C541.554 209.108 541.034 208.964 540.562 208.676C540.09 208.38 539.714 207.972 539.434 207.452C539.162 206.924 539.026 206.328 539.026 205.664ZM544.438 205.688C544.438 205.232 544.342 204.836 544.15 204.5C543.966 204.164 543.722 203.908 543.418 203.732C543.114 203.556 542.786 203.468 542.434 203.468C542.082 203.468 541.754 203.556 541.45 203.732C541.146 203.9 540.898 204.152 540.706 204.488C540.522 204.816 540.43 205.208 540.43 205.664C540.43 206.12 540.522 206.52 540.706 206.864C540.898 207.208 541.146 207.472 541.45 207.656C541.762 207.832 542.09 207.92 542.434 207.92C542.786 207.92 543.114 207.832 543.418 207.656C543.722 207.48 543.966 207.224 544.15 206.888C544.342 206.544 544.438 206.144 544.438 205.688ZM550.447 205.652L552.583 209H551.035L549.607 206.756L548.263 209H546.835L548.971 205.748L546.835 202.388H548.383L549.811 204.632L551.155 202.388H552.583L550.447 205.652Z" fill="#3A3A3A"/>
<g filter="url(#filter7_d_1635_2345)">
<path d="M528 225C528 220.582 531.582 217 536 217H647C651.418 217 655 220.582 655 225V253C655 257.418 651.418 261 647 261H536C531.582 261 528 257.418 528 253V225Z" fill="#C2C2C2" shape-rendering="crispEdges"/>
<path d="M552.544 233.928V245H551.088V236.744L547.408 245H546.384L542.688 236.728V245H541.232V233.928H542.8L546.896 243.08L550.992 233.928H552.544ZM554.469 240.584C554.469 239.688 554.651 238.904 555.013 238.232C555.376 237.549 555.872 237.021 556.501 236.648C557.141 236.275 557.851 236.088 558.629 236.088C559.397 236.088 560.064 236.253 560.629 236.584C561.195 236.915 561.616 237.331 561.893 237.832V236.232H563.365V245H561.893V243.368C561.605 243.88 561.173 244.307 560.597 244.648C560.032 244.979 559.371 245.144 558.613 245.144C557.835 245.144 557.131 244.952 556.501 244.568C555.872 244.184 555.376 243.645 555.013 242.952C554.651 242.259 554.469 241.469 554.469 240.584ZM561.893 240.6C561.893 239.939 561.76 239.363 561.493 238.872C561.227 238.381 560.864 238.008 560.405 237.752C559.957 237.485 559.461 237.352 558.917 237.352C558.373 237.352 557.877 237.48 557.429 237.736C556.981 237.992 556.624 238.365 556.357 238.856C556.091 239.347 555.957 239.923 555.957 240.584C555.957 241.256 556.091 241.843 556.357 242.344C556.624 242.835 556.981 243.213 557.429 243.48C557.877 243.736 558.373 243.864 558.917 243.864C559.461 243.864 559.957 243.736 560.405 243.48C560.864 243.213 561.227 242.835 561.493 242.344C561.76 241.843 561.893 241.261 561.893 240.6ZM570.402 245L568.322 241.736L566.322 245H564.802L567.634 240.648L564.802 236.232H566.45L568.53 239.48L570.514 236.232H572.034L569.218 240.568L572.05 245H570.402Z" fill="#3A3A3A"/>
</g>
<defs>
<filter id="filter0_d_1635_2345" x="16" y="69" width="135" height="56" filterUnits="userSpaceOnUse" color-interpolation-filters="sRGB">
<feFlood flood-opacity="0" result="BackgroundImageFix"/>
<feColorMatrix in="SourceAlpha" type="matrix" values="0 0 0 0 0 0 0 0 0 0 0 0 0 0 0 0 0 0 127 0" result="hardAlpha"/>
<feOffset dy="1"/>
<feGaussianBlur stdDeviation="2"/>
<feComposite in2="hardAlpha" operator="out"/>
<feColorMatrix type="matrix" values="0 0 0 0 0 0 0 0 0 0 0 0 0 0 0 0 0 0 0.15 0"/>
<feBlend mode="normal" in2="BackgroundImageFix" result="effect1_dropShadow_1635_2345"/>
<feBlend mode="normal" in="SourceGraphic" in2="effect1_dropShadow_1635_2345" result="shape"/>
</filter>
<filter id="filter1_d_1635_2345" x="167" y="69" width="135" height="56" filterUnits="userSpaceOnUse" color-interpolation-filters="sRGB">
<feFlood flood-opacity="0" result="BackgroundImageFix"/>
<feColorMatrix in="SourceAlpha" type="matrix" values="0 0 0 0 0 0 0 0 0 0 0 0 0 0 0 0 0 0 127 0" result="hardAlpha"/>
<feOffset dy="1"/>
<feGaussianBlur stdDeviation="2"/>
<feComposite in2="hardAlpha" operator="out"/>
<feColorMatrix type="matrix" values="0 0 0 0 0 0 0 0 0 0 0 0 0 0 0 0 0 0 0.15 0"/>
<feBlend mode="normal" in2="BackgroundImageFix" result="effect1_dropShadow_1635_2345"/>
<feBlend mode="normal" in="SourceGraphic" in2="effect1_dropShadow_1635_2345" result="shape"/>
</filter>
<filter id="filter2_d_1635_2345" x="373" y="69" width="135" height="52" filterUnits="userSpaceOnUse" color-interpolation-filters="sRGB">
<feFlood flood-opacity="0" result="BackgroundImageFix"/>
<feColorMatrix in="SourceAlpha" type="matrix" values="0 0 0 0 0 0 0 0 0 0 0 0 0 0 0 0 0 0 127 0" result="hardAlpha"/>
<feOffset dy="1"/>
<feGaussianBlur stdDeviation="2"/>
<feComposite in2="hardAlpha" operator="out"/>
<feColorMatrix type="matrix" values="0 0 0 0 0 0 0 0 0 0 0 0 0 0 0 0 0 0 0.15 0"/>
<feBlend mode="normal" in2="BackgroundImageFix" result="effect1_dropShadow_1635_2345"/>
<feBlend mode="normal" in="SourceGraphic" in2="effect1_dropShadow_1635_2345" result="shape"/>
</filter>
<filter id="filter3_d_1635_2345" x="524" y="69" width="135" height="52" filterUnits="userSpaceOnUse" color-interpolation-filters="sRGB">
<feFlood flood-opacity="0" result="BackgroundImageFix"/>
<feColorMatrix in="SourceAlpha" type="matrix" values="0 0 0 0 0 0 0 0 0 0 0 0 0 0 0 0 0 0 127 0" result="hardAlpha"/>
<feOffset dy="1"/>
<feGaussianBlur stdDeviation="2"/>
<feComposite in2="hardAlpha" operator="out"/>
<feColorMatrix type="matrix" values="0 0 0 0 0 0 0 0 0 0 0 0 0 0 0 0 0 0 0.15 0"/>
<feBlend mode="normal" in2="BackgroundImageFix" result="effect1_dropShadow_1635_2345"/>
<feBlend mode="normal" in="SourceGraphic" in2="effect1_dropShadow_1635_2345" result="shape"/>
</filter>
<filter id="filter4_d_1635_2345" x="16" y="214" width="135" height="56" filterUnits="userSpaceOnUse" color-interpolation-filters="sRGB">
<feFlood flood-opacity="0" result="BackgroundImageFix"/>
<feColorMatrix in="SourceAlpha" type="matrix" values="0 0 0 0 0 0 0 0 0 0 0 0 0 0 0 0 0 0 127 0" result="hardAlpha"/>
<feOffset dy="1"/>
<feGaussianBlur stdDeviation="2"/>
<feComposite in2="hardAlpha" operator="out"/>
<feColorMatrix type="matrix" values="0 0 0 0 0 0 0 0 0 0 0 0 0 0 0 0 0 0 0.15 0"/>
<feBlend mode="normal" in2="BackgroundImageFix" result="effect1_dropShadow_1635_2345"/>
<feBlend mode="normal" in="SourceGraphic" in2="effect1_dropShadow_1635_2345" result="shape"/>
</filter>
<filter id="filter5_d_1635_2345" x="167" y="214" width="135" height="56" filterUnits="userSpaceOnUse" color-interpolation-filters="sRGB">
<feFlood flood-opacity="0" result="BackgroundImageFix"/>
<feColorMatrix in="SourceAlpha" type="matrix" values="0 0 0 0 0 0 0 0 0 0 0 0 0 0 0 0 0 0 127 0" result="hardAlpha"/>
<feOffset dy="1"/>
<feGaussianBlur stdDeviation="2"/>
<feComposite in2="hardAlpha" operator="out"/>
<feColorMatrix type="matrix" values="0 0 0 0 0 0 0 0 0 0 0 0 0 0 0 0 0 0 0.15 0"/>
<feBlend mode="normal" in2="BackgroundImageFix" result="effect1_dropShadow_1635_2345"/>
<feBlend mode="normal" in="SourceGraphic" in2="effect1_dropShadow_1635_2345" result="shape"/>
</filter>
<filter id="filter6_d_1635_2345" x="373" y="214" width="135" height="52" filterUnits="userSpaceOnUse" color-interpolation-filters="sRGB">
<feFlood flood-opacity="0" result="BackgroundImageFix"/>
<feColorMatrix in="SourceAlpha" type="matrix" values="0 0 0 0 0 0 0 0 0 0 0 0 0 0 0 0 0 0 127 0" result="hardAlpha"/>
<feOffset dy="1"/>
<feGaussianBlur stdDeviation="2"/>
<feComposite in2="hardAlpha" operator="out"/>
<feColorMatrix type="matrix" values="0 0 0 0 0 0 0 0 0 0 0 0 0 0 0 0 0 0 0.15 0"/>
<feBlend mode="normal" in2="BackgroundImageFix" result="effect1_dropShadow_1635_2345"/>
<feBlend mode="normal" in="SourceGraphic" in2="effect1_dropShadow_1635_2345" result="shape"/>
</filter>
<filter id="filter7_d_1635_2345" x="524" y="214" width="135" height="52" filterUnits="userSpaceOnUse" color-interpolation-filters="sRGB">
<feFlood flood-opacity="0" result="BackgroundImageFix"/>
<feColorMatrix in="SourceAlpha" type="matrix" values="0 0 0 0 0 0 0 0 0 0 0 0 0 0 0 0 0 0 127 0" result="hardAlpha"/>
<feOffset dy="1"/>
<feGaussianBlur stdDeviation="2"/>
<feComposite in2="hardAlpha" operator="out"/>
<feColorMatrix type="matrix" values="0 0 0 0 0 0 0 0 0 0 0 0 0 0 0 0 0 0 0.15 0"/>
<feBlend mode="normal" in2="BackgroundImageFix" result="effect1_dropShadow_1635_2345"/>
<feBlend mode="normal" in="SourceGraphic" in2="effect1_dropShadow_1635_2345" result="shape"/>
</filter>
</defs>
</svg>
