<svg width="1440" height="1443" viewBox="0 0 1440 1443" fill="none" xmlns="http://www.w3.org/2000/svg">
<g clip-path="url(#clip0_10_4502)">
<rect width="1440" height="1443" fill="#EFF0F6"/>
<g filter="url(#filter0_d_10_4502)">
<g clip-path="url(#clip1_10_4502)">
<rect width="278" height="1443" rx="4" fill="white"/>
<path fill-rule="evenodd" clip-rule="evenodd" d="M257.523 29.6461L251.154 23.3384C250.969 23.1538 250.969 22.8461 251.154 22.6615L257.523 16.3538C257.708 16.1692 258.015 16.1692 258.2 16.3538L258.877 17.0307C259.062 17.2153 259.062 17.523 258.877 17.7076L253.862 22.6615C253.677 22.8461 253.677 23.1538 253.862 23.3384L258.846 28.2923C259.031 28.4769 259.031 28.7846 258.846 28.9692L258.169 29.6461C257.985 29.7999 257.708 29.7999 257.523 29.6461Z" fill="#969696"/>
<path d="M247 16.8335C247 16.5574 247.224 16.3335 247.5 16.3335H248.5C248.776 16.3335 249 16.5574 249 16.8335V29.1668C249 29.443 248.776 29.6668 248.5 29.6668H247.5C247.224 29.6668 247 29.443 247 29.1668V16.8335Z" fill="#969696"/>
<rect x="15" y="286" width="248" height="44" rx="4" fill="#F7F7F7"/>
<path d="M44.075 248.267C44.0703 248.245 44.0703 248.222 44.075 248.2C44.071 248.181 44.071 248.161 44.075 248.142V248.067L44.025 247.942C44.0047 247.907 43.9794 247.877 43.95 247.85L43.875 247.783H43.8333L40.55 245.708L37.45 243.792C37.3783 243.735 37.2962 243.692 37.2083 243.667H37.1417C37.0672 243.654 36.9911 243.654 36.9167 243.667H36.8333C36.7365 243.688 36.6437 243.725 36.5583 243.775L30.3333 247.65L30.2583 247.708L30.1833 247.775L30.1 247.833L30.0583 247.883L30.0083 248.008V248.083V248.133C30.0002 248.188 30.0002 248.245 30.0083 248.3V255.575C30.008 255.717 30.0439 255.856 30.1124 255.98C30.1809 256.104 30.2799 256.208 30.4 256.283L36.65 260.15L36.775 260.2H36.8417C36.9826 260.245 37.134 260.245 37.275 260.2H37.3417L37.4667 260.15L43.6667 256.342C43.7868 256.266 43.8857 256.162 43.9543 256.038C44.0228 255.914 44.0586 255.775 44.0583 255.633V248.358C44.0583 248.358 44.075 248.3 44.075 248.267ZM37 245.475L38.4833 246.392L33.825 249.275L32.3333 248.358L37 245.475ZM36.1667 257.975L31.5833 255.175V249.85L36.1667 252.683V257.975ZM37 251.217L35.4083 250.258L40.0667 247.367L41.6667 248.358L37 251.217ZM42.4167 255.15L37.8333 258V252.683L42.4167 249.85V255.15Z" fill="#212121"/>
<rect x="63" y="248" width="115.2" height="9" rx="4.5" fill="#3B3B3B"/>
<path d="M45.0917 304.075C45.0142 303.997 44.9221 303.935 44.8205 303.893C44.719 303.85 44.61 303.829 44.5 303.829C44.39 303.829 44.2811 303.85 44.1795 303.893C44.078 303.935 43.9858 303.997 43.9084 304.075L38.6667 309.325L35.0917 305.742C35.0142 305.664 34.9221 305.602 34.8205 305.559C34.719 305.517 34.61 305.495 34.5 305.495C34.39 305.495 34.2811 305.517 34.1795 305.559C34.078 305.602 33.9858 305.664 33.9084 305.742L28.9084 310.742C28.8303 310.819 28.7683 310.911 28.726 311.013C28.6836 311.115 28.6619 311.223 28.6619 311.333C28.6619 311.443 28.6836 311.552 28.726 311.654C28.7683 311.755 28.8303 311.848 28.9084 311.925C28.9858 312.003 29.078 312.065 29.1796 312.108C29.2811 312.15 29.39 312.172 29.5 312.172C29.61 312.172 29.719 312.15 29.8205 312.108C29.9221 312.065 30.0142 312.003 30.0917 311.925L34.5 307.508L38.075 311.092C38.1525 311.17 38.2447 311.232 38.3462 311.274C38.4478 311.316 38.5567 311.338 38.6667 311.338C38.7767 311.338 38.8856 311.316 38.9872 311.274C39.0887 311.232 39.1809 311.17 39.2584 311.092L45.0917 305.258C45.1698 305.181 45.2318 305.089 45.2741 304.987C45.3164 304.886 45.3382 304.777 45.3382 304.667C45.3382 304.557 45.3164 304.448 45.2741 304.346C45.2318 304.245 45.1698 304.153 45.0917 304.075Z" fill="#808080"/>
<rect x="63" y="304" width="67.2" height="9" rx="4.5" fill="#808080"/>
<path d="M32 363.167C31.8352 363.167 31.674 363.215 31.537 363.307C31.4 363.399 31.2932 363.529 31.2301 363.681C31.167 363.833 31.1505 364.001 31.1827 364.162C31.2148 364.324 31.2942 364.473 31.4107 364.589C31.5273 364.706 31.6758 364.785 31.8374 364.817C31.9991 364.849 32.1666 364.833 32.3189 364.77C32.4712 364.707 32.6013 364.6 32.6929 364.463C32.7844 364.326 32.8333 364.165 32.8333 364C32.8333 363.779 32.7455 363.567 32.5892 363.411C32.433 363.254 32.221 363.167 32 363.167ZM42 363.167C41.8352 363.167 41.674 363.215 41.537 363.307C41.4 363.399 41.2932 363.529 41.2301 363.681C41.167 363.833 41.1505 364.001 41.1827 364.162C41.2148 364.324 41.2942 364.473 41.4107 364.589C41.5273 364.706 41.6758 364.785 41.8374 364.817C41.9991 364.849 42.1666 364.833 42.3189 364.77C42.4712 364.707 42.6013 364.6 42.6929 364.463C42.7844 364.326 42.8333 364.165 42.8333 364C42.8333 363.779 42.7455 363.567 42.5892 363.411C42.433 363.254 42.221 363.167 42 363.167ZM43.6666 358.167H30.3333C29.6703 358.167 29.0344 358.43 28.5655 358.899C28.0967 359.368 27.8333 360.003 27.8333 360.667V367.333C27.8333 367.996 28.0967 368.632 28.5655 369.101C29.0344 369.57 29.6703 369.833 30.3333 369.833H43.6666C44.3297 369.833 44.9656 369.57 45.4344 369.101C45.9033 368.632 46.1666 367.996 46.1666 367.333V360.667C46.1666 360.003 45.9033 359.368 45.4344 358.899C44.9656 358.43 44.3297 358.167 43.6666 358.167ZM44.5 367.333C44.5 367.554 44.4122 367.766 44.2559 367.922C44.0996 368.079 43.8877 368.167 43.6666 368.167H30.3333C30.1123 368.167 29.9003 368.079 29.7441 367.922C29.5878 367.766 29.5 367.554 29.5 367.333V360.667C29.5 360.445 29.5878 360.234 29.7441 360.077C29.9003 359.921 30.1123 359.833 30.3333 359.833H43.6666C43.8877 359.833 44.0996 359.921 44.2559 360.077C44.4122 360.234 44.5 360.445 44.5 360.667V367.333ZM37 361.5C36.5055 361.5 36.0222 361.646 35.6111 361.921C35.1999 362.196 34.8795 362.586 34.6903 363.043C34.5011 363.5 34.4516 364.003 34.548 364.488C34.6445 364.973 34.8826 365.418 35.2322 365.768C35.5818 366.117 36.0273 366.355 36.5123 366.452C36.9972 366.548 37.4999 366.499 37.9567 366.31C38.4135 366.12 38.8039 365.8 39.0787 365.389C39.3534 364.978 39.5 364.494 39.5 364C39.5 363.337 39.2366 362.701 38.7677 362.232C38.2989 361.763 37.663 361.5 37 361.5ZM37 364.833C36.8352 364.833 36.674 364.784 36.537 364.693C36.4 364.601 36.2932 364.471 36.2301 364.319C36.167 364.166 36.1505 363.999 36.1827 363.837C36.2148 363.676 36.2942 363.527 36.4107 363.411C36.5273 363.294 36.6758 363.215 36.8374 363.183C36.9991 363.15 37.1666 363.167 37.3189 363.23C37.4712 363.293 37.6013 363.4 37.6929 363.537C37.7844 363.674 37.8333 363.835 37.8333 364C37.8333 364.221 37.7455 364.433 37.5892 364.589C37.433 364.745 37.221 364.833 37 364.833Z" fill="#212121"/>
<rect x="63" y="360" width="67.2" height="9" rx="4.5" fill="#3B3B3B"/>
<path d="M250.167 249.642C250.011 249.487 249.799 249.399 249.579 249.399C249.359 249.399 249.148 249.487 248.992 249.642L246 252.592L243.05 249.642C242.894 249.487 242.683 249.399 242.462 249.399C242.242 249.399 242.031 249.487 241.875 249.642C241.797 249.719 241.735 249.811 241.693 249.913C241.65 250.014 241.628 250.123 241.628 250.233C241.628 250.343 241.65 250.452 241.693 250.554C241.735 250.655 241.797 250.748 241.875 250.825L245.408 254.358C245.486 254.437 245.578 254.499 245.679 254.541C245.781 254.583 245.89 254.605 246 254.605C246.11 254.605 246.219 254.583 246.32 254.541C246.422 254.499 246.514 254.437 246.592 254.358L250.167 250.825C250.245 250.748 250.307 250.655 250.349 250.554C250.391 250.452 250.413 250.343 250.413 250.233C250.413 250.123 250.391 250.014 250.349 249.913C250.307 249.811 250.245 249.719 250.167 249.642Z" fill="#878787"/>
<path d="M42 481.983V479.333C41.9988 478.152 41.5798 477.01 40.8172 476.109C40.0545 475.207 38.9975 474.605 37.8333 474.408V473.5C37.8333 473.279 37.7455 473.067 37.5892 472.911C37.433 472.754 37.221 472.667 37 472.667C36.779 472.667 36.567 472.754 36.4107 472.911C36.2544 473.067 36.1666 473.279 36.1666 473.5V474.408C35.0024 474.605 33.9454 475.207 33.1828 476.109C32.4202 477.01 32.0012 478.152 32 479.333V481.983C31.5137 482.155 31.0925 482.473 30.7941 482.894C30.4957 483.315 30.3348 483.817 30.3333 484.333V486C30.3333 486.221 30.4211 486.433 30.5774 486.589C30.7337 486.745 30.9456 486.833 31.1666 486.833H33.7833C33.9752 487.539 34.3941 488.163 34.9755 488.607C35.5568 489.052 36.2682 489.292 37 489.292C37.7317 489.292 38.4432 489.052 39.0245 488.607C39.6058 488.163 40.0247 487.539 40.2166 486.833H42.8333C43.0543 486.833 43.2663 486.745 43.4226 486.589C43.5788 486.433 43.6666 486.221 43.6666 486V484.333C43.6652 483.817 43.5042 483.315 43.2059 482.894C42.9075 482.473 42.4863 482.155 42 481.983ZM33.6666 479.333C33.6666 478.449 34.0178 477.601 34.643 476.976C35.2681 476.351 36.1159 476 37 476C37.884 476 38.7319 476.351 39.357 476.976C39.9821 477.601 40.3333 478.449 40.3333 479.333V481.833H33.6666V479.333ZM37 487.667C36.7091 487.665 36.4238 487.587 36.1723 487.441C35.9209 487.295 35.7121 487.085 35.5666 486.833H38.4333C38.2879 487.085 38.0791 487.295 37.8276 487.441C37.5762 487.587 37.2908 487.665 37 487.667ZM42 485.167H32V484.333C32 484.112 32.0878 483.9 32.2441 483.744C32.4003 483.588 32.6123 483.5 32.8333 483.5H41.1666C41.3877 483.5 41.5996 483.588 41.7559 483.744C41.9122 483.9 42 484.112 42 484.333V485.167Z" fill="#212121"/>
<rect x="63" y="477" width="105.6" height="9" rx="4.5" fill="#3B3B3B"/>
<path d="M42 537.983V535.333C41.9988 534.152 41.5798 533.01 40.8172 532.109C40.0545 531.207 38.9975 530.605 37.8333 530.408V529.5C37.8333 529.279 37.7455 529.067 37.5892 528.911C37.433 528.754 37.221 528.667 37 528.667C36.779 528.667 36.567 528.754 36.4107 528.911C36.2544 529.067 36.1666 529.279 36.1666 529.5V530.408C35.0024 530.605 33.9454 531.207 33.1828 532.109C32.4202 533.01 32.0012 534.152 32 535.333V537.983C31.5137 538.155 31.0925 538.473 30.7941 538.894C30.4957 539.315 30.3348 539.817 30.3333 540.333V542C30.3333 542.221 30.4211 542.433 30.5774 542.589C30.7337 542.745 30.9456 542.833 31.1666 542.833H33.7833C33.9752 543.539 34.3941 544.163 34.9755 544.607C35.5568 545.052 36.2682 545.292 37 545.292C37.7317 545.292 38.4432 545.052 39.0245 544.607C39.6058 544.163 40.0247 543.539 40.2166 542.833H42.8333C43.0543 542.833 43.2663 542.745 43.4226 542.589C43.5788 542.433 43.6666 542.221 43.6666 542V540.333C43.6652 539.817 43.5042 539.315 43.2059 538.894C42.9075 538.473 42.4863 538.155 42 537.983ZM33.6666 535.333C33.6666 534.449 34.0178 533.601 34.643 532.976C35.2681 532.351 36.1159 532 37 532C37.884 532 38.7319 532.351 39.357 532.976C39.9821 533.601 40.3333 534.449 40.3333 535.333V537.833H33.6666V535.333ZM37 543.667C36.7091 543.665 36.4238 543.587 36.1723 543.441C35.9209 543.295 35.7121 543.085 35.5666 542.833H38.4333C38.2879 543.085 38.0791 543.295 37.8276 543.441C37.5762 543.587 37.2908 543.665 37 543.667ZM42 541.167H32V540.333C32 540.112 32.0878 539.9 32.2441 539.744C32.4003 539.588 32.6123 539.5 32.8333 539.5H41.1666C41.3877 539.5 41.5996 539.588 41.7559 539.744C41.9122 539.9 42 540.112 42 540.333V541.167Z" fill="#212121"/>
<rect x="63" y="533" width="76.8" height="9" rx="4.5" fill="#3B3B3B"/>
<path d="M43.6667 192.666L38.6667 188.283C38.2083 187.873 37.615 187.646 37 187.646C36.3851 187.646 35.7917 187.873 35.3334 188.283L30.3334 192.666C30.0687 192.903 29.8574 193.194 29.7137 193.518C29.5701 193.843 29.4972 194.195 29.5 194.55V201.833C29.5 202.496 29.7634 203.132 30.2323 203.601C30.7011 204.07 31.337 204.333 32 204.333H42C42.6631 204.333 43.2989 204.07 43.7678 203.601C44.2366 203.132 44.5 202.496 44.5 201.833V194.541C44.5017 194.188 44.4282 193.838 44.2846 193.514C44.1409 193.191 43.9303 192.902 43.6667 192.666ZM38.6667 202.666H35.3334V198.5C35.3334 198.279 35.4211 198.067 35.5774 197.911C35.7337 197.754 35.9457 197.666 36.1667 197.666H37.8334C38.0544 197.666 38.2663 197.754 38.4226 197.911C38.5789 198.067 38.6667 198.279 38.6667 198.5V202.666ZM42.8334 201.833C42.8334 202.054 42.7456 202.266 42.5893 202.422C42.433 202.579 42.221 202.666 42 202.666H40.3334V198.5C40.3334 197.837 40.07 197.201 39.6011 196.732C39.1323 196.263 38.4964 196 37.8334 196H36.1667C35.5036 196 34.8678 196.263 34.3989 196.732C33.9301 197.201 33.6667 197.837 33.6667 198.5V202.666H32C31.779 202.666 31.567 202.579 31.4108 202.422C31.2545 202.266 31.1667 202.054 31.1667 201.833V194.541C31.1668 194.423 31.1922 194.306 31.241 194.198C31.2899 194.091 31.3611 193.995 31.45 193.916L36.45 189.541C36.6021 189.408 36.7976 189.334 37 189.334C37.2024 189.334 37.3979 189.408 37.55 189.541L42.55 193.916C42.6389 193.995 42.7101 194.091 42.759 194.198C42.8079 194.306 42.8332 194.423 42.8334 194.541V201.833Z" fill="#212121"/>
<rect x="63" y="192" width="38.4" height="9" rx="4.5" fill="#3B3B3B"/>
<path d="M43.5833 1315.55C43.4497 1315.4 43.376 1315.2 43.376 1315C43.376 1314.8 43.4497 1314.6 43.5833 1314.45L44.65 1313.25C44.7675 1313.12 44.8405 1312.95 44.8585 1312.78C44.8765 1312.6 44.8385 1312.43 44.75 1312.27L43.0833 1309.39C42.9957 1309.24 42.8624 1309.12 42.7023 1309.05C42.5422 1308.98 42.3635 1308.96 42.1917 1308.99L40.625 1309.31C40.4256 1309.35 40.2181 1309.32 40.0416 1309.21C39.865 1309.11 39.7317 1308.95 39.6667 1308.76L39.1583 1307.23C39.1024 1307.07 38.9959 1306.92 38.8539 1306.82C38.7118 1306.72 38.5414 1306.67 38.3667 1306.67H35.0333C34.8516 1306.66 34.6718 1306.71 34.5213 1306.81C34.3708 1306.91 34.258 1307.06 34.2 1307.23L33.7333 1308.76C33.6683 1308.95 33.535 1309.11 33.3584 1309.21C33.1819 1309.32 32.9743 1309.35 32.775 1309.31L31.1667 1308.99C31.0038 1308.97 30.8377 1308.99 30.6895 1309.07C30.5412 1309.14 30.4172 1309.25 30.3333 1309.39L28.6667 1312.27C28.576 1312.43 28.5352 1312.6 28.5501 1312.78C28.5651 1312.95 28.6351 1313.12 28.75 1313.25L29.8083 1314.45C29.9419 1314.6 30.0156 1314.8 30.0156 1315C30.0156 1315.2 29.9419 1315.4 29.8083 1315.55L28.75 1316.75C28.6351 1316.88 28.5651 1317.05 28.5501 1317.22C28.5352 1317.4 28.576 1317.57 28.6667 1317.72L30.3333 1320.61C30.4209 1320.76 30.5543 1320.88 30.7144 1320.95C30.8745 1321.02 31.0532 1321.04 31.225 1321.01L32.7917 1320.69C32.991 1320.65 33.1985 1320.68 33.3751 1320.78C33.5516 1320.89 33.685 1321.05 33.75 1321.24L34.2583 1322.77C34.3163 1322.94 34.4292 1323.09 34.5796 1323.19C34.7301 1323.29 34.9099 1323.34 35.0917 1323.33H38.425C38.5997 1323.33 38.7701 1323.28 38.9122 1323.18C39.0542 1323.08 39.1608 1322.93 39.2167 1322.77L39.725 1321.24C39.79 1321.05 39.9234 1320.89 40.0999 1320.78C40.2764 1320.68 40.484 1320.65 40.6833 1320.69L42.25 1321.01C42.4218 1321.04 42.6005 1321.02 42.7606 1320.95C42.9207 1320.88 43.0541 1320.76 43.1417 1320.61L44.8083 1317.72C44.8968 1317.57 44.9348 1317.4 44.9168 1317.22C44.8989 1317.05 44.8259 1316.88 44.7083 1316.75L43.5833 1315.55ZM42.3417 1316.67L43.0083 1317.42L41.9417 1319.27L40.9583 1319.07C40.3581 1318.94 39.7338 1319.05 39.2038 1319.35C38.6738 1319.66 38.2751 1320.15 38.0833 1320.73L37.7667 1321.67H35.6333L35.3333 1320.72C35.1415 1320.13 34.7428 1319.64 34.2128 1319.34C33.6829 1319.03 33.0585 1318.93 32.4583 1319.05L31.475 1319.25L30.3917 1317.41L31.0583 1316.66C31.4683 1316.2 31.6949 1315.61 31.6949 1314.99C31.6949 1314.38 31.4683 1313.78 31.0583 1313.32L30.3917 1312.57L31.4583 1310.74L32.4417 1310.94C33.0418 1311.06 33.6662 1310.96 34.1962 1310.66C34.7261 1310.35 35.1249 1309.86 35.3167 1309.27L35.6333 1308.33H37.7667L38.0833 1309.28C38.2751 1309.87 38.6738 1310.36 39.2038 1310.66C39.7338 1310.97 40.3581 1311.07 40.9583 1310.95L41.9417 1310.75L43.0083 1312.6L42.3417 1313.35C41.9363 1313.81 41.7125 1314.4 41.7125 1315.01C41.7125 1315.62 41.9363 1316.21 42.3417 1316.67ZM36.7 1311.67C36.0407 1311.67 35.3963 1311.86 34.8481 1312.23C34.2999 1312.59 33.8727 1313.12 33.6204 1313.72C33.3681 1314.33 33.3021 1315 33.4307 1315.65C33.5593 1316.3 33.8768 1316.89 34.343 1317.36C34.8091 1317.82 35.4031 1318.14 36.0497 1318.27C36.6963 1318.4 37.3665 1318.33 37.9756 1318.08C38.5847 1317.83 39.1053 1317.4 39.4716 1316.85C39.8378 1316.3 40.0333 1315.66 40.0333 1315C40.0333 1314.12 39.6821 1313.27 39.057 1312.64C38.4319 1312.02 37.5841 1311.67 36.7 1311.67ZM36.7 1316.67C36.3704 1316.67 36.0481 1316.57 35.774 1316.39C35.5 1316.2 35.2863 1315.94 35.1602 1315.64C35.034 1315.33 35.001 1315 35.0654 1314.67C35.1297 1314.35 35.2884 1314.05 35.5215 1313.82C35.7546 1313.59 36.0515 1313.43 36.3748 1313.37C36.6981 1313.3 37.0333 1313.33 37.3378 1313.46C37.6423 1313.59 37.9026 1313.8 38.0858 1314.07C38.2689 1314.35 38.3667 1314.67 38.3667 1315C38.3667 1315.44 38.1911 1315.87 37.8785 1316.18C37.5659 1316.49 37.142 1316.67 36.7 1316.67Z" fill="#878787"/>
<rect x="63" y="1311" width="76.8" height="9" rx="4.5" fill="#424242"/>
<path d="M37.4917 1371.83L35.575 1373.74C35.4969 1373.82 35.4349 1373.91 35.3926 1374.01C35.3503 1374.11 35.3285 1374.22 35.3285 1374.33C35.3285 1374.44 35.3503 1374.55 35.3926 1374.65C35.4349 1374.76 35.4969 1374.85 35.575 1374.92C35.6525 1375 35.7447 1375.07 35.8462 1375.11C35.9478 1375.15 36.0567 1375.17 36.1667 1375.17C36.2767 1375.17 36.3856 1375.15 36.4872 1375.11C36.5887 1375.07 36.6809 1375 36.7584 1374.92L40.0917 1371.59C40.1676 1371.51 40.227 1371.42 40.2667 1371.32C40.35 1371.11 40.35 1370.89 40.2667 1370.68C40.227 1370.58 40.1676 1370.49 40.0917 1370.41L36.7584 1367.07C36.6807 1367 36.5884 1366.94 36.4869 1366.89C36.3854 1366.85 36.2766 1366.83 36.1667 1366.83C36.0568 1366.83 35.948 1366.85 35.8465 1366.89C35.745 1366.94 35.6527 1367 35.575 1367.07C35.4973 1367.15 35.4357 1367.24 35.3936 1367.35C35.3516 1367.45 35.3299 1367.56 35.3299 1367.67C35.3299 1367.78 35.3516 1367.89 35.3936 1367.99C35.4357 1368.09 35.4973 1368.18 35.575 1368.26L37.4917 1370.17H29.5C29.279 1370.17 29.067 1370.25 28.9108 1370.41C28.7545 1370.57 28.6667 1370.78 28.6667 1371C28.6667 1371.22 28.7545 1371.43 28.9108 1371.59C29.067 1371.75 29.279 1371.83 29.5 1371.83H37.4917ZM37 1362.67C35.4426 1362.66 33.9144 1363.09 32.5887 1363.91C31.2631 1364.72 30.1931 1365.9 29.5 1367.29C29.4006 1367.49 29.3842 1367.72 29.4545 1367.93C29.5249 1368.14 29.6761 1368.32 29.875 1368.42C30.0739 1368.52 30.3042 1368.53 30.5152 1368.46C30.7262 1368.39 30.9006 1368.24 31 1368.04C31.5268 1366.98 32.3282 1366.07 33.3213 1365.42C34.3144 1364.77 35.4632 1364.4 36.649 1364.34C37.8348 1364.28 39.0145 1364.54 40.0663 1365.09C41.1181 1365.64 42.0037 1366.47 42.6318 1367.47C43.2598 1368.48 43.6074 1369.64 43.6387 1370.82C43.67 1372.01 43.3837 1373.18 42.8096 1374.22C42.2355 1375.26 41.3943 1376.13 40.373 1376.74C39.3516 1377.34 38.1872 1377.66 37 1377.67C35.7574 1377.67 34.5385 1377.33 33.4831 1376.67C32.4277 1376.02 31.5786 1375.07 31.0334 1373.96C30.9339 1373.76 30.7595 1373.61 30.5485 1373.54C30.3375 1373.47 30.1073 1373.48 29.9084 1373.58C29.7094 1373.68 29.5582 1373.86 29.4879 1374.07C29.4175 1374.28 29.4339 1374.51 29.5334 1374.71C30.194 1376.04 31.198 1377.17 32.4412 1377.98C33.6845 1378.79 35.1221 1379.25 36.6051 1379.32C38.0882 1379.39 39.5629 1379.07 40.8768 1378.37C42.1907 1377.68 43.296 1376.65 44.0784 1375.39C44.8608 1374.13 45.2919 1372.68 45.3271 1371.2C45.3623 1369.71 45.0003 1368.25 44.2786 1366.95C43.5568 1365.65 42.5016 1364.57 41.2219 1363.82C39.9423 1363.06 38.4847 1362.67 37 1362.67Z" fill="#878787"/>
<rect x="63" y="1367" width="57.6" height="9" rx="4.5" fill="#424242"/>
<rect x="231" y="410" width="20" height="20" rx="10" fill="#969696"/>
<rect x="237" y="417" width="8" height="7" rx="3.5" fill="white"/>
<rect x="26" y="410" width="24" height="25" fill="#E8E8E8"/>
<rect x="63" y="416" width="57.6" height="9" rx="4.5" fill="#3B3B3B"/>
<rect x="26" y="47" width="184" height="9" rx="4.5" fill="black"/>
<rect x="26" y="67" width="125" height="9" rx="4.5" fill="black"/>
</g>
<rect x="0.5" y="0.5" width="277" height="1442" rx="3.5" stroke="#DBDBDB"/>
</g>
<rect x="15" y="96" width="222" height="56" rx="16" fill="#F5F5F5"/>
<circle cx="42" cy="123" r="7" stroke="#2B2B2B" stroke-width="1.5"/>
<path d="M47.5303 127.47L47 126.939L45.9393 128L46.4697 128.53L47.5303 127.47ZM49.9697 132.03C50.2626 132.323 50.7374 132.323 51.0303 132.03C51.3232 131.737 51.3232 131.263 51.0303 130.97L49.9697 132.03ZM46.4697 128.53L49.9697 132.03L51.0303 130.97L47.5303 127.47L46.4697 128.53Z" fill="#2B2B2B"/>
<rect x="71" y="119" width="86.4" height="9" rx="4.5" fill="#2B2B2B"/>
<g filter="url(#filter1_d_10_4502)">
<g clip-path="url(#clip2_10_4502)">
<rect x="308" y="211" width="347" height="190" rx="1" fill="white"/>
<g clip-path="url(#clip3_10_4502)">
<circle cx="348" cy="251" r="25" fill="#F2F2F2"/>
<rect x="336" y="238" width="25" height="25" fill="#E8E8E8"/>
<rect x="323" y="346" width="313" height="36" fill="#EDEDED"/>
<rect x="388" y="237" width="214" height="9" rx="4.5" fill="#3B3B3B"/>
<rect x="388" y="255" width="324" height="6" rx="3" fill="#3B3B3B"/>
<rect x="323" y="296" width="305" height="7" rx="3.5" fill="#808080"/>
<rect x="323" y="314" width="98" height="7" rx="3.5" fill="#808080"/>
<rect x="425" y="359" width="108" height="7" rx="3.5" fill="#808080"/>
</g>
</g>
<rect x="308.5" y="211.5" width="346" height="189" rx="0.5" stroke="#DBDBDB"/>
</g>
<g filter="url(#filter2_d_10_4502)">
<g clip-path="url(#clip4_10_4502)">
<rect x="308" y="426" width="347" height="190" rx="1" fill="white"/>
<circle cx="348" cy="466" r="25" fill="#F2F2F2"/>
<rect x="336" y="453" width="25" height="25" fill="#E8E8E8"/>
<rect x="323" y="561" width="313" height="36" fill="#EDEDED"/>
<rect x="388" y="452" width="125" height="9" rx="4.5" fill="#3B3B3B"/>
<rect x="388" y="470" width="126" height="6" rx="3" fill="#3B3B3B"/>
<rect x="323" y="511" width="305" height="7" rx="3.5" fill="#808080"/>
<rect x="323" y="529" width="302" height="7" rx="3.5" fill="#808080"/>
<rect x="425" y="574" width="108" height="7" rx="3.5" fill="#808080"/>
</g>
<rect x="308.5" y="426.5" width="346" height="189" rx="0.5" stroke="#DBDBDB"/>
</g>
<g filter="url(#filter3_d_10_4502)">
<g clip-path="url(#clip5_10_4502)">
<rect x="685" y="211" width="347" height="190" rx="1" fill="white"/>
<circle cx="725" cy="251" r="25" fill="#F2F2F2"/>
<rect x="700" y="346" width="313" height="36" fill="#EDEDED"/>
<rect x="710" y="236" width="29" height="29" fill="#E8E8E8"/>
<rect x="765" y="237" width="211.2" height="9" rx="4.5" fill="#3B3B3B"/>
<rect x="765" y="255" width="144" height="6" rx="3" fill="#3B3B3B"/>
<rect x="700" y="296" width="305" height="7" rx="3.5" fill="#808080"/>
<rect x="700" y="314" width="168" height="7" rx="3.5" fill="#808080"/>
<rect x="802" y="359" width="108" height="7" rx="3.5" fill="#808080"/>
</g>
<rect x="685.5" y="211.5" width="346" height="189" rx="0.5" stroke="#DBDBDB"/>
</g>
<g filter="url(#filter4_d_10_4502)">
<g clip-path="url(#clip6_10_4502)">
<rect x="685" y="426" width="347" height="190" rx="1" fill="white"/>
<circle cx="725" cy="466" r="25" fill="#F2F2F2"/>
<rect x="713" y="453" width="25" height="25" fill="#E8E8E8"/>
<rect x="700" y="561" width="313" height="36" fill="#EDEDED"/>
<rect x="765" y="452" width="244" height="9" rx="4.5" fill="#3B3B3B"/>
<rect x="765" y="470" width="126" height="6" rx="3" fill="#3B3B3B"/>
<rect x="700" y="511" width="305" height="7" rx="3.5" fill="#808080"/>
<rect x="700" y="529" width="284" height="7" rx="3.5" fill="#808080"/>
<rect x="802" y="574" width="108" height="7" rx="3.5" fill="#808080"/>
</g>
<rect x="685.5" y="426.5" width="346" height="189" rx="0.5" stroke="#DBDBDB"/>
</g>
<g filter="url(#filter5_d_10_4502)">
<g clip-path="url(#clip7_10_4502)">
<rect x="1062" y="211" width="347" height="190" rx="1" fill="white"/>
<g clip-path="url(#clip8_10_4502)">
<circle cx="1102" cy="251" r="25" fill="#F2F2F2"/>
<rect x="1077" y="346" width="313" height="36" fill="#EDEDED"/>
<rect x="1080" y="230" width="42" height="42" fill="#E8E8E8"/>
<rect x="1142" y="237" width="133" height="9" rx="4.5" fill="#3B3B3B"/>
<rect x="1142" y="255" width="324" height="6" rx="3" fill="#3B3B3B"/>
<rect x="1077" y="296" width="305" height="7" rx="3.5" fill="#808080"/>
<rect x="1077" y="314" width="124" height="7" rx="3.5" fill="#808080"/>
<rect x="1179" y="359" width="108" height="7" rx="3.5" fill="#808080"/>
</g>
</g>
<rect x="1062.5" y="211.5" width="346" height="189" rx="0.5" stroke="#DBDBDB"/>
</g>
<g filter="url(#filter6_d_10_4502)">
<g clip-path="url(#clip9_10_4502)">
<rect x="1062" y="426" width="347" height="190" rx="1" fill="white"/>
<circle cx="1102" cy="466" r="25" fill="#F2F2F2"/>
<rect x="1090" y="453" width="25" height="25" fill="#E8E8E8"/>
<rect x="1077" y="561" width="313" height="36" fill="#EDEDED"/>
<rect x="1142" y="452" width="80" height="9" rx="4.5" fill="#3B3B3B"/>
<rect x="1142" y="470" width="126" height="6" rx="3" fill="#3B3B3B"/>
<rect x="1077" y="511" width="305" height="7" rx="3.5" fill="#808080"/>
<rect x="1077" y="529" width="254" height="7" rx="3.5" fill="#808080"/>
<rect x="1179" y="574" width="108" height="7" rx="3.5" fill="#808080"/>
</g>
<rect x="1062.5" y="426.5" width="346" height="189" rx="0.5" stroke="#DBDBDB"/>
</g>
<g filter="url(#filter7_d_10_4502)">
<g clip-path="url(#clip10_10_4502)">
<rect x="308" y="641" width="347" height="190" rx="1" fill="white"/>
<circle cx="348" cy="681" r="25" fill="#F2F2F2"/>
<rect x="336" y="668" width="25" height="25" fill="#E8E8E8"/>
<rect x="323" y="776" width="313" height="36" fill="#EDEDED"/>
<rect x="388" y="667" width="192" height="9" rx="4.5" fill="#3B3B3B"/>
<rect x="388" y="685" width="126" height="6" rx="3" fill="#3B3B3B"/>
<rect x="323" y="726" width="305" height="7" rx="3.5" fill="#808080"/>
<rect x="323" y="744" width="278" height="7" rx="3.5" fill="#808080"/>
<rect x="425" y="789" width="108" height="7" rx="3.5" fill="#808080"/>
</g>
<rect x="308.5" y="641.5" width="346" height="189" rx="0.5" stroke="#DBDBDB"/>
</g>
<g filter="url(#filter8_d_10_4502)">
<g clip-path="url(#clip11_10_4502)">
<rect x="308" y="856" width="347" height="190" rx="1" fill="white"/>
<circle cx="348" cy="896" r="25" fill="#F2F2F2"/>
<rect x="336" y="883" width="25" height="25" fill="#E8E8E8"/>
<rect x="323" y="991" width="313" height="36" fill="#EDEDED"/>
<rect x="388" y="882" width="243" height="9" rx="4.5" fill="#3B3B3B"/>
<rect x="388" y="900" width="126" height="6" rx="3" fill="#3B3B3B"/>
<rect x="323" y="941" width="305" height="7" rx="3.5" fill="#808080"/>
<rect x="323" y="959" width="58" height="7" rx="3.5" fill="#808080"/>
<rect x="425" y="1004" width="108" height="7" rx="3.5" fill="#808080"/>
</g>
<rect x="308.5" y="856.5" width="346" height="189" rx="0.5" stroke="#DBDBDB"/>
</g>
<g filter="url(#filter9_d_10_4502)">
<g clip-path="url(#clip12_10_4502)">
<rect x="685" y="641" width="347" height="190" rx="1" fill="white"/>
<circle cx="725" cy="681" r="25" fill="#F2F2F2"/>
<rect x="713" y="668" width="25" height="25" fill="#E8E8E8"/>
<rect x="700" y="776" width="313" height="36" fill="#EDEDED"/>
<rect x="765" y="667" width="102" height="9" rx="4.5" fill="#3B3B3B"/>
<rect x="765" y="685" width="126" height="6" rx="3" fill="#3B3B3B"/>
<rect x="700" y="726" width="305" height="7" rx="3.5" fill="#808080"/>
<rect x="700" y="744" width="134" height="7" rx="3.5" fill="#808080"/>
<rect x="802" y="789" width="108" height="7" rx="3.5" fill="#808080"/>
</g>
<rect x="685.5" y="641.5" width="346" height="189" rx="0.5" stroke="#DBDBDB"/>
</g>
<g filter="url(#filter10_d_10_4502)">
<g clip-path="url(#clip13_10_4502)">
<rect x="685" y="856" width="347" height="190" rx="1" fill="white"/>
<circle cx="725" cy="896" r="25" fill="#F2F2F2"/>
<rect x="713" y="883" width="25" height="25" fill="#E8E8E8"/>
<rect x="700" y="991" width="313" height="36" fill="#EDEDED"/>
<rect x="765" y="882" width="88" height="9" rx="4.5" fill="#3B3B3B"/>
<rect x="765" y="900" width="126" height="6" rx="3" fill="#3B3B3B"/>
<rect x="700" y="941" width="305" height="7" rx="3.5" fill="#808080"/>
<rect x="700" y="959" width="287" height="7" rx="3.5" fill="#808080"/>
<rect x="802" y="1004" width="108" height="7" rx="3.5" fill="#808080"/>
</g>
<rect x="685.5" y="856.5" width="346" height="189" rx="0.5" stroke="#DBDBDB"/>
</g>
<g filter="url(#filter11_d_10_4502)">
<g clip-path="url(#clip14_10_4502)">
<rect x="1062" y="641" width="347" height="190" rx="1" fill="white"/>
<circle cx="1102" cy="681" r="25" fill="#F2F2F2"/>
<rect x="1090" y="668" width="25" height="25" fill="#E8E8E8"/>
<rect x="1077" y="776" width="313" height="36" fill="#EDEDED"/>
<rect x="1142" y="667" width="139" height="9" rx="4.5" fill="#3B3B3B"/>
<rect x="1142" y="685" width="126" height="6" rx="3" fill="#3B3B3B"/>
<rect x="1077" y="726" width="305" height="7" rx="3.5" fill="#808080"/>
<rect x="1077" y="744" width="97" height="7" rx="3.5" fill="#808080"/>
<rect x="1179" y="789" width="108" height="7" rx="3.5" fill="#808080"/>
</g>
<rect x="1062.5" y="641.5" width="346" height="189" rx="0.5" stroke="#DBDBDB"/>
</g>
<rect x="308.5" y="159.5" width="192" height="31" rx="3.5" fill="white"/>
<rect x="308.5" y="159.5" width="192" height="31" rx="3.5" stroke="#737373"/>
<path fill-rule="evenodd" clip-rule="evenodd" d="M475.554 171.308H486.446C486.754 171.308 486.969 171.708 486.723 171.985L481.4 178.508C481.215 178.754 480.815 178.754 480.631 178.508L475.246 171.985C475.031 171.708 475.215 171.308 475.554 171.308Z" fill="#737373"/>
<rect x="320" y="170" width="23.4" height="7" rx="3.5" fill="#737373"/>
<rect x="308" y="144" width="49" height="7" rx="3.5" fill="#454545"/>
<rect x="308" y="58" width="89" height="13" rx="6.5" fill="#3B3B3B"/>
<rect x="308" y="109" width="216" height="7" rx="3.5" fill="#3B3B3B"/>
</g>
<defs>
<filter id="filter0_d_10_4502" x="-2" y="0" width="282" height="1447" filterUnits="userSpaceOnUse" color-interpolation-filters="sRGB">
<feFlood flood-opacity="0" result="BackgroundImageFix"/>
<feColorMatrix in="SourceAlpha" type="matrix" values="0 0 0 0 0 0 0 0 0 0 0 0 0 0 0 0 0 0 127 0" result="hardAlpha"/>
<feOffset dy="2"/>
<feGaussianBlur stdDeviation="1"/>
<feColorMatrix type="matrix" values="0 0 0 0 0 0 0 0 0 0 0 0 0 0 0 0 0 0 0.1 0"/>
<feBlend mode="normal" in2="BackgroundImageFix" result="effect1_dropShadow_10_4502"/>
<feBlend mode="normal" in="SourceGraphic" in2="effect1_dropShadow_10_4502" result="shape"/>
</filter>
<filter id="filter1_d_10_4502" x="306" y="211" width="351" height="194" filterUnits="userSpaceOnUse" color-interpolation-filters="sRGB">
<feFlood flood-opacity="0" result="BackgroundImageFix"/>
<feColorMatrix in="SourceAlpha" type="matrix" values="0 0 0 0 0 0 0 0 0 0 0 0 0 0 0 0 0 0 127 0" result="hardAlpha"/>
<feOffset dy="2"/>
<feGaussianBlur stdDeviation="1"/>
<feColorMatrix type="matrix" values="0 0 0 0 0 0 0 0 0 0 0 0 0 0 0 0 0 0 0.1 0"/>
<feBlend mode="normal" in2="BackgroundImageFix" result="effect1_dropShadow_10_4502"/>
<feBlend mode="normal" in="SourceGraphic" in2="effect1_dropShadow_10_4502" result="shape"/>
</filter>
<filter id="filter2_d_10_4502" x="306" y="426" width="351" height="194" filterUnits="userSpaceOnUse" color-interpolation-filters="sRGB">
<feFlood flood-opacity="0" result="BackgroundImageFix"/>
<feColorMatrix in="SourceAlpha" type="matrix" values="0 0 0 0 0 0 0 0 0 0 0 0 0 0 0 0 0 0 127 0" result="hardAlpha"/>
<feOffset dy="2"/>
<feGaussianBlur stdDeviation="1"/>
<feColorMatrix type="matrix" values="0 0 0 0 0 0 0 0 0 0 0 0 0 0 0 0 0 0 0.1 0"/>
<feBlend mode="normal" in2="BackgroundImageFix" result="effect1_dropShadow_10_4502"/>
<feBlend mode="normal" in="SourceGraphic" in2="effect1_dropShadow_10_4502" result="shape"/>
</filter>
<filter id="filter3_d_10_4502" x="683" y="211" width="351" height="194" filterUnits="userSpaceOnUse" color-interpolation-filters="sRGB">
<feFlood flood-opacity="0" result="BackgroundImageFix"/>
<feColorMatrix in="SourceAlpha" type="matrix" values="0 0 0 0 0 0 0 0 0 0 0 0 0 0 0 0 0 0 127 0" result="hardAlpha"/>
<feOffset dy="2"/>
<feGaussianBlur stdDeviation="1"/>
<feColorMatrix type="matrix" values="0 0 0 0 0 0 0 0 0 0 0 0 0 0 0 0 0 0 0.1 0"/>
<feBlend mode="normal" in2="BackgroundImageFix" result="effect1_dropShadow_10_4502"/>
<feBlend mode="normal" in="SourceGraphic" in2="effect1_dropShadow_10_4502" result="shape"/>
</filter>
<filter id="filter4_d_10_4502" x="683" y="426" width="351" height="194" filterUnits="userSpaceOnUse" color-interpolation-filters="sRGB">
<feFlood flood-opacity="0" result="BackgroundImageFix"/>
<feColorMatrix in="SourceAlpha" type="matrix" values="0 0 0 0 0 0 0 0 0 0 0 0 0 0 0 0 0 0 127 0" result="hardAlpha"/>
<feOffset dy="2"/>
<feGaussianBlur stdDeviation="1"/>
<feColorMatrix type="matrix" values="0 0 0 0 0 0 0 0 0 0 0 0 0 0 0 0 0 0 0.1 0"/>
<feBlend mode="normal" in2="BackgroundImageFix" result="effect1_dropShadow_10_4502"/>
<feBlend mode="normal" in="SourceGraphic" in2="effect1_dropShadow_10_4502" result="shape"/>
</filter>
<filter id="filter5_d_10_4502" x="1060" y="211" width="351" height="194" filterUnits="userSpaceOnUse" color-interpolation-filters="sRGB">
<feFlood flood-opacity="0" result="BackgroundImageFix"/>
<feColorMatrix in="SourceAlpha" type="matrix" values="0 0 0 0 0 0 0 0 0 0 0 0 0 0 0 0 0 0 127 0" result="hardAlpha"/>
<feOffset dy="2"/>
<feGaussianBlur stdDeviation="1"/>
<feColorMatrix type="matrix" values="0 0 0 0 0 0 0 0 0 0 0 0 0 0 0 0 0 0 0.1 0"/>
<feBlend mode="normal" in2="BackgroundImageFix" result="effect1_dropShadow_10_4502"/>
<feBlend mode="normal" in="SourceGraphic" in2="effect1_dropShadow_10_4502" result="shape"/>
</filter>
<filter id="filter6_d_10_4502" x="1060" y="426" width="351" height="194" filterUnits="userSpaceOnUse" color-interpolation-filters="sRGB">
<feFlood flood-opacity="0" result="BackgroundImageFix"/>
<feColorMatrix in="SourceAlpha" type="matrix" values="0 0 0 0 0 0 0 0 0 0 0 0 0 0 0 0 0 0 127 0" result="hardAlpha"/>
<feOffset dy="2"/>
<feGaussianBlur stdDeviation="1"/>
<feColorMatrix type="matrix" values="0 0 0 0 0 0 0 0 0 0 0 0 0 0 0 0 0 0 0.1 0"/>
<feBlend mode="normal" in2="BackgroundImageFix" result="effect1_dropShadow_10_4502"/>
<feBlend mode="normal" in="SourceGraphic" in2="effect1_dropShadow_10_4502" result="shape"/>
</filter>
<filter id="filter7_d_10_4502" x="306" y="641" width="351" height="194" filterUnits="userSpaceOnUse" color-interpolation-filters="sRGB">
<feFlood flood-opacity="0" result="BackgroundImageFix"/>
<feColorMatrix in="SourceAlpha" type="matrix" values="0 0 0 0 0 0 0 0 0 0 0 0 0 0 0 0 0 0 127 0" result="hardAlpha"/>
<feOffset dy="2"/>
<feGaussianBlur stdDeviation="1"/>
<feColorMatrix type="matrix" values="0 0 0 0 0 0 0 0 0 0 0 0 0 0 0 0 0 0 0.1 0"/>
<feBlend mode="normal" in2="BackgroundImageFix" result="effect1_dropShadow_10_4502"/>
<feBlend mode="normal" in="SourceGraphic" in2="effect1_dropShadow_10_4502" result="shape"/>
</filter>
<filter id="filter8_d_10_4502" x="306" y="856" width="351" height="194" filterUnits="userSpaceOnUse" color-interpolation-filters="sRGB">
<feFlood flood-opacity="0" result="BackgroundImageFix"/>
<feColorMatrix in="SourceAlpha" type="matrix" values="0 0 0 0 0 0 0 0 0 0 0 0 0 0 0 0 0 0 127 0" result="hardAlpha"/>
<feOffset dy="2"/>
<feGaussianBlur stdDeviation="1"/>
<feColorMatrix type="matrix" values="0 0 0 0 0 0 0 0 0 0 0 0 0 0 0 0 0 0 0.1 0"/>
<feBlend mode="normal" in2="BackgroundImageFix" result="effect1_dropShadow_10_4502"/>
<feBlend mode="normal" in="SourceGraphic" in2="effect1_dropShadow_10_4502" result="shape"/>
</filter>
<filter id="filter9_d_10_4502" x="683" y="641" width="351" height="194" filterUnits="userSpaceOnUse" color-interpolation-filters="sRGB">
<feFlood flood-opacity="0" result="BackgroundImageFix"/>
<feColorMatrix in="SourceAlpha" type="matrix" values="0 0 0 0 0 0 0 0 0 0 0 0 0 0 0 0 0 0 127 0" result="hardAlpha"/>
<feOffset dy="2"/>
<feGaussianBlur stdDeviation="1"/>
<feColorMatrix type="matrix" values="0 0 0 0 0 0 0 0 0 0 0 0 0 0 0 0 0 0 0.1 0"/>
<feBlend mode="normal" in2="BackgroundImageFix" result="effect1_dropShadow_10_4502"/>
<feBlend mode="normal" in="SourceGraphic" in2="effect1_dropShadow_10_4502" result="shape"/>
</filter>
<filter id="filter10_d_10_4502" x="683" y="856" width="351" height="194" filterUnits="userSpaceOnUse" color-interpolation-filters="sRGB">
<feFlood flood-opacity="0" result="BackgroundImageFix"/>
<feColorMatrix in="SourceAlpha" type="matrix" values="0 0 0 0 0 0 0 0 0 0 0 0 0 0 0 0 0 0 127 0" result="hardAlpha"/>
<feOffset dy="2"/>
<feGaussianBlur stdDeviation="1"/>
<feColorMatrix type="matrix" values="0 0 0 0 0 0 0 0 0 0 0 0 0 0 0 0 0 0 0.1 0"/>
<feBlend mode="normal" in2="BackgroundImageFix" result="effect1_dropShadow_10_4502"/>
<feBlend mode="normal" in="SourceGraphic" in2="effect1_dropShadow_10_4502" result="shape"/>
</filter>
<filter id="filter11_d_10_4502" x="1060" y="641" width="351" height="194" filterUnits="userSpaceOnUse" color-interpolation-filters="sRGB">
<feFlood flood-opacity="0" result="BackgroundImageFix"/>
<feColorMatrix in="SourceAlpha" type="matrix" values="0 0 0 0 0 0 0 0 0 0 0 0 0 0 0 0 0 0 127 0" result="hardAlpha"/>
<feOffset dy="2"/>
<feGaussianBlur stdDeviation="1"/>
<feColorMatrix type="matrix" values="0 0 0 0 0 0 0 0 0 0 0 0 0 0 0 0 0 0 0.1 0"/>
<feBlend mode="normal" in2="BackgroundImageFix" result="effect1_dropShadow_10_4502"/>
<feBlend mode="normal" in="SourceGraphic" in2="effect1_dropShadow_10_4502" result="shape"/>
</filter>
<clipPath id="clip0_10_4502">
<rect width="1440" height="1443" fill="white"/>
</clipPath>
<clipPath id="clip1_10_4502">
<rect width="278" height="1443" rx="4" fill="white"/>
</clipPath>
<clipPath id="clip2_10_4502">
<rect x="308" y="211" width="347" height="190" rx="1" fill="white"/>
</clipPath>
<clipPath id="clip3_10_4502">
<rect width="347" height="190" fill="white" transform="translate(308 211)"/>
</clipPath>
<clipPath id="clip4_10_4502">
<rect x="308" y="426" width="347" height="190" rx="1" fill="white"/>
</clipPath>
<clipPath id="clip5_10_4502">
<rect x="685" y="211" width="347" height="190" rx="1" fill="white"/>
</clipPath>
<clipPath id="clip6_10_4502">
<rect x="685" y="426" width="347" height="190" rx="1" fill="white"/>
</clipPath>
<clipPath id="clip7_10_4502">
<rect x="1062" y="211" width="347" height="190" rx="1" fill="white"/>
</clipPath>
<clipPath id="clip8_10_4502">
<rect width="347" height="190" fill="white" transform="translate(1062 211)"/>
</clipPath>
<clipPath id="clip9_10_4502">
<rect x="1062" y="426" width="347" height="190" rx="1" fill="white"/>
</clipPath>
<clipPath id="clip10_10_4502">
<rect x="308" y="641" width="347" height="190" rx="1" fill="white"/>
</clipPath>
<clipPath id="clip11_10_4502">
<rect x="308" y="856" width="347" height="190" rx="1" fill="white"/>
</clipPath>
<clipPath id="clip12_10_4502">
<rect x="685" y="641" width="347" height="190" rx="1" fill="white"/>
</clipPath>
<clipPath id="clip13_10_4502">
<rect x="685" y="856" width="347" height="190" rx="1" fill="white"/>
</clipPath>
<clipPath id="clip14_10_4502">
<rect x="1062" y="641" width="347" height="190" rx="1" fill="white"/>
</clipPath>
</defs>
</svg>
