<svg width="670" height="258" viewBox="0 0 670 258" fill="none" xmlns="http://www.w3.org/2000/svg">
<rect width="670" height="258" fill="white"/>
<path d="M65.6477 52.4205C65.5568 51.5038 65.1667 50.7917 64.4773 50.2841C63.7879 49.7765 62.8523 49.5227 61.6705 49.5227C60.8674 49.5227 60.1894 49.6364 59.6364 49.8636C59.0833 50.0833 58.6591 50.3902 58.3636 50.7841C58.0758 51.178 57.9318 51.625 57.9318 52.125C57.9167 52.5417 58.0038 52.9053 58.1932 53.2159C58.3902 53.5265 58.6591 53.7955 59 54.0227C59.3409 54.2424 59.7348 54.4356 60.1818 54.6023C60.6288 54.7614 61.1061 54.8977 61.6136 55.0114L63.7045 55.5114C64.7197 55.7386 65.6515 56.0417 66.5 56.4205C67.3485 56.7992 68.0833 57.2652 68.7045 57.8182C69.3258 58.3712 69.8068 59.0227 70.1477 59.7727C70.4962 60.5227 70.6742 61.3826 70.6818 62.3523C70.6742 63.7765 70.3106 65.0114 69.5909 66.0568C68.8788 67.0947 67.8485 67.9015 66.5 68.4773C65.1591 69.0455 63.5417 69.3295 61.6477 69.3295C59.7689 69.3295 58.1326 69.0417 56.7386 68.4659C55.3523 67.8902 54.2689 67.0379 53.4886 65.9091C52.7159 64.7727 52.3106 63.3674 52.2727 61.6932H57.0341C57.0871 62.4735 57.3106 63.125 57.7045 63.6477C58.1061 64.1629 58.6402 64.553 59.3068 64.8182C59.9811 65.0758 60.7424 65.2045 61.5909 65.2045C62.4242 65.2045 63.1477 65.0833 63.7614 64.8409C64.3826 64.5985 64.8636 64.2614 65.2045 63.8295C65.5455 63.3977 65.7159 62.9015 65.7159 62.3409C65.7159 61.8182 65.5606 61.3788 65.25 61.0227C64.947 60.6667 64.5 60.3636 63.9091 60.1136C63.3258 59.8636 62.6098 59.6364 61.7614 59.4318L59.2273 58.7955C57.2652 58.3182 55.7159 57.572 54.5795 56.5568C53.4432 55.5417 52.8788 54.1742 52.8864 52.4545C52.8788 51.0455 53.2538 49.8144 54.0114 48.7614C54.7765 47.7083 55.8258 46.8864 57.1591 46.2955C58.4924 45.7045 60.0076 45.4091 61.7045 45.4091C63.4318 45.4091 64.9394 45.7045 66.2273 46.2955C67.5227 46.8864 68.5303 47.7083 69.25 48.7614C69.9697 49.8144 70.3409 51.0341 70.3636 52.4205H65.6477ZM74.6315 69V45.7273H83.8133C85.5784 45.7273 87.0822 46.0644 88.3247 46.7386C89.5671 47.4053 90.5141 48.3333 91.1656 49.5227C91.8247 50.7045 92.1542 52.0682 92.1542 53.6136C92.1542 55.1591 91.8209 56.5227 91.1542 57.7045C90.4875 58.8864 89.5216 59.8068 88.2565 60.4659C86.9989 61.125 85.4762 61.4545 83.6883 61.4545H77.836V57.5114H82.8928C83.8398 57.5114 84.6201 57.3485 85.2337 57.0227C85.855 56.6894 86.3171 56.2311 86.6201 55.6477C86.9307 55.0568 87.086 54.3788 87.086 53.6136C87.086 52.8409 86.9307 52.1667 86.6201 51.5909C86.3171 51.0076 85.855 50.5568 85.2337 50.2386C84.6125 49.9129 83.8247 49.75 82.8701 49.75H79.5519V69H74.6315ZM97.3141 69H92.0414L100.075 45.7273H106.416L114.439 69H109.166L103.337 51.0455H103.155L97.3141 69ZM96.9845 59.8523H109.439V63.6932H96.9845V59.8523ZM137.321 53.875H132.343C132.252 53.2311 132.067 52.6591 131.786 52.1591C131.506 51.6515 131.146 51.2197 130.707 50.8636C130.268 50.5076 129.76 50.2348 129.184 50.0455C128.616 49.8561 127.999 49.7614 127.332 49.7614C126.127 49.7614 125.078 50.0606 124.184 50.6591C123.29 51.25 122.597 52.1136 122.105 53.25C121.612 54.3788 121.366 55.75 121.366 57.3636C121.366 59.0227 121.612 60.4167 122.105 61.5455C122.605 62.6742 123.302 63.5265 124.196 64.1023C125.09 64.678 126.124 64.9659 127.298 64.9659C127.957 64.9659 128.567 64.8788 129.127 64.7045C129.696 64.5303 130.199 64.2765 130.639 63.9432C131.078 63.6023 131.442 63.1894 131.73 62.7045C132.025 62.2197 132.23 61.6667 132.343 61.0455L137.321 61.0682C137.192 62.1364 136.87 63.1667 136.355 64.1591C135.847 65.1439 135.161 66.0265 134.298 66.8068C133.442 67.5795 132.419 68.1932 131.23 68.6477C130.048 69.0947 128.711 69.3182 127.218 69.3182C125.143 69.3182 123.286 68.8485 121.65 67.9091C120.021 66.9697 118.733 65.6098 117.786 63.8295C116.847 62.0492 116.377 59.8939 116.377 57.3636C116.377 54.8258 116.855 52.6667 117.809 50.8864C118.764 49.1061 120.059 47.75 121.696 46.8182C123.332 45.8788 125.173 45.4091 127.218 45.4091C128.567 45.4091 129.817 45.5985 130.968 45.9773C132.127 46.3561 133.154 46.9091 134.048 47.6364C134.942 48.3561 135.669 49.2386 136.23 50.2841C136.798 51.3295 137.161 52.5265 137.321 53.875ZM146.409 45.7273V69H141.489V45.7273H146.409ZM170.564 45.7273V69H166.314L156.189 54.3523H156.018V69H151.098V45.7273H155.416L165.461 60.3636H165.666V45.7273H170.564ZM190.701 53.25C190.542 52.697 190.318 52.2083 190.03 51.7841C189.742 51.3523 189.39 50.9886 188.974 50.6932C188.564 50.3902 188.095 50.1591 187.564 50C187.042 49.8409 186.462 49.7614 185.826 49.7614C184.636 49.7614 183.591 50.0568 182.689 50.6477C181.795 51.2386 181.099 52.0985 180.599 53.2273C180.099 54.3485 179.849 55.7197 179.849 57.3409C179.849 58.9621 180.095 60.3409 180.587 61.4773C181.08 62.6136 181.777 63.4811 182.678 64.0795C183.58 64.6705 184.644 64.9659 185.871 64.9659C186.985 64.9659 187.936 64.7689 188.724 64.375C189.519 63.9735 190.125 63.4091 190.542 62.6818C190.966 61.9545 191.178 61.0947 191.178 60.1023L192.178 60.25H186.178V56.5455H195.917V59.4773C195.917 61.5227 195.485 63.2803 194.621 64.75C193.758 66.2121 192.568 67.3409 191.053 68.1364C189.538 68.9242 187.803 69.3182 185.849 69.3182C183.667 69.3182 181.75 68.8371 180.099 67.875C178.447 66.9053 177.159 65.5303 176.235 63.75C175.318 61.9621 174.86 59.8409 174.86 57.3864C174.86 55.5 175.133 53.8182 175.678 52.3409C176.231 50.8561 177.004 49.5985 177.996 48.5682C178.989 47.5379 180.144 46.7538 181.462 46.2159C182.78 45.678 184.208 45.4091 185.746 45.4091C187.064 45.4091 188.292 45.6023 189.428 45.9886C190.564 46.3674 191.572 46.9053 192.451 47.6023C193.337 48.2992 194.061 49.1288 194.621 50.0909C195.182 51.0455 195.542 52.0985 195.701 53.25H190.701Z" fill="black"/>
<rect x="59.5" y="120.5" width="5" height="51" rx="2.5" fill="#BFD9FA" stroke="black"/>
<path d="M51.6989 187.21V186.341L55.5341 180.273H56.1648V181.619H55.7386L52.8409 186.205V186.273H58.0057V187.21H51.6989ZM55.8068 189V186.946V186.541V180.273H56.8125V189H55.8068ZM59.6197 191.455V182.455H60.5913V183.494H60.7106C60.7844 183.381 60.8867 183.236 61.0174 183.06C61.1509 182.881 61.3413 182.722 61.5884 182.582C61.8384 182.44 62.1765 182.369 62.6026 182.369C63.1538 182.369 63.6396 182.507 64.06 182.783C64.4805 183.058 64.8086 183.449 65.0444 183.955C65.2802 184.46 65.3981 185.057 65.3981 185.744C65.3981 186.438 65.2802 187.038 65.0444 187.547C64.8086 188.053 64.4819 188.445 64.0643 188.723C63.6467 188.999 63.1651 189.136 62.6197 189.136C62.1992 189.136 61.8626 189.067 61.6097 188.928C61.3569 188.786 61.1623 188.625 61.0259 188.446C60.8896 188.264 60.7844 188.114 60.7106 187.994H60.6254V191.455H59.6197ZM60.6083 185.727C60.6083 186.222 60.6808 186.658 60.8256 187.036C60.9705 187.411 61.1822 187.705 61.4606 187.918C61.739 188.128 62.0799 188.233 62.4833 188.233C62.9038 188.233 63.2546 188.122 63.5359 187.901C63.82 187.676 64.033 187.375 64.1751 186.997C64.32 186.616 64.3924 186.193 64.3924 185.727C64.3924 185.267 64.3214 184.852 64.1793 184.483C64.0401 184.111 63.8285 183.817 63.5444 183.601C63.2631 183.382 62.9094 183.273 62.4833 183.273C62.0742 183.273 61.7305 183.376 61.4521 183.584C61.1737 183.788 60.9634 184.075 60.8214 184.445C60.6793 184.811 60.6083 185.239 60.6083 185.727ZM67.4126 182.455L68.9808 185.131L70.549 182.455H71.7081L69.5945 185.727L71.7081 189H70.549L68.9808 186.46L67.4126 189H66.2536L68.3331 185.727L66.2536 182.455H67.4126Z" fill="black"/>
<rect x="87.5" y="120.5" width="9" height="51" rx="4.5" fill="#BFD9FA" stroke="black"/>
<path d="M85.7399 189.119C85.1547 189.119 84.6376 189.016 84.1887 188.808C83.7427 188.598 83.3947 188.31 83.1447 187.943C82.8947 187.574 82.7711 187.153 82.774 186.682C82.7711 186.312 82.8436 185.972 82.9913 185.659C83.139 185.344 83.3407 185.081 83.5964 184.871C83.8549 184.658 84.1433 184.523 84.4615 184.466V184.415C84.0439 184.307 83.7115 184.072 83.4643 183.712C83.2172 183.348 83.095 182.935 83.0978 182.472C83.095 182.028 83.2072 181.632 83.4345 181.283C83.6618 180.933 83.9743 180.658 84.372 180.456C84.7725 180.254 85.2285 180.153 85.7399 180.153C86.2456 180.153 86.6973 180.254 87.095 180.456C87.4927 180.658 87.8052 180.933 88.0325 181.283C88.2626 181.632 88.3791 182.028 88.3819 182.472C88.3791 182.935 88.2527 183.348 88.0027 183.712C87.7555 184.072 87.4274 184.307 87.0183 184.415V184.466C87.3336 184.523 87.6177 184.658 87.8706 184.871C88.1234 185.081 88.3251 185.344 88.4757 185.659C88.6262 185.972 88.7029 186.312 88.7058 186.682C88.7029 187.153 88.5751 187.574 88.3223 187.943C88.0723 188.31 87.7243 188.598 87.2782 188.808C86.835 189.016 86.3223 189.119 85.7399 189.119ZM85.7399 188.182C86.1348 188.182 86.4757 188.118 86.7626 187.99C87.0495 187.862 87.2711 187.682 87.4274 187.449C87.5836 187.216 87.6632 186.943 87.666 186.631C87.6632 186.301 87.5779 186.01 87.4103 185.757C87.2427 185.504 87.014 185.305 86.7243 185.161C86.4373 185.016 86.1092 184.943 85.7399 184.943C85.3677 184.943 85.0353 185.016 84.7427 185.161C84.4529 185.305 84.2243 185.504 84.0566 185.757C83.8919 186.01 83.8109 186.301 83.8137 186.631C83.8109 186.943 83.8862 187.216 84.0396 187.449C84.1958 187.682 84.4189 187.862 84.7086 187.99C84.9984 188.118 85.3422 188.182 85.7399 188.182ZM85.7399 184.04C86.0524 184.04 86.3294 183.977 86.5708 183.852C86.8152 183.727 87.0069 183.553 87.1461 183.328C87.2853 183.104 87.3564 182.841 87.3592 182.54C87.3564 182.244 87.2868 181.987 87.1504 181.768C87.014 181.547 86.8251 181.376 86.5836 181.257C86.3422 181.135 86.0609 181.074 85.7399 181.074C85.4132 181.074 85.1277 181.135 84.8833 181.257C84.639 181.376 84.4501 181.547 84.3166 181.768C84.1831 181.987 84.1177 182.244 84.1206 182.54C84.1177 182.841 84.1845 183.104 84.3208 183.328C84.46 183.553 84.6518 183.727 84.8961 183.852C85.1404 183.977 85.4217 184.04 85.7399 184.04ZM90.356 191.455V182.455H91.3276V183.494H91.4469C91.5208 183.381 91.623 183.236 91.7537 183.06C91.8873 182.881 92.0776 182.722 92.3248 182.582C92.5748 182.44 92.9128 182.369 93.339 182.369C93.8901 182.369 94.3759 182.507 94.7963 182.783C95.2168 183.058 95.5449 183.449 95.7807 183.955C96.0165 184.46 96.1344 185.057 96.1344 185.744C96.1344 186.438 96.0165 187.038 95.7807 187.547C95.5449 188.053 95.2182 188.445 94.8006 188.723C94.383 188.999 93.9015 189.136 93.356 189.136C92.9355 189.136 92.5989 189.067 92.3461 188.928C92.0932 188.786 91.8986 188.625 91.7623 188.446C91.6259 188.264 91.5208 188.114 91.4469 187.994H91.3617V191.455H90.356ZM91.3446 185.727C91.3446 186.222 91.4171 186.658 91.562 187.036C91.7069 187.411 91.9185 187.705 92.1969 187.918C92.4753 188.128 92.8162 188.233 93.2196 188.233C93.6401 188.233 93.9909 188.122 94.2722 187.901C94.5563 187.676 94.7694 187.375 94.9114 186.997C95.0563 186.616 95.1287 186.193 95.1287 185.727C95.1287 185.267 95.0577 184.852 94.9157 184.483C94.7765 184.111 94.5648 183.817 94.2807 183.601C93.9995 183.382 93.6458 183.273 93.2196 183.273C92.8105 183.273 92.4668 183.376 92.1884 183.584C91.91 183.788 91.6998 184.075 91.5577 184.445C91.4157 184.811 91.3446 185.239 91.3446 185.727ZM98.149 182.455L99.7172 185.131L101.285 182.455H102.444L100.331 185.727L102.444 189H101.285L99.7172 186.46L98.149 189H96.9899L99.0694 185.727L96.9899 182.455H98.149Z" fill="black"/>
<rect x="119.5" y="120.5" width="13" height="51" rx="4.5" fill="#BFD9FA" stroke="black"/>
<path d="M117.288 180.273V189H116.231V181.381H116.18L114.049 182.795V181.722L116.231 180.273H117.288ZM119.798 189V188.233L122.679 185.08C123.017 184.71 123.295 184.389 123.514 184.116C123.733 183.841 123.895 183.582 124 183.341C124.108 183.097 124.162 182.841 124.162 182.574C124.162 182.267 124.088 182.001 123.94 181.777C123.795 181.553 123.596 181.379 123.343 181.257C123.091 181.135 122.806 181.074 122.491 181.074C122.156 181.074 121.863 181.143 121.613 181.283C121.366 181.419 121.174 181.611 121.038 181.858C120.904 182.105 120.838 182.395 120.838 182.727H119.832C119.832 182.216 119.95 181.767 120.186 181.381C120.422 180.994 120.743 180.693 121.149 180.477C121.558 180.261 122.017 180.153 122.525 180.153C123.037 180.153 123.49 180.261 123.885 180.477C124.279 180.693 124.589 180.984 124.814 181.351C125.038 181.717 125.15 182.125 125.15 182.574C125.15 182.895 125.092 183.209 124.975 183.516C124.862 183.82 124.663 184.159 124.379 184.534C124.098 184.906 123.707 185.361 123.207 185.898L121.247 187.994V188.062H125.304V189H119.798ZM127.081 191.455V182.455H128.052V183.494H128.172C128.245 183.381 128.348 183.236 128.478 183.06C128.612 182.881 128.802 182.722 129.049 182.582C129.299 182.44 129.637 182.369 130.064 182.369C130.615 182.369 131.1 182.507 131.521 182.783C131.941 183.058 132.27 183.449 132.505 183.955C132.741 184.46 132.859 185.057 132.859 185.744C132.859 186.438 132.741 187.038 132.505 187.547C132.27 188.053 131.943 188.445 131.525 188.723C131.108 188.999 130.626 189.136 130.081 189.136C129.66 189.136 129.324 189.067 129.071 188.928C128.818 188.786 128.623 188.625 128.487 188.446C128.35 188.264 128.245 188.114 128.172 187.994H128.086V191.455H127.081ZM128.069 185.727C128.069 186.222 128.142 186.658 128.287 187.036C128.431 187.411 128.643 187.705 128.922 187.918C129.2 188.128 129.541 188.233 129.944 188.233C130.365 188.233 130.716 188.122 130.997 187.901C131.281 187.676 131.494 187.375 131.636 186.997C131.781 186.616 131.853 186.193 131.853 185.727C131.853 185.267 131.782 184.852 131.64 184.483C131.501 184.111 131.289 183.817 131.005 183.601C130.724 183.382 130.37 183.273 129.944 183.273C129.535 183.273 129.191 183.376 128.913 183.584C128.635 183.788 128.424 184.075 128.282 184.445C128.14 184.811 128.069 185.239 128.069 185.727ZM134.874 182.455L136.442 185.131L138.01 182.455H139.169L137.055 185.727L139.169 189H138.01L136.442 186.46L134.874 189H133.714L135.794 185.727L133.714 182.455H134.874Z" fill="black"/>
<rect x="155.5" y="120.5" width="17" height="51" rx="4.5" fill="#BFD9FA" stroke="black"/>
<path d="M155.177 180.273V189H154.12V181.381H154.069L151.938 182.795V181.722L154.12 180.273H155.177ZM160.584 189.119C160.226 189.114 159.868 189.045 159.51 188.915C159.153 188.784 158.826 188.564 158.53 188.254C158.235 187.942 157.998 187.52 157.819 186.989C157.64 186.455 157.55 185.784 157.55 184.977C157.55 184.205 157.623 183.52 157.768 182.923C157.912 182.324 158.123 181.82 158.398 181.411C158.674 180.999 159.006 180.686 159.395 180.473C159.787 180.26 160.229 180.153 160.721 180.153C161.209 180.153 161.644 180.251 162.025 180.447C162.408 180.641 162.721 180.911 162.962 181.257C163.204 181.604 163.36 182.003 163.431 182.455H162.391C162.295 182.062 162.107 181.737 161.829 181.479C161.55 181.22 161.181 181.091 160.721 181.091C160.045 181.091 159.512 181.385 159.123 181.973C158.736 182.561 158.542 183.386 158.539 184.449H158.607C158.766 184.207 158.955 184.001 159.174 183.831C159.395 183.658 159.64 183.524 159.907 183.43C160.174 183.337 160.456 183.29 160.755 183.29C161.255 183.29 161.712 183.415 162.127 183.665C162.542 183.912 162.874 184.254 163.124 184.692C163.374 185.126 163.499 185.625 163.499 186.188C163.499 186.727 163.378 187.222 163.137 187.67C162.895 188.116 162.556 188.472 162.118 188.736C161.684 188.997 161.172 189.125 160.584 189.119ZM160.584 188.182C160.942 188.182 161.263 188.092 161.547 187.913C161.834 187.734 162.06 187.494 162.225 187.193C162.393 186.892 162.476 186.557 162.476 186.188C162.476 185.827 162.395 185.499 162.233 185.203C162.074 184.905 161.854 184.668 161.573 184.491C161.295 184.315 160.976 184.227 160.618 184.227C160.349 184.227 160.097 184.281 159.864 184.389C159.631 184.494 159.427 184.639 159.251 184.824C159.077 185.009 158.941 185.22 158.841 185.459C158.742 185.695 158.692 185.943 158.692 186.205C158.692 186.551 158.773 186.875 158.935 187.176C159.1 187.477 159.324 187.72 159.608 187.905C159.895 188.089 160.221 188.182 160.584 188.182ZM165.192 191.455V182.455H166.164V183.494H166.283C166.357 183.381 166.459 183.236 166.59 183.06C166.723 182.881 166.914 182.722 167.161 182.582C167.411 182.44 167.749 182.369 168.175 182.369C168.726 182.369 169.212 182.507 169.632 182.783C170.053 183.058 170.381 183.449 170.617 183.955C170.852 184.46 170.97 185.057 170.97 185.744C170.97 186.438 170.852 187.038 170.617 187.547C170.381 188.053 170.054 188.445 169.637 188.723C169.219 188.999 168.737 189.136 168.192 189.136C167.771 189.136 167.435 189.067 167.182 188.928C166.929 188.786 166.735 188.625 166.598 188.446C166.462 188.264 166.357 188.114 166.283 187.994H166.198V191.455H165.192ZM166.181 185.727C166.181 186.222 166.253 186.658 166.398 187.036C166.543 187.411 166.754 187.705 167.033 187.918C167.311 188.128 167.652 188.233 168.056 188.233C168.476 188.233 168.827 188.122 169.108 187.901C169.392 187.676 169.605 187.375 169.747 186.997C169.892 186.616 169.965 186.193 169.965 185.727C169.965 185.267 169.894 184.852 169.752 184.483C169.612 184.111 169.401 183.817 169.117 183.601C168.835 183.382 168.482 183.273 168.056 183.273C167.646 183.273 167.303 183.376 167.024 183.584C166.746 183.788 166.536 184.075 166.394 184.445C166.252 184.811 166.181 185.239 166.181 185.727ZM172.985 182.455L174.553 185.131L176.121 182.455H177.28L175.167 185.727L177.28 189H176.121L174.553 186.46L172.985 189H171.826L173.905 185.727L171.826 182.455H172.985Z" fill="black"/>
<rect x="195.5" y="120.5" width="25" height="51" rx="4.5" fill="#BFD9FA" stroke="black"/>
<path d="M195.253 189V188.233L198.134 185.08C198.472 184.71 198.75 184.389 198.969 184.116C199.188 183.841 199.35 183.582 199.455 183.341C199.563 183.097 199.617 182.841 199.617 182.574C199.617 182.267 199.543 182.001 199.395 181.777C199.25 181.553 199.051 181.379 198.798 181.257C198.546 181.135 198.262 181.074 197.946 181.074C197.611 181.074 197.318 181.143 197.068 181.283C196.821 181.419 196.629 181.611 196.493 181.858C196.36 182.105 196.293 182.395 196.293 182.727H195.287C195.287 182.216 195.405 181.767 195.641 181.381C195.877 180.994 196.198 180.693 196.604 180.477C197.013 180.261 197.472 180.153 197.98 180.153C198.492 180.153 198.945 180.261 199.34 180.477C199.735 180.693 200.044 180.984 200.269 181.351C200.493 181.717 200.605 182.125 200.605 182.574C200.605 182.895 200.547 183.209 200.431 183.516C200.317 183.82 200.118 184.159 199.834 184.534C199.553 184.906 199.162 185.361 198.662 185.898L196.702 187.994V188.062H200.759V189H195.253ZM202.127 187.21V186.341L205.962 180.273H206.593V181.619H206.166L203.269 186.205V186.273H208.433V187.21H202.127ZM206.235 189V186.946V186.541V180.273H207.24V189H206.235ZM210.047 191.455V182.455H211.019V183.494H211.138C211.212 183.381 211.314 183.236 211.445 183.06C211.579 182.881 211.769 182.722 212.016 182.582C212.266 182.44 212.604 182.369 213.03 182.369C213.581 182.369 214.067 182.507 214.488 182.783C214.908 183.058 215.236 183.449 215.472 183.955C215.708 184.46 215.826 185.057 215.826 185.744C215.826 186.438 215.708 187.038 215.472 187.547C215.236 188.053 214.91 188.445 214.492 188.723C214.074 188.999 213.593 189.136 213.047 189.136C212.627 189.136 212.29 189.067 212.037 188.928C211.785 188.786 211.59 188.625 211.454 188.446C211.317 188.264 211.212 188.114 211.138 187.994H211.053V191.455H210.047ZM211.036 185.727C211.036 186.222 211.108 186.658 211.253 187.036C211.398 187.411 211.61 187.705 211.888 187.918C212.167 188.128 212.508 188.233 212.911 188.233C213.331 188.233 213.682 188.122 213.964 187.901C214.248 187.676 214.461 187.375 214.603 186.997C214.748 186.616 214.82 186.193 214.82 185.727C214.82 185.267 214.749 184.852 214.607 184.483C214.468 184.111 214.256 183.817 213.972 183.601C213.691 183.382 213.337 183.273 212.911 183.273C212.502 183.273 212.158 183.376 211.88 183.584C211.601 183.788 211.391 184.075 211.249 184.445C211.107 184.811 211.036 185.239 211.036 185.727ZM217.84 182.455L219.409 185.131L220.977 182.455H222.136L220.022 185.727L222.136 189H220.977L219.409 186.46L217.84 189H216.681L218.761 185.727L216.681 182.455H217.84Z" fill="black"/>
<rect x="243.5" y="120.5" width="33" height="51" rx="4.5" fill="#BFD9FA" stroke="black"/>
<path d="M250.137 189.119C249.575 189.119 249.074 189.023 248.633 188.83C248.196 188.636 247.848 188.368 247.589 188.024C247.333 187.678 247.194 187.276 247.172 186.818H248.245C248.268 187.099 248.365 187.342 248.535 187.547C248.706 187.749 248.929 187.905 249.204 188.016C249.48 188.126 249.785 188.182 250.12 188.182C250.495 188.182 250.828 188.116 251.118 187.986C251.407 187.855 251.635 187.673 251.799 187.44C251.964 187.207 252.047 186.938 252.047 186.631C252.047 186.31 251.967 186.027 251.808 185.783C251.649 185.536 251.416 185.342 251.109 185.203C250.802 185.064 250.427 184.994 249.984 184.994H249.285V184.057H249.984C250.331 184.057 250.635 183.994 250.896 183.869C251.16 183.744 251.366 183.568 251.514 183.341C251.664 183.114 251.74 182.847 251.74 182.54C251.74 182.244 251.674 181.987 251.544 181.768C251.413 181.55 251.228 181.379 250.99 181.257C250.754 181.135 250.475 181.074 250.154 181.074C249.853 181.074 249.569 181.129 249.302 181.24C249.038 181.348 248.822 181.506 248.654 181.713C248.487 181.918 248.396 182.165 248.382 182.455H247.359C247.376 181.997 247.514 181.597 247.772 181.253C248.031 180.906 248.369 180.636 248.787 180.443C249.207 180.25 249.669 180.153 250.172 180.153C250.711 180.153 251.174 180.263 251.561 180.482C251.947 180.697 252.244 180.983 252.451 181.338C252.659 181.693 252.762 182.077 252.762 182.489C252.762 182.98 252.633 183.399 252.375 183.746C252.119 184.092 251.771 184.332 251.331 184.466V184.534C251.882 184.625 252.312 184.859 252.622 185.237C252.931 185.612 253.086 186.077 253.086 186.631C253.086 187.105 252.957 187.531 252.699 187.909C252.443 188.284 252.093 188.58 251.65 188.795C251.207 189.011 250.703 189.119 250.137 189.119ZM254.829 189V188.233L257.71 185.08C258.048 184.71 258.326 184.389 258.545 184.116C258.764 183.841 258.926 183.582 259.031 183.341C259.139 183.097 259.193 182.841 259.193 182.574C259.193 182.267 259.119 182.001 258.971 181.777C258.826 181.553 258.627 181.379 258.375 181.257C258.122 181.135 257.838 181.074 257.522 181.074C257.187 181.074 256.895 181.143 256.645 181.283C256.397 181.419 256.206 181.611 256.069 181.858C255.936 182.105 255.869 182.395 255.869 182.727H254.863C254.863 182.216 254.981 181.767 255.217 181.381C255.453 180.994 255.774 180.693 256.18 180.477C256.589 180.261 257.048 180.153 257.556 180.153C258.068 180.153 258.521 180.261 258.916 180.477C259.311 180.693 259.62 180.984 259.845 181.351C260.069 181.717 260.181 182.125 260.181 182.574C260.181 182.895 260.123 183.209 260.007 183.516C259.893 183.82 259.694 184.159 259.41 184.534C259.129 184.906 258.738 185.361 258.238 185.898L256.278 187.994V188.062H260.335V189H254.829ZM262.112 191.455V182.455H263.083V183.494H263.203C263.277 183.381 263.379 183.236 263.51 183.06C263.643 182.881 263.833 182.722 264.081 182.582C264.331 182.44 264.669 182.369 265.095 182.369C265.646 182.369 266.132 182.507 266.552 182.783C266.973 183.058 267.301 183.449 267.537 183.955C267.772 184.46 267.89 185.057 267.89 185.744C267.89 186.438 267.772 187.038 267.537 187.547C267.301 188.053 266.974 188.445 266.556 188.723C266.139 188.999 265.657 189.136 265.112 189.136C264.691 189.136 264.355 189.067 264.102 188.928C263.849 188.786 263.654 188.625 263.518 188.446C263.382 188.264 263.277 188.114 263.203 187.994H263.118V191.455H262.112ZM263.1 185.727C263.1 186.222 263.173 186.658 263.318 187.036C263.463 187.411 263.674 187.705 263.953 187.918C264.231 188.128 264.572 188.233 264.975 188.233C265.396 188.233 265.747 188.122 266.028 187.901C266.312 187.676 266.525 187.375 266.667 186.997C266.812 186.616 266.885 186.193 266.885 185.727C266.885 185.267 266.814 184.852 266.672 184.483C266.532 184.111 266.321 183.817 266.037 183.601C265.755 183.382 265.402 183.273 264.975 183.273C264.566 183.273 264.223 183.376 263.944 183.584C263.666 183.788 263.456 184.075 263.314 184.445C263.172 184.811 263.1 185.239 263.1 185.727ZM269.905 182.455L271.473 185.131L273.041 182.455H274.2L272.087 185.727L274.2 189H273.041L271.473 186.46L269.905 189H268.746L270.825 185.727L268.746 182.455H269.905Z" fill="black"/>
<rect x="299.5" y="120.5" width="41" height="51" rx="4.5" fill="#BFD9FA" stroke="black"/>
<path d="M306.838 187.21V186.341L310.673 180.273H311.303V181.619H310.877L307.98 186.205V186.273H313.144V187.21H306.838ZM310.945 189V186.946V186.541V180.273H311.951V189H310.945ZM317.588 189.119C316.946 189.119 316.399 188.945 315.947 188.595C315.496 188.243 315.15 187.733 314.912 187.065C314.673 186.395 314.554 185.585 314.554 184.636C314.554 183.693 314.673 182.888 314.912 182.22C315.153 181.55 315.5 181.038 315.952 180.686C316.406 180.331 316.952 180.153 317.588 180.153C318.224 180.153 318.768 180.331 319.22 180.686C319.675 181.038 320.021 181.55 320.26 182.22C320.501 182.888 320.622 183.693 320.622 184.636C320.622 185.585 320.503 186.395 320.264 187.065C320.025 187.733 319.68 188.243 319.229 188.595C318.777 188.945 318.23 189.119 317.588 189.119ZM317.588 188.182C318.224 188.182 318.719 187.875 319.071 187.261C319.423 186.648 319.599 185.773 319.599 184.636C319.599 183.881 319.518 183.237 319.356 182.706C319.197 182.175 318.967 181.77 318.666 181.491C318.368 181.213 318.008 181.074 317.588 181.074C316.957 181.074 316.464 181.385 316.109 182.007C315.754 182.626 315.577 183.503 315.577 184.636C315.577 185.392 315.656 186.034 315.815 186.562C315.974 187.091 316.203 187.493 316.501 187.768C316.802 188.044 317.165 188.182 317.588 188.182ZM322.258 191.455V182.455H323.23V183.494H323.349C323.423 183.381 323.525 183.236 323.656 183.06C323.79 182.881 323.98 182.722 324.227 182.582C324.477 182.44 324.815 182.369 325.241 182.369C325.792 182.369 326.278 182.507 326.699 182.783C327.119 183.058 327.447 183.449 327.683 183.955C327.919 184.46 328.037 185.057 328.037 185.744C328.037 186.438 327.919 187.038 327.683 187.547C327.447 188.053 327.121 188.445 326.703 188.723C326.285 188.999 325.804 189.136 325.258 189.136C324.838 189.136 324.501 189.067 324.248 188.928C323.996 188.786 323.801 188.625 323.665 188.446C323.528 188.264 323.423 188.114 323.349 187.994H323.264V191.455H322.258ZM323.247 185.727C323.247 186.222 323.319 186.658 323.464 187.036C323.609 187.411 323.821 187.705 324.099 187.918C324.378 188.128 324.719 188.233 325.122 188.233C325.542 188.233 325.893 188.122 326.175 187.901C326.459 187.676 326.672 187.375 326.814 186.997C326.959 186.616 327.031 186.193 327.031 185.727C327.031 185.267 326.96 184.852 326.818 184.483C326.679 184.111 326.467 183.817 326.183 183.601C325.902 183.382 325.548 183.273 325.122 183.273C324.713 183.273 324.369 183.376 324.091 183.584C323.812 183.788 323.602 184.075 323.46 184.445C323.318 184.811 323.247 185.239 323.247 185.727ZM330.051 182.455L331.619 185.131L333.188 182.455H334.347L332.233 185.727L334.347 189H333.188L331.619 186.46L330.051 189H328.892L330.972 185.727L328.892 182.455H330.051Z" fill="black"/>
<rect x="363.5" y="120.5" width="49" height="51" rx="4.5" fill="#BFD9FA" stroke="black"/>
<path d="M374.89 187.21V186.341L378.725 180.273H379.356V181.619H378.93L376.032 186.205V186.273H381.197V187.21H374.89ZM378.998 189V186.946V186.541V180.273H380.004V189H378.998ZM385.589 189.119C385.004 189.119 384.487 189.016 384.038 188.808C383.592 188.598 383.244 188.31 382.994 187.943C382.744 187.574 382.621 187.153 382.624 186.682C382.621 186.312 382.693 185.972 382.841 185.659C382.989 185.344 383.19 185.081 383.446 184.871C383.705 184.658 383.993 184.523 384.311 184.466V184.415C383.893 184.307 383.561 184.072 383.314 183.712C383.067 183.348 382.945 182.935 382.947 182.472C382.945 182.028 383.057 181.632 383.284 181.283C383.511 180.933 383.824 180.658 384.222 180.456C384.622 180.254 385.078 180.153 385.589 180.153C386.095 180.153 386.547 180.254 386.945 180.456C387.342 180.658 387.655 180.933 387.882 181.283C388.112 181.632 388.229 182.028 388.232 182.472C388.229 182.935 388.102 183.348 387.852 183.712C387.605 184.072 387.277 184.307 386.868 184.415V184.466C387.183 184.523 387.467 184.658 387.72 184.871C387.973 185.081 388.175 185.344 388.325 185.659C388.476 185.972 388.553 186.312 388.555 186.682C388.553 187.153 388.425 187.574 388.172 187.943C387.922 188.31 387.574 188.598 387.128 188.808C386.685 189.016 386.172 189.119 385.589 189.119ZM385.589 188.182C385.984 188.182 386.325 188.118 386.612 187.99C386.899 187.862 387.121 187.682 387.277 187.449C387.433 187.216 387.513 186.943 387.516 186.631C387.513 186.301 387.428 186.01 387.26 185.757C387.092 185.504 386.864 185.305 386.574 185.161C386.287 185.016 385.959 184.943 385.589 184.943C385.217 184.943 384.885 185.016 384.592 185.161C384.303 185.305 384.074 185.504 383.906 185.757C383.741 186.01 383.661 186.301 383.663 186.631C383.661 186.943 383.736 187.216 383.889 187.449C384.045 187.682 384.268 187.862 384.558 187.99C384.848 188.118 385.192 188.182 385.589 188.182ZM385.589 184.04C385.902 184.04 386.179 183.977 386.42 183.852C386.665 183.727 386.857 183.553 386.996 183.328C387.135 183.104 387.206 182.841 387.209 182.54C387.206 182.244 387.136 181.987 387 181.768C386.864 181.547 386.675 181.376 386.433 181.257C386.192 181.135 385.911 181.074 385.589 181.074C385.263 181.074 384.977 181.135 384.733 181.257C384.489 181.376 384.3 181.547 384.166 181.768C384.033 181.987 383.967 182.244 383.97 182.54C383.967 182.841 384.034 183.104 384.17 183.328C384.31 183.553 384.501 183.727 384.746 183.852C384.99 183.977 385.271 184.04 385.589 184.04ZM390.206 191.455V182.455H391.177V183.494H391.297C391.37 183.381 391.473 183.236 391.603 183.06C391.737 182.881 391.927 182.722 392.174 182.582C392.424 182.44 392.762 182.369 393.189 182.369C393.74 182.369 394.225 182.507 394.646 182.783C395.066 183.058 395.395 183.449 395.63 183.955C395.866 184.46 395.984 185.057 395.984 185.744C395.984 186.438 395.866 187.038 395.63 187.547C395.395 188.053 395.068 188.445 394.65 188.723C394.233 188.999 393.751 189.136 393.206 189.136C392.785 189.136 392.449 189.067 392.196 188.928C391.943 188.786 391.748 188.625 391.612 188.446C391.475 188.264 391.37 188.114 391.297 187.994H391.211V191.455H390.206ZM391.194 185.727C391.194 186.222 391.267 186.658 391.412 187.036C391.556 187.411 391.768 187.705 392.047 187.918C392.325 188.128 392.666 188.233 393.069 188.233C393.49 188.233 393.841 188.122 394.122 187.901C394.406 187.676 394.619 187.375 394.761 186.997C394.906 186.616 394.978 186.193 394.978 185.727C394.978 185.267 394.907 184.852 394.765 184.483C394.626 184.111 394.414 183.817 394.13 183.601C393.849 183.382 393.495 183.273 393.069 183.273C392.66 183.273 392.316 183.376 392.038 183.584C391.76 183.788 391.549 184.075 391.407 184.445C391.265 184.811 391.194 185.239 391.194 185.727ZM397.999 182.455L399.567 185.131L401.135 182.455H402.294L400.18 185.727L402.294 189H401.135L399.567 186.46L397.999 189H396.839L398.919 185.727L396.839 182.455H397.999Z" fill="black"/>
<rect x="435.5" y="120.5" width="65" height="51" rx="4.5" fill="#BFD9FA" stroke="black"/>
<path d="M457.946 189.119C457.588 189.114 457.23 189.045 456.872 188.915C456.514 188.784 456.187 188.564 455.892 188.254C455.596 187.942 455.359 187.52 455.18 186.989C455.001 186.455 454.912 185.784 454.912 184.977C454.912 184.205 454.984 183.52 455.129 182.923C455.274 182.324 455.484 181.82 455.76 181.411C456.035 180.999 456.368 180.686 456.757 180.473C457.149 180.26 457.591 180.153 458.082 180.153C458.571 180.153 459.005 180.251 459.386 180.447C459.77 180.641 460.082 180.911 460.324 181.257C460.565 181.604 460.721 182.003 460.792 182.455H459.752C459.656 182.062 459.468 181.737 459.19 181.479C458.912 181.22 458.542 181.091 458.082 181.091C457.406 181.091 456.873 181.385 456.484 181.973C456.098 182.561 455.903 183.386 455.9 184.449H455.968C456.127 184.207 456.316 184.001 456.535 183.831C456.757 183.658 457.001 183.524 457.268 183.43C457.535 183.337 457.818 183.29 458.116 183.29C458.616 183.29 459.074 183.415 459.488 183.665C459.903 183.912 460.235 184.254 460.485 184.692C460.735 185.126 460.86 185.625 460.86 186.188C460.86 186.727 460.74 187.222 460.498 187.67C460.257 188.116 459.917 188.472 459.48 188.736C459.045 188.997 458.534 189.125 457.946 189.119ZM457.946 188.182C458.304 188.182 458.625 188.092 458.909 187.913C459.196 187.734 459.422 187.494 459.586 187.193C459.754 186.892 459.838 186.557 459.838 186.188C459.838 185.827 459.757 185.499 459.595 185.203C459.436 184.905 459.216 184.668 458.934 184.491C458.656 184.315 458.338 184.227 457.98 184.227C457.71 184.227 457.458 184.281 457.225 184.389C456.993 184.494 456.788 184.639 456.612 184.824C456.439 185.009 456.302 185.22 456.203 185.459C456.103 185.695 456.054 185.943 456.054 186.205C456.054 186.551 456.135 186.875 456.297 187.176C456.461 187.477 456.686 187.72 456.97 187.905C457.257 188.089 457.582 188.182 457.946 188.182ZM462.332 187.21V186.341L466.167 180.273H466.798V181.619H466.371L463.474 186.205V186.273H468.638V187.21H462.332ZM466.44 189V186.946V186.541V180.273H467.445V189H466.44ZM470.252 191.455V182.455H471.224V183.494H471.343C471.417 183.381 471.52 183.236 471.65 183.06C471.784 182.881 471.974 182.722 472.221 182.582C472.471 182.44 472.809 182.369 473.235 182.369C473.787 182.369 474.272 182.507 474.693 182.783C475.113 183.058 475.441 183.449 475.677 183.955C475.913 184.46 476.031 185.057 476.031 185.744C476.031 186.438 475.913 187.038 475.677 187.547C475.441 188.053 475.115 188.445 474.697 188.723C474.279 188.999 473.798 189.136 473.252 189.136C472.832 189.136 472.495 189.067 472.243 188.928C471.99 188.786 471.795 188.625 471.659 188.446C471.522 188.264 471.417 188.114 471.343 187.994H471.258V191.455H470.252ZM471.241 185.727C471.241 186.222 471.314 186.658 471.458 187.036C471.603 187.411 471.815 187.705 472.093 187.918C472.372 188.128 472.713 188.233 473.116 188.233C473.537 188.233 473.887 188.122 474.169 187.901C474.453 187.676 474.666 187.375 474.808 186.997C474.953 186.616 475.025 186.193 475.025 185.727C475.025 185.267 474.954 184.852 474.812 184.483C474.673 184.111 474.461 183.817 474.177 183.601C473.896 183.382 473.542 183.273 473.116 183.273C472.707 183.273 472.363 183.376 472.085 183.584C471.806 183.788 471.596 184.075 471.454 184.445C471.312 184.811 471.241 185.239 471.241 185.727ZM478.045 182.455L479.614 185.131L481.182 182.455H482.341L480.227 185.727L482.341 189H481.182L479.614 186.46L478.045 189H476.886L478.966 185.727L476.886 182.455H478.045Z" fill="black"/>
<rect x="523.5" y="120.5" width="81" height="51" rx="4.5" fill="#BFD9FA" stroke="black"/>
<path d="M552.99 189.119C552.405 189.119 551.888 189.016 551.439 188.808C550.993 188.598 550.645 188.31 550.395 187.943C550.145 187.574 550.021 187.153 550.024 186.682C550.021 186.312 550.094 185.972 550.241 185.659C550.389 185.344 550.591 185.081 550.846 184.871C551.105 184.658 551.393 184.523 551.711 184.466V184.415C551.294 184.307 550.961 184.072 550.714 183.712C550.467 183.348 550.345 182.935 550.348 182.472C550.345 182.028 550.457 181.632 550.684 181.283C550.912 180.933 551.224 180.658 551.622 180.456C552.023 180.254 552.479 180.153 552.99 180.153C553.496 180.153 553.947 180.254 554.345 180.456C554.743 180.658 555.055 180.933 555.282 181.283C555.513 181.632 555.629 182.028 555.632 182.472C555.629 182.935 555.503 183.348 555.253 183.712C555.006 184.072 554.677 184.307 554.268 184.415V184.466C554.584 184.523 554.868 184.658 555.121 184.871C555.373 185.081 555.575 185.344 555.726 185.659C555.876 185.972 555.953 186.312 555.956 186.682C555.953 187.153 555.825 187.574 555.572 187.943C555.322 188.31 554.974 188.598 554.528 188.808C554.085 189.016 553.572 189.119 552.99 189.119ZM552.99 188.182C553.385 188.182 553.726 188.118 554.013 187.99C554.3 187.862 554.521 187.682 554.677 187.449C554.834 187.216 554.913 186.943 554.916 186.631C554.913 186.301 554.828 186.01 554.66 185.757C554.493 185.504 554.264 185.305 553.974 185.161C553.687 185.016 553.359 184.943 552.99 184.943C552.618 184.943 552.285 185.016 551.993 185.161C551.703 185.305 551.474 185.504 551.307 185.757C551.142 186.01 551.061 186.301 551.064 186.631C551.061 186.943 551.136 187.216 551.29 187.449C551.446 187.682 551.669 187.862 551.959 187.99C552.248 188.118 552.592 188.182 552.99 188.182ZM552.99 184.04C553.302 184.04 553.579 183.977 553.821 183.852C554.065 183.727 554.257 183.553 554.396 183.328C554.535 183.104 554.606 182.841 554.609 182.54C554.606 182.244 554.537 181.987 554.4 181.768C554.264 181.547 554.075 181.376 553.834 181.257C553.592 181.135 553.311 181.074 552.99 181.074C552.663 181.074 552.378 181.135 552.133 181.257C551.889 181.376 551.7 181.547 551.567 181.768C551.433 181.987 551.368 182.244 551.371 182.54C551.368 182.841 551.434 183.104 551.571 183.328C551.71 183.553 551.902 183.727 552.146 183.852C552.39 183.977 552.672 184.04 552.99 184.04ZM560.436 189.119C559.794 189.119 559.247 188.945 558.795 188.595C558.343 188.243 557.998 187.733 557.759 187.065C557.521 186.395 557.401 185.585 557.401 184.636C557.401 183.693 557.521 182.888 557.759 182.22C558.001 181.55 558.347 181.038 558.799 180.686C559.254 180.331 559.799 180.153 560.436 180.153C561.072 180.153 561.616 180.331 562.068 180.686C562.522 181.038 562.869 181.55 563.107 182.22C563.349 182.888 563.47 183.693 563.47 184.636C563.47 185.585 563.35 186.395 563.112 187.065C562.873 187.733 562.528 188.243 562.076 188.595C561.624 188.945 561.078 189.119 560.436 189.119ZM560.436 188.182C561.072 188.182 561.566 187.875 561.919 187.261C562.271 186.648 562.447 185.773 562.447 184.636C562.447 183.881 562.366 183.237 562.204 182.706C562.045 182.175 561.815 181.77 561.514 181.491C561.215 181.213 560.856 181.074 560.436 181.074C559.805 181.074 559.312 181.385 558.957 182.007C558.602 182.626 558.424 183.503 558.424 184.636C558.424 185.392 558.504 186.034 558.663 186.562C558.822 187.091 559.051 187.493 559.349 187.768C559.65 188.044 560.012 188.182 560.436 188.182ZM565.106 191.455V182.455H566.078V183.494H566.197C566.271 183.381 566.373 183.236 566.504 183.06C566.637 182.881 566.828 182.722 567.075 182.582C567.325 182.44 567.663 182.369 568.089 182.369C568.64 182.369 569.126 182.507 569.546 182.783C569.967 183.058 570.295 183.449 570.531 183.955C570.767 184.46 570.884 185.057 570.884 185.744C570.884 186.438 570.767 187.038 570.531 187.547C570.295 188.053 569.968 188.445 569.551 188.723C569.133 188.999 568.651 189.136 568.106 189.136C567.686 189.136 567.349 189.067 567.096 188.928C566.843 188.786 566.649 188.625 566.512 188.446C566.376 188.264 566.271 188.114 566.197 187.994H566.112V191.455H565.106ZM566.095 185.727C566.095 186.222 566.167 186.658 566.312 187.036C566.457 187.411 566.669 187.705 566.947 187.918C567.225 188.128 567.566 188.233 567.97 188.233C568.39 188.233 568.741 188.122 569.022 187.901C569.306 187.676 569.519 187.375 569.661 186.997C569.806 186.616 569.879 186.193 569.879 185.727C569.879 185.267 569.808 184.852 569.666 184.483C569.526 184.111 569.315 183.817 569.031 183.601C568.749 183.382 568.396 183.273 567.97 183.273C567.561 183.273 567.217 183.376 566.938 183.584C566.66 183.788 566.45 184.075 566.308 184.445C566.166 184.811 566.095 185.239 566.095 185.727ZM572.899 182.455L574.467 185.131L576.035 182.455H577.194L575.081 185.727L577.194 189H576.035L574.467 186.46L572.899 189H571.74L573.819 185.727L571.74 182.455H572.899Z" fill="black"/>
</svg>
