<svg width="1440" height="1443" viewBox="0 0 1440 1443" fill="none" xmlns="http://www.w3.org/2000/svg">
<g clip-path="url(#clip0_10_4375)">
<rect width="1440" height="1443" fill="#EFF0F6"/>
<g filter="url(#filter0_d_10_4375)">
<g clip-path="url(#clip1_10_4375)">
<rect width="278" height="1443" rx="4" fill="white"/>
<path fill-rule="evenodd" clip-rule="evenodd" d="M257.523 29.6461L251.154 23.3384C250.969 23.1538 250.969 22.8461 251.154 22.6615L257.523 16.3538C257.708 16.1692 258.015 16.1692 258.2 16.3538L258.877 17.0307C259.062 17.2153 259.062 17.523 258.877 17.7076L253.862 22.6615C253.677 22.8461 253.677 23.1538 253.862 23.3384L258.846 28.2923C259.031 28.4769 259.031 28.7846 258.846 28.9692L258.169 29.6461C257.985 29.7999 257.708 29.7999 257.523 29.6461Z" fill="#969696"/>
<path d="M247 16.8335C247 16.5574 247.224 16.3335 247.5 16.3335H248.5C248.776 16.3335 249 16.5574 249 16.8335V29.1668C249 29.443 248.776 29.6668 248.5 29.6668H247.5C247.224 29.6668 247 29.443 247 29.1668V16.8335Z" fill="#969696"/>
<path d="M44.0749 248.267C44.0702 248.245 44.0702 248.222 44.0749 248.2C44.0709 248.181 44.0709 248.161 44.0749 248.142V248.067L44.0249 247.942C44.0046 247.907 43.9793 247.877 43.9499 247.85L43.8749 247.783H43.8333L40.5499 245.708L37.4499 243.792C37.3782 243.735 37.2961 243.692 37.2083 243.667H37.1416C37.0671 243.654 36.9911 243.654 36.9166 243.667H36.8333C36.7365 243.688 36.6437 243.725 36.5583 243.775L30.3333 247.65L30.2583 247.708L30.1833 247.775L30.0999 247.833L30.0583 247.883L30.0083 248.008V248.083V248.133C30.0002 248.188 30.0002 248.245 30.0083 248.3V255.575C30.008 255.717 30.0438 255.856 30.1123 255.98C30.1809 256.104 30.2798 256.208 30.3999 256.283L36.6499 260.15L36.7749 260.2H36.8416C36.9826 260.245 37.134 260.245 37.2749 260.2H37.3416L37.4666 260.15L43.6666 256.342C43.7867 256.266 43.8857 256.162 43.9542 256.038C44.0227 255.914 44.0586 255.775 44.0583 255.633V248.358C44.0583 248.358 44.0749 248.3 44.0749 248.267ZM36.9999 245.475L38.4833 246.392L33.8249 249.275L32.3333 248.358L36.9999 245.475ZM36.1666 257.975L31.5833 255.175V249.85L36.1666 252.683V257.975ZM36.9999 251.217L35.4083 250.258L40.0666 247.367L41.6666 248.358L36.9999 251.217ZM42.4166 255.15L37.8333 258V252.683L42.4166 249.85V255.15Z" fill="#212121"/>
<rect x="63" y="248" width="115.2" height="9" rx="4.5" fill="#3B3B3B"/>
<rect width="248" height="44" transform="translate(15 342)" fill="#F7F7F7"/>
<path d="M31.9999 363.167C31.8351 363.167 31.674 363.215 31.5369 363.307C31.3999 363.399 31.2931 363.529 31.23 363.681C31.1669 363.833 31.1504 364.001 31.1826 364.162C31.2148 364.324 31.2941 364.473 31.4107 364.589C31.5272 364.706 31.6757 364.785 31.8373 364.817C31.999 364.849 32.1665 364.833 32.3188 364.77C32.4711 364.707 32.6012 364.6 32.6928 364.463C32.7844 364.326 32.8333 364.165 32.8333 364C32.8333 363.779 32.7455 363.567 32.5892 363.411C32.4329 363.254 32.2209 363.167 31.9999 363.167ZM41.9999 363.167C41.8351 363.167 41.674 363.215 41.5369 363.307C41.3999 363.399 41.2931 363.529 41.23 363.681C41.1669 363.833 41.1504 364.001 41.1826 364.162C41.2148 364.324 41.2941 364.473 41.4107 364.589C41.5272 364.706 41.6757 364.785 41.8373 364.817C41.999 364.849 42.1665 364.833 42.3188 364.77C42.4711 364.707 42.6012 364.6 42.6928 364.463C42.7844 364.326 42.8333 364.165 42.8333 364C42.8333 363.779 42.7455 363.567 42.5892 363.411C42.4329 363.254 42.2209 363.167 41.9999 363.167ZM43.6666 358.167H30.3333C29.6702 358.167 29.0343 358.43 28.5655 358.899C28.0966 359.368 27.8333 360.003 27.8333 360.667V367.333C27.8333 367.996 28.0966 368.632 28.5655 369.101C29.0343 369.57 29.6702 369.833 30.3333 369.833H43.6666C44.3296 369.833 44.9655 369.57 45.4344 369.101C45.9032 368.632 46.1666 367.996 46.1666 367.333V360.667C46.1666 360.003 45.9032 359.368 45.4344 358.899C44.9655 358.43 44.3296 358.167 43.6666 358.167ZM44.4999 367.333C44.4999 367.554 44.4121 367.766 44.2558 367.922C44.0996 368.079 43.8876 368.167 43.6666 368.167H30.3333C30.1122 368.167 29.9003 368.079 29.744 367.922C29.5877 367.766 29.4999 367.554 29.4999 367.333V360.667C29.4999 360.445 29.5877 360.234 29.744 360.077C29.9003 359.921 30.1122 359.833 30.3333 359.833H43.6666C43.8876 359.833 44.0996 359.921 44.2558 360.077C44.4121 360.234 44.4999 360.445 44.4999 360.667V367.333ZM36.9999 361.5C36.5055 361.5 36.0221 361.646 35.611 361.921C35.1999 362.196 34.8794 362.586 34.6902 363.043C34.501 363.5 34.4515 364.003 34.548 364.488C34.6444 364.973 34.8825 365.418 35.2322 365.768C35.5818 366.117 36.0272 366.355 36.5122 366.452C36.9971 366.548 37.4998 366.499 37.9566 366.31C38.4134 366.12 38.8039 365.8 39.0786 365.389C39.3533 364.978 39.4999 364.494 39.4999 364C39.4999 363.337 39.2365 362.701 38.7677 362.232C38.2988 361.763 37.663 361.5 36.9999 361.5ZM36.9999 364.833C36.8351 364.833 36.674 364.784 36.5369 364.693C36.3999 364.601 36.2931 364.471 36.23 364.319C36.1669 364.166 36.1504 363.999 36.1826 363.837C36.2148 363.676 36.2941 363.527 36.4107 363.411C36.5272 363.294 36.6757 363.215 36.8373 363.183C36.999 363.15 37.1665 363.167 37.3188 363.23C37.4711 363.293 37.6012 363.4 37.6928 363.537C37.7844 363.674 37.8333 363.835 37.8333 364C37.8333 364.221 37.7455 364.433 37.5892 364.589C37.4329 364.745 37.2209 364.833 36.9999 364.833Z" fill="#808080"/>
<rect x="63" y="360" width="67.2" height="9" rx="4.5" fill="#808080"/>
<path d="M250.167 249.642C250.01 249.487 249.799 249.399 249.579 249.399C249.359 249.399 249.148 249.487 248.992 249.642L246 252.592L243.05 249.642C242.894 249.487 242.683 249.399 242.462 249.399C242.242 249.399 242.031 249.487 241.875 249.642C241.797 249.719 241.735 249.811 241.693 249.913C241.65 250.014 241.628 250.123 241.628 250.233C241.628 250.343 241.65 250.452 241.693 250.554C241.735 250.655 241.797 250.748 241.875 250.825L245.408 254.358C245.486 254.437 245.578 254.499 245.679 254.541C245.781 254.583 245.89 254.605 246 254.605C246.11 254.605 246.219 254.583 246.32 254.541C246.422 254.499 246.514 254.437 246.592 254.358L250.167 250.825C250.245 250.748 250.307 250.655 250.349 250.554C250.391 250.452 250.413 250.343 250.413 250.233C250.413 250.123 250.391 250.014 250.349 249.913C250.307 249.811 250.245 249.719 250.167 249.642Z" fill="#878787"/>
<path d="M41.9999 476.983V474.333C41.9987 473.152 41.5797 472.01 40.8171 471.109C40.0545 470.207 38.9975 469.605 37.8333 469.408V468.5C37.8333 468.279 37.7455 468.067 37.5892 467.911C37.4329 467.754 37.2209 467.667 36.9999 467.667C36.7789 467.667 36.5669 467.754 36.4107 467.911C36.2544 468.067 36.1666 468.279 36.1666 468.5V469.408C35.0024 469.605 33.9454 470.207 33.1827 471.109C32.4201 472.01 32.0011 473.152 31.9999 474.333V476.983C31.5136 477.155 31.0924 477.473 30.794 477.894C30.4957 478.315 30.3347 478.817 30.3333 479.333V481C30.3333 481.221 30.421 481.433 30.5773 481.589C30.7336 481.745 30.9456 481.833 31.1666 481.833H33.7833C33.9752 482.539 34.3941 483.163 34.9754 483.607C35.5567 484.052 36.2682 484.292 36.9999 484.292C37.7317 484.292 38.4431 484.052 39.0244 483.607C39.6058 483.163 40.0247 482.539 40.2166 481.833H42.8333C43.0543 481.833 43.2662 481.745 43.4225 481.589C43.5788 481.433 43.6666 481.221 43.6666 481V479.333C43.6651 478.817 43.5042 478.315 43.2058 477.894C42.9074 477.473 42.4862 477.155 41.9999 476.983ZM33.6666 474.333C33.6666 473.449 34.0178 472.601 34.6429 471.976C35.268 471.351 36.1159 471 36.9999 471C37.884 471 38.7318 471.351 39.3569 471.976C39.9821 472.601 40.3333 473.449 40.3333 474.333V476.833H33.6666V474.333ZM36.9999 482.667C36.7091 482.665 36.4237 482.587 36.1723 482.441C35.9208 482.295 35.712 482.085 35.5666 481.833H38.4333C38.2878 482.085 38.079 482.295 37.8276 482.441C37.5761 482.587 37.2908 482.665 36.9999 482.667ZM41.9999 480.167H31.9999V479.333C31.9999 479.112 32.0877 478.9 32.244 478.744C32.4003 478.588 32.6122 478.5 32.8333 478.5H41.1666C41.3876 478.5 41.5996 478.588 41.7558 478.744C41.9121 478.9 41.9999 479.112 41.9999 479.333V480.167Z" fill="#212121"/>
<rect x="63" y="472" width="105.6" height="9" rx="4.5" fill="#3B3B3B"/>
<path d="M41.9999 532.983V530.333C41.9987 529.152 41.5797 528.01 40.8171 527.109C40.0545 526.207 38.9975 525.605 37.8333 525.408V524.5C37.8333 524.279 37.7455 524.067 37.5892 523.911C37.4329 523.754 37.2209 523.667 36.9999 523.667C36.7789 523.667 36.5669 523.754 36.4107 523.911C36.2544 524.067 36.1666 524.279 36.1666 524.5V525.408C35.0024 525.605 33.9454 526.207 33.1827 527.109C32.4201 528.01 32.0011 529.152 31.9999 530.333V532.983C31.5136 533.155 31.0924 533.473 30.794 533.894C30.4957 534.315 30.3347 534.817 30.3333 535.333V537C30.3333 537.221 30.421 537.433 30.5773 537.589C30.7336 537.745 30.9456 537.833 31.1666 537.833H33.7833C33.9752 538.539 34.3941 539.163 34.9754 539.607C35.5567 540.052 36.2682 540.292 36.9999 540.292C37.7317 540.292 38.4431 540.052 39.0244 539.607C39.6058 539.163 40.0247 538.539 40.2166 537.833H42.8333C43.0543 537.833 43.2662 537.745 43.4225 537.589C43.5788 537.433 43.6666 537.221 43.6666 537V535.333C43.6651 534.817 43.5042 534.315 43.2058 533.894C42.9074 533.473 42.4862 533.155 41.9999 532.983ZM33.6666 530.333C33.6666 529.449 34.0178 528.601 34.6429 527.976C35.268 527.351 36.1159 527 36.9999 527C37.884 527 38.7318 527.351 39.3569 527.976C39.9821 528.601 40.3333 529.449 40.3333 530.333V532.833H33.6666V530.333ZM36.9999 538.667C36.7091 538.665 36.4237 538.587 36.1723 538.441C35.9208 538.295 35.712 538.085 35.5666 537.833H38.4333C38.2878 538.085 38.079 538.295 37.8276 538.441C37.5761 538.587 37.2908 538.665 36.9999 538.667ZM41.9999 536.167H31.9999V535.333C31.9999 535.112 32.0877 534.9 32.244 534.744C32.4003 534.588 32.6122 534.5 32.8333 534.5H41.1666C41.3876 534.5 41.5996 534.588 41.7558 534.744C41.9121 534.9 41.9999 535.112 41.9999 535.333V536.167Z" fill="#212121"/>
<rect x="63" y="528" width="76.8" height="9" rx="4.5" fill="#3B3B3B"/>
<path d="M43.6667 192.666L38.6667 188.283C38.2084 187.873 37.615 187.646 37.0001 187.646C36.3851 187.646 35.7918 187.873 35.3334 188.283L30.3334 192.666C30.0687 192.903 29.8575 193.194 29.7138 193.518C29.5701 193.843 29.4973 194.195 29.5001 194.55V201.833C29.5001 202.496 29.7635 203.132 30.2323 203.601C30.7012 204.07 31.337 204.333 32.0001 204.333H42.0001C42.6631 204.333 43.299 204.07 43.7678 203.601C44.2367 203.132 44.5001 202.496 44.5001 201.833V194.541C44.5017 194.188 44.4283 193.838 44.2846 193.514C44.141 193.191 43.9304 192.902 43.6667 192.666ZM38.6667 202.666H35.3334V198.5C35.3334 198.279 35.4212 198.067 35.5775 197.911C35.7338 197.754 35.9457 197.666 36.1667 197.666H37.8334C38.0544 197.666 38.2664 197.754 38.4227 197.911C38.5789 198.067 38.6667 198.279 38.6667 198.5V202.666ZM42.8334 201.833C42.8334 202.054 42.7456 202.266 42.5893 202.422C42.4331 202.579 42.2211 202.666 42.0001 202.666H40.3334V198.5C40.3334 197.837 40.07 197.201 39.6012 196.732C39.1323 196.263 38.4965 196 37.8334 196H36.1667C35.5037 196 34.8678 196.263 34.399 196.732C33.9301 197.201 33.6667 197.837 33.6667 198.5V202.666H32.0001C31.7791 202.666 31.5671 202.579 31.4108 202.422C31.2545 202.266 31.1667 202.054 31.1667 201.833V194.541C31.1669 194.423 31.1922 194.306 31.2411 194.198C31.2899 194.091 31.3612 193.995 31.4501 193.916L36.4501 189.541C36.6022 189.408 36.7977 189.334 37.0001 189.334C37.2025 189.334 37.398 189.408 37.5501 189.541L42.5501 193.916C42.639 193.995 42.7102 194.091 42.7591 194.198C42.8079 194.306 42.8333 194.423 42.8334 194.541V201.833Z" fill="#212121"/>
<rect x="63" y="192" width="38.4" height="9" rx="4.5" fill="#3B3B3B"/>
<path d="M43.5833 1315.55C43.4497 1315.4 43.376 1315.2 43.376 1315C43.376 1314.8 43.4497 1314.6 43.5833 1314.45L44.65 1313.25C44.7675 1313.12 44.8405 1312.95 44.8585 1312.78C44.8765 1312.6 44.8385 1312.43 44.75 1312.27L43.0833 1309.39C42.9957 1309.24 42.8624 1309.12 42.7023 1309.05C42.5422 1308.98 42.3635 1308.96 42.1917 1308.99L40.625 1309.31C40.4256 1309.35 40.2181 1309.32 40.0416 1309.21C39.865 1309.11 39.7317 1308.95 39.6667 1308.76L39.1583 1307.23C39.1024 1307.07 38.9959 1306.92 38.8539 1306.82C38.7118 1306.72 38.5414 1306.67 38.3667 1306.67H35.0333C34.8516 1306.66 34.6718 1306.71 34.5213 1306.81C34.3708 1306.91 34.258 1307.06 34.2 1307.23L33.7333 1308.76C33.6683 1308.95 33.535 1309.11 33.3584 1309.21C33.1819 1309.32 32.9743 1309.35 32.775 1309.31L31.1667 1308.99C31.0038 1308.97 30.8377 1308.99 30.6895 1309.07C30.5412 1309.14 30.4172 1309.25 30.3333 1309.39L28.6667 1312.27C28.576 1312.43 28.5352 1312.6 28.5501 1312.78C28.5651 1312.95 28.6351 1313.12 28.75 1313.25L29.8083 1314.45C29.9419 1314.6 30.0156 1314.8 30.0156 1315C30.0156 1315.2 29.9419 1315.4 29.8083 1315.55L28.75 1316.75C28.6351 1316.88 28.5651 1317.05 28.5501 1317.22C28.5352 1317.4 28.576 1317.57 28.6667 1317.72L30.3333 1320.61C30.4209 1320.76 30.5543 1320.88 30.7144 1320.95C30.8745 1321.02 31.0532 1321.04 31.225 1321.01L32.7917 1320.69C32.991 1320.65 33.1985 1320.68 33.3751 1320.78C33.5516 1320.89 33.685 1321.05 33.75 1321.24L34.2583 1322.77C34.3163 1322.94 34.4292 1323.09 34.5796 1323.19C34.7301 1323.29 34.9099 1323.34 35.0917 1323.33H38.425C38.5997 1323.33 38.7701 1323.28 38.9122 1323.18C39.0542 1323.08 39.1608 1322.93 39.2167 1322.77L39.725 1321.24C39.79 1321.05 39.9234 1320.89 40.0999 1320.78C40.2764 1320.68 40.484 1320.65 40.6833 1320.69L42.25 1321.01C42.4218 1321.04 42.6005 1321.02 42.7606 1320.95C42.9207 1320.88 43.0541 1320.76 43.1417 1320.61L44.8083 1317.72C44.8968 1317.57 44.9348 1317.4 44.9168 1317.22C44.8989 1317.05 44.8259 1316.88 44.7083 1316.75L43.5833 1315.55ZM42.3417 1316.67L43.0083 1317.42L41.9417 1319.27L40.9583 1319.07C40.3581 1318.94 39.7338 1319.05 39.2038 1319.35C38.6738 1319.66 38.2751 1320.15 38.0833 1320.73L37.7667 1321.67H35.6333L35.3333 1320.72C35.1415 1320.13 34.7428 1319.64 34.2128 1319.34C33.6829 1319.03 33.0585 1318.93 32.4583 1319.05L31.475 1319.25L30.3917 1317.41L31.0583 1316.66C31.4683 1316.2 31.6949 1315.61 31.6949 1314.99C31.6949 1314.38 31.4683 1313.78 31.0583 1313.32L30.3917 1312.57L31.4583 1310.74L32.4417 1310.94C33.0418 1311.06 33.6662 1310.96 34.1962 1310.66C34.7261 1310.35 35.1249 1309.86 35.3167 1309.27L35.6333 1308.33H37.7667L38.0833 1309.28C38.2751 1309.87 38.6738 1310.36 39.2038 1310.66C39.7338 1310.97 40.3581 1311.07 40.9583 1310.95L41.9417 1310.75L43.0083 1312.6L42.3417 1313.35C41.9363 1313.81 41.7125 1314.4 41.7125 1315.01C41.7125 1315.62 41.9363 1316.21 42.3417 1316.67ZM36.7 1311.67C36.0407 1311.67 35.3963 1311.86 34.8481 1312.23C34.2999 1312.59 33.8727 1313.12 33.6204 1313.72C33.3681 1314.33 33.3021 1315 33.4307 1315.65C33.5593 1316.3 33.8768 1316.89 34.343 1317.36C34.8091 1317.82 35.4031 1318.14 36.0497 1318.27C36.6963 1318.4 37.3665 1318.33 37.9756 1318.08C38.5847 1317.83 39.1053 1317.4 39.4716 1316.85C39.8378 1316.3 40.0333 1315.66 40.0333 1315C40.0333 1314.12 39.6821 1313.27 39.057 1312.64C38.4319 1312.02 37.5841 1311.67 36.7 1311.67ZM36.7 1316.67C36.3704 1316.67 36.0481 1316.57 35.774 1316.39C35.5 1316.2 35.2863 1315.94 35.1602 1315.64C35.034 1315.33 35.001 1315 35.0654 1314.67C35.1297 1314.35 35.2884 1314.05 35.5215 1313.82C35.7546 1313.59 36.0515 1313.43 36.3748 1313.37C36.6981 1313.3 37.0333 1313.33 37.3378 1313.46C37.6423 1313.59 37.9026 1313.8 38.0858 1314.07C38.2689 1314.35 38.3667 1314.67 38.3667 1315C38.3667 1315.44 38.1911 1315.87 37.8785 1316.18C37.5659 1316.49 37.142 1316.67 36.7 1316.67Z" fill="#878787"/>
<rect x="63" y="1311" width="76.8" height="9" rx="4.5" fill="#424242"/>
<path d="M37.4917 1371.83L35.5751 1373.74C35.497 1373.82 35.435 1373.91 35.3927 1374.01C35.3504 1374.11 35.3286 1374.22 35.3286 1374.33C35.3286 1374.44 35.3504 1374.55 35.3927 1374.65C35.435 1374.76 35.497 1374.85 35.5751 1374.92C35.6526 1375 35.7447 1375.07 35.8463 1375.11C35.9478 1375.15 36.0567 1375.17 36.1667 1375.17C36.2768 1375.17 36.3857 1375.15 36.4872 1375.11C36.5888 1375.07 36.6809 1375 36.7584 1374.92L40.0917 1371.59C40.1676 1371.51 40.2271 1371.42 40.2667 1371.32C40.3501 1371.11 40.3501 1370.89 40.2667 1370.68C40.2271 1370.58 40.1676 1370.49 40.0917 1370.41L36.7584 1367.07C36.6807 1367 36.5885 1366.94 36.487 1366.89C36.3854 1366.85 36.2766 1366.83 36.1667 1366.83C36.0569 1366.83 35.9481 1366.85 35.8465 1366.89C35.745 1366.94 35.6528 1367 35.5751 1367.07C35.4974 1367.15 35.4357 1367.24 35.3937 1367.35C35.3516 1367.45 35.33 1367.56 35.33 1367.67C35.33 1367.78 35.3516 1367.89 35.3937 1367.99C35.4357 1368.09 35.4974 1368.18 35.5751 1368.26L37.4917 1370.17H29.5001C29.2791 1370.17 29.0671 1370.25 28.9108 1370.41C28.7545 1370.57 28.6667 1370.78 28.6667 1371C28.6667 1371.22 28.7545 1371.43 28.9108 1371.59C29.0671 1371.75 29.2791 1371.83 29.5001 1371.83H37.4917ZM37.0001 1362.67C35.4427 1362.66 33.9145 1363.09 32.5888 1363.91C31.2632 1364.72 30.1931 1365.9 29.5001 1367.29C29.4006 1367.49 29.3843 1367.72 29.4546 1367.93C29.5249 1368.14 29.6762 1368.32 29.8751 1368.42C30.074 1368.52 30.3043 1368.53 30.5152 1368.46C30.7262 1368.39 30.9006 1368.24 31.0001 1368.04C31.5269 1366.98 32.3283 1366.07 33.3214 1365.42C34.3145 1364.77 35.4633 1364.4 36.649 1364.34C37.8348 1364.28 39.0146 1364.54 40.0663 1365.09C41.1181 1365.64 42.0038 1366.47 42.6318 1367.47C43.2599 1368.48 43.6075 1369.64 43.6387 1370.82C43.67 1372.01 43.3838 1373.18 42.8097 1374.22C42.2356 1375.26 41.3944 1376.13 40.373 1376.74C39.3517 1377.34 38.1873 1377.66 37.0001 1377.67C35.7575 1377.67 34.5385 1377.33 33.4832 1376.67C32.4278 1376.02 31.5787 1375.07 31.0334 1373.96C30.934 1373.76 30.7596 1373.61 30.5486 1373.54C30.3376 1373.47 30.1073 1373.48 29.9084 1373.58C29.7095 1373.68 29.5582 1373.86 29.4879 1374.07C29.4176 1374.28 29.434 1374.51 29.5334 1374.71C30.1941 1376.04 31.198 1377.17 32.4413 1377.98C33.6846 1378.79 35.1221 1379.25 36.6052 1379.32C38.0882 1379.39 39.563 1379.07 40.8769 1378.37C42.1908 1377.68 43.2961 1376.65 44.0785 1375.39C44.8609 1374.13 45.292 1372.68 45.3272 1371.2C45.3624 1369.71 45.0004 1368.25 44.2786 1366.95C43.5569 1365.65 42.5016 1364.57 41.222 1363.82C39.9423 1363.06 38.4848 1362.67 37.0001 1362.67Z" fill="#878787"/>
<rect x="63" y="1367" width="57.6" height="9" rx="4.5" fill="#424242"/>
<path d="M45.0917 304.075C45.0142 303.997 44.9221 303.935 44.8205 303.893C44.719 303.85 44.61 303.829 44.5 303.829C44.39 303.829 44.2811 303.85 44.1795 303.893C44.078 303.935 43.9858 303.997 43.9084 304.075L38.6667 309.325L35.0917 305.742C35.0142 305.664 34.9221 305.602 34.8205 305.559C34.719 305.517 34.61 305.495 34.5 305.495C34.39 305.495 34.2811 305.517 34.1795 305.559C34.078 305.602 33.9858 305.664 33.9084 305.742L28.9084 310.742C28.8303 310.819 28.7683 310.911 28.726 311.013C28.6836 311.115 28.6619 311.223 28.6619 311.333C28.6619 311.443 28.6836 311.552 28.726 311.654C28.7683 311.755 28.8303 311.848 28.9084 311.925C28.9858 312.003 29.078 312.065 29.1796 312.108C29.2811 312.15 29.39 312.172 29.5 312.172C29.61 312.172 29.719 312.15 29.8205 312.108C29.9221 312.065 30.0142 312.003 30.0917 311.925L34.5 307.508L38.075 311.092C38.1525 311.17 38.2447 311.232 38.3462 311.274C38.4478 311.316 38.5567 311.338 38.6667 311.338C38.7767 311.338 38.8856 311.316 38.9872 311.274C39.0887 311.232 39.1809 311.17 39.2584 311.092L45.0917 305.258C45.1698 305.181 45.2318 305.089 45.2741 304.987C45.3164 304.886 45.3382 304.777 45.3382 304.667C45.3382 304.557 45.3164 304.448 45.2741 304.346C45.2318 304.245 45.1698 304.153 45.0917 304.075Z" fill="#212121"/>
<rect x="231" y="410" width="20" height="20" rx="10" fill="#969696"/>
<rect x="237" y="417" width="8" height="7" rx="3.5" fill="white"/>
<rect x="26" y="408" width="24" height="25" fill="#E8E8E8"/>
<rect x="63" y="416" width="57.6" height="9" rx="4.5" fill="#3B3B3B"/>
<rect x="26" y="47" width="184" height="9" rx="4.5" fill="black"/>
<rect x="26" y="67" width="119" height="9" rx="4.5" fill="black"/>
<rect x="63" y="304" width="67.2" height="9" rx="4.5" fill="#3B3B3B"/>
</g>
<rect x="0.5" y="0.5" width="277" height="1442" rx="3.5" stroke="#DBDBDB"/>
</g>
<rect x="15" y="96" width="222" height="56" rx="16" fill="#F5F5F5"/>
<circle cx="42" cy="123" r="7" stroke="#2B2B2B" stroke-width="1.5"/>
<path d="M47.5303 127.47L47 126.939L45.9393 128L46.4697 128.53L47.5303 127.47ZM49.9697 132.03C50.2626 132.323 50.7374 132.323 51.0303 132.03C51.3232 131.737 51.3232 131.263 51.0303 130.97L49.9697 132.03ZM46.4697 128.53L49.9697 132.03L51.0303 130.97L47.5303 127.47L46.4697 128.53Z" fill="#2B2B2B"/>
<rect x="71" y="119" width="86.4" height="9" rx="4.5" fill="#2B2B2B"/>
<g filter="url(#filter1_d_10_4375)">
<g clip-path="url(#clip2_10_4375)">
<rect x="308" y="168" width="357" height="215" rx="1" fill="white"/>
<rect x="460" y="193" width="54" height="54" fill="#E8E8E8"/>
<rect x="406" y="265" width="194.4" height="10" rx="5" fill="#808080"/>
<rect x="351" y="304" width="271" height="8" rx="4" fill="#3B3B3B"/>
<rect x="351" y="323" width="175" height="8" rx="4" fill="#3B3B3B"/>
<rect x="351" y="342" width="62" height="8" rx="4" fill="#3B3B3B"/>
</g>
<rect x="308.5" y="168.5" width="356" height="214" rx="0.5" stroke="#DBDBDB"/>
</g>
<g filter="url(#filter2_d_10_4375)">
<g clip-path="url(#clip3_10_4375)">
<rect x="308" y="403" width="357" height="215" rx="1" fill="white"/>
<rect x="466" y="428" width="42" height="42" fill="#E8E8E8"/>
<rect x="371" y="489" width="232" height="10" rx="5" fill="#808080"/>
<rect x="465" y="512" width="44" height="7" rx="3.5" fill="#969696"/>
<rect x="351" y="539" width="271" height="8" rx="4" fill="#3B3B3B"/>
<rect x="351" y="558" width="84" height="8" rx="4" fill="#3B3B3B"/>
<rect x="351" y="577" width="220" height="8" rx="4" fill="#3B3B3B"/>
</g>
<rect x="308.5" y="403.5" width="356" height="214" rx="0.5" stroke="#DBDBDB"/>
</g>
<g filter="url(#filter3_d_10_4375)">
<g clip-path="url(#clip4_10_4375)">
<rect x="685" y="403" width="357" height="215" rx="1" fill="white"/>
<rect x="840" y="426" width="49" height="49" fill="#E8E8E8"/>
<rect x="700" y="489" width="328" height="10" rx="5" fill="#808080"/>
<rect x="842" y="512" width="44" height="7" rx="3.5" fill="#969696"/>
<rect x="728" y="539" width="271" height="8" rx="4" fill="#3B3B3B"/>
<rect x="728" y="558" width="214" height="8" rx="4" fill="#3B3B3B"/>
<rect x="728" y="577" width="221" height="8" rx="4" fill="#3B3B3B"/>
</g>
<rect x="685.5" y="403.5" width="356" height="214" rx="0.5" stroke="#DBDBDB"/>
</g>
<g filter="url(#filter4_d_10_4375)">
<g clip-path="url(#clip5_10_4375)">
<rect x="308" y="638" width="357" height="215" rx="1" fill="white"/>
<rect x="463" y="663" width="47" height="47" fill="#E8E8E8"/>
<rect x="434" y="724" width="105" height="10" rx="5" fill="#808080"/>
<rect x="465" y="747" width="44" height="7" rx="3.5" fill="#969696"/>
<rect x="351" y="774" width="271" height="8" rx="4" fill="#3B3B3B"/>
<rect x="351" y="793" width="259" height="8" rx="4" fill="#3B3B3B"/>
<rect x="351" y="812" width="53" height="8" rx="4" fill="#3B3B3B"/>
</g>
<rect x="308.5" y="638.5" width="356" height="214" rx="0.5" stroke="#DBDBDB"/>
</g>
<g filter="url(#filter5_d_10_4375)">
<g clip-path="url(#clip6_10_4375)">
<rect x="1062" y="403" width="357" height="215" rx="1" fill="white"/>
<rect x="1216" y="428" width="50" height="50" fill="#E8E8E8"/>
<rect x="1210" y="491" width="63" height="10" rx="5" fill="#808080"/>
<rect x="1219" y="513" width="44" height="7" rx="3.5" fill="#969696"/>
<rect x="1105" y="539" width="271" height="8" rx="4" fill="#3B3B3B"/>
<rect x="1105" y="558" width="229" height="8" rx="4" fill="#3B3B3B"/>
<rect x="1105" y="577" width="189" height="8" rx="4" fill="#3B3B3B"/>
</g>
<rect x="1062.5" y="403.5" width="356" height="214" rx="0.5" stroke="#DBDBDB"/>
</g>
<g filter="url(#filter6_d_10_4375)">
<g clip-path="url(#clip7_10_4375)">
<rect x="1062" y="168" width="357" height="215" rx="1" fill="white"/>
<rect x="1220" y="193" width="47" height="45" fill="#E8E8E8"/>
<rect x="1214" y="265" width="59" height="10" rx="5" fill="#808080"/>
<rect x="1105" y="304" width="271" height="8" rx="4" fill="#3B3B3B"/>
<rect x="1105" y="323" width="121" height="8" rx="4" fill="#3B3B3B"/>
<rect x="1105" y="342" width="106" height="8" rx="4" fill="#3B3B3B"/>
</g>
<rect x="1062.5" y="168.5" width="356" height="214" rx="0.5" stroke="#DBDBDB"/>
</g>
<g filter="url(#filter7_d_10_4375)">
<g clip-path="url(#clip8_10_4375)">
<rect x="685" y="168" width="357" height="215" rx="1" fill="white"/>
<rect x="839" y="195" width="45" height="44" fill="#E8E8E8"/>
<rect x="799" y="262" width="127" height="10" rx="5" fill="#808080"/>
<rect x="727" y="304" width="271" height="8" rx="4" fill="#3B3B3B"/>
<rect x="727" y="323" width="203" height="8" rx="4" fill="#3B3B3B"/>
<rect x="727" y="342" width="251" height="8" rx="4" fill="#3B3B3B"/>
</g>
<rect x="685.5" y="168.5" width="356" height="214" rx="0.5" stroke="#DBDBDB"/>
</g>
<g filter="url(#filter8_d_10_4375)">
<g clip-path="url(#clip9_10_4375)">
<rect x="308" y="888" width="1098" height="477" rx="1" fill="white"/>
<rect x="338" y="948" width="451" height="14" rx="7" fill="#333333"/>
<rect x="1084" y="948" width="140.4" height="14" rx="7" fill="#333333"/>
<rect x="1084" y="1065" width="153" height="41" fill="#F7F7F7"/>
<rect x="1084" y="1065" width="5" height="40" fill="#808080"/>
<rect x="1084.5" y="999.5" width="291" height="38" rx="11.5" fill="white"/>
<rect x="1084.5" y="999.5" width="291" height="38" rx="11.5" stroke="#DBDBDB"/>
<circle cx="1111" cy="1017.5" r="7" stroke="#3B3B3B" stroke-width="1.5"/>
<path d="M1116.53 1021.97L1116 1021.44L1114.94 1022.5L1115.47 1023.03L1116.53 1021.97ZM1118.97 1026.53C1119.26 1026.82 1119.74 1026.82 1120.03 1026.53C1120.32 1026.24 1120.32 1025.76 1120.03 1025.47L1118.97 1026.53ZM1115.47 1023.03L1118.97 1026.53L1120.03 1025.47L1116.53 1021.97L1115.47 1023.03Z" fill="#3B3B3B"/>
<rect x="1140" y="1013.5" width="86.4" height="9" rx="4.5" fill="#3B3B3B"/>
<rect x="1104" y="1128" width="256" height="10" rx="5" fill="#6E6E6E"/>
<rect x="1104" y="1170" width="216" height="10" rx="5" fill="#6E6E6E"/>
<rect x="1104" y="1212" width="93" height="10" rx="5" fill="#6E6E6E"/>
<rect x="1104" y="1079" width="95" height="10" rx="5" fill="#808080"/>
<rect x="473" y="1319" width="768" height="9" rx="4.5" fill="#757575"/>
</g>
<rect x="308.5" y="888.5" width="1097" height="476" rx="0.5" stroke="#DBDBDB"/>
</g>
<rect x="338" y="995" width="681" height="1" fill="#333333" fill-opacity="0.2"/>
<path fill-rule="evenodd" clip-rule="evenodd" d="M1003.53 1036.88C1003.24 1037.18 1002.76 1037.18 1002.47 1036.88L994.823 1029.24C994.53 1028.94 994.53 1028.47 994.823 1028.18L995.177 1027.82C995.47 1027.53 995.945 1027.53 996.237 1027.82L1003 1034.59L1009.76 1027.82C1010.06 1027.53 1010.53 1027.53 1010.82 1027.82L1011.18 1028.18C1011.47 1028.47 1011.47 1028.94 1011.18 1029.24L1003.53 1036.88Z" fill="#333333"/>
<rect x="338" y="1025.5" width="637" height="10" rx="5" fill="#808080"/>
<rect x="338" y="1068" width="681" height="1" fill="#333333" fill-opacity="0.2"/>
<path fill-rule="evenodd" clip-rule="evenodd" d="M1003.53 1109.88C1003.24 1110.18 1002.76 1110.18 1002.47 1109.88L994.823 1102.24C994.53 1101.94 994.53 1101.47 994.823 1101.18L995.177 1100.82C995.47 1100.53 995.945 1100.53 996.237 1100.82L1003 1107.59L1009.76 1100.82C1010.06 1100.53 1010.53 1100.53 1010.82 1100.82L1011.18 1101.18C1011.47 1101.47 1011.47 1101.94 1011.18 1102.24L1003.53 1109.88Z" fill="#333333"/>
<rect x="338" y="1098.5" width="637" height="10" rx="5" fill="#808080"/>
<rect x="338" y="1141" width="681" height="1" fill="#333333" fill-opacity="0.2"/>
<path fill-rule="evenodd" clip-rule="evenodd" d="M1003.53 1182.88C1003.24 1183.18 1002.76 1183.18 1002.47 1182.88L994.823 1175.24C994.53 1174.94 994.53 1174.47 994.823 1174.18L995.177 1173.82C995.47 1173.53 995.945 1173.53 996.237 1173.82L1003 1180.59L1009.76 1173.82C1010.06 1173.53 1010.53 1173.53 1010.82 1173.82L1011.18 1174.18C1011.47 1174.47 1011.47 1174.94 1011.18 1175.24L1003.53 1182.88Z" fill="#333333"/>
<rect x="338" y="1171.5" width="637" height="10" rx="5" fill="#808080"/>
<rect x="338" y="1214" width="681" height="1" fill="#333333" fill-opacity="0.2"/>
<path fill-rule="evenodd" clip-rule="evenodd" d="M1003.53 1255.88C1003.24 1256.18 1002.76 1256.18 1002.47 1255.88L994.823 1248.24C994.53 1247.94 994.53 1247.47 994.823 1247.18L995.177 1246.82C995.47 1246.53 995.945 1246.53 996.237 1246.82L1003 1253.59L1009.76 1246.82C1010.06 1246.53 1010.53 1246.53 1010.82 1246.82L1011.18 1247.18C1011.47 1247.47 1011.47 1247.94 1011.18 1248.24L1003.53 1255.88Z" fill="#333333"/>
<rect x="338" y="1244.5" width="637" height="10" rx="5" fill="#808080"/>
<rect x="338" y="1287" width="681" height="1" fill="#333333" fill-opacity="0.2"/>
<rect x="308" y="58" width="187.2" height="13" rx="6.5" fill="#3B3B3B"/>
</g>
<defs>
<filter id="filter0_d_10_4375" x="-2" y="0" width="282" height="1447" filterUnits="userSpaceOnUse" color-interpolation-filters="sRGB">
<feFlood flood-opacity="0" result="BackgroundImageFix"/>
<feColorMatrix in="SourceAlpha" type="matrix" values="0 0 0 0 0 0 0 0 0 0 0 0 0 0 0 0 0 0 127 0" result="hardAlpha"/>
<feOffset dy="2"/>
<feGaussianBlur stdDeviation="1"/>
<feColorMatrix type="matrix" values="0 0 0 0 0 0 0 0 0 0 0 0 0 0 0 0 0 0 0.1 0"/>
<feBlend mode="normal" in2="BackgroundImageFix" result="effect1_dropShadow_10_4375"/>
<feBlend mode="normal" in="SourceGraphic" in2="effect1_dropShadow_10_4375" result="shape"/>
</filter>
<filter id="filter1_d_10_4375" x="306" y="168" width="361" height="219" filterUnits="userSpaceOnUse" color-interpolation-filters="sRGB">
<feFlood flood-opacity="0" result="BackgroundImageFix"/>
<feColorMatrix in="SourceAlpha" type="matrix" values="0 0 0 0 0 0 0 0 0 0 0 0 0 0 0 0 0 0 127 0" result="hardAlpha"/>
<feOffset dy="2"/>
<feGaussianBlur stdDeviation="1"/>
<feColorMatrix type="matrix" values="0 0 0 0 0 0 0 0 0 0 0 0 0 0 0 0 0 0 0.1 0"/>
<feBlend mode="normal" in2="BackgroundImageFix" result="effect1_dropShadow_10_4375"/>
<feBlend mode="normal" in="SourceGraphic" in2="effect1_dropShadow_10_4375" result="shape"/>
</filter>
<filter id="filter2_d_10_4375" x="306" y="403" width="361" height="219" filterUnits="userSpaceOnUse" color-interpolation-filters="sRGB">
<feFlood flood-opacity="0" result="BackgroundImageFix"/>
<feColorMatrix in="SourceAlpha" type="matrix" values="0 0 0 0 0 0 0 0 0 0 0 0 0 0 0 0 0 0 127 0" result="hardAlpha"/>
<feOffset dy="2"/>
<feGaussianBlur stdDeviation="1"/>
<feColorMatrix type="matrix" values="0 0 0 0 0 0 0 0 0 0 0 0 0 0 0 0 0 0 0.1 0"/>
<feBlend mode="normal" in2="BackgroundImageFix" result="effect1_dropShadow_10_4375"/>
<feBlend mode="normal" in="SourceGraphic" in2="effect1_dropShadow_10_4375" result="shape"/>
</filter>
<filter id="filter3_d_10_4375" x="683" y="403" width="361" height="219" filterUnits="userSpaceOnUse" color-interpolation-filters="sRGB">
<feFlood flood-opacity="0" result="BackgroundImageFix"/>
<feColorMatrix in="SourceAlpha" type="matrix" values="0 0 0 0 0 0 0 0 0 0 0 0 0 0 0 0 0 0 127 0" result="hardAlpha"/>
<feOffset dy="2"/>
<feGaussianBlur stdDeviation="1"/>
<feColorMatrix type="matrix" values="0 0 0 0 0 0 0 0 0 0 0 0 0 0 0 0 0 0 0.1 0"/>
<feBlend mode="normal" in2="BackgroundImageFix" result="effect1_dropShadow_10_4375"/>
<feBlend mode="normal" in="SourceGraphic" in2="effect1_dropShadow_10_4375" result="shape"/>
</filter>
<filter id="filter4_d_10_4375" x="306" y="638" width="361" height="219" filterUnits="userSpaceOnUse" color-interpolation-filters="sRGB">
<feFlood flood-opacity="0" result="BackgroundImageFix"/>
<feColorMatrix in="SourceAlpha" type="matrix" values="0 0 0 0 0 0 0 0 0 0 0 0 0 0 0 0 0 0 127 0" result="hardAlpha"/>
<feOffset dy="2"/>
<feGaussianBlur stdDeviation="1"/>
<feColorMatrix type="matrix" values="0 0 0 0 0 0 0 0 0 0 0 0 0 0 0 0 0 0 0.1 0"/>
<feBlend mode="normal" in2="BackgroundImageFix" result="effect1_dropShadow_10_4375"/>
<feBlend mode="normal" in="SourceGraphic" in2="effect1_dropShadow_10_4375" result="shape"/>
</filter>
<filter id="filter5_d_10_4375" x="1060" y="403" width="361" height="219" filterUnits="userSpaceOnUse" color-interpolation-filters="sRGB">
<feFlood flood-opacity="0" result="BackgroundImageFix"/>
<feColorMatrix in="SourceAlpha" type="matrix" values="0 0 0 0 0 0 0 0 0 0 0 0 0 0 0 0 0 0 127 0" result="hardAlpha"/>
<feOffset dy="2"/>
<feGaussianBlur stdDeviation="1"/>
<feColorMatrix type="matrix" values="0 0 0 0 0 0 0 0 0 0 0 0 0 0 0 0 0 0 0.1 0"/>
<feBlend mode="normal" in2="BackgroundImageFix" result="effect1_dropShadow_10_4375"/>
<feBlend mode="normal" in="SourceGraphic" in2="effect1_dropShadow_10_4375" result="shape"/>
</filter>
<filter id="filter6_d_10_4375" x="1060" y="168" width="361" height="219" filterUnits="userSpaceOnUse" color-interpolation-filters="sRGB">
<feFlood flood-opacity="0" result="BackgroundImageFix"/>
<feColorMatrix in="SourceAlpha" type="matrix" values="0 0 0 0 0 0 0 0 0 0 0 0 0 0 0 0 0 0 127 0" result="hardAlpha"/>
<feOffset dy="2"/>
<feGaussianBlur stdDeviation="1"/>
<feColorMatrix type="matrix" values="0 0 0 0 0 0 0 0 0 0 0 0 0 0 0 0 0 0 0.1 0"/>
<feBlend mode="normal" in2="BackgroundImageFix" result="effect1_dropShadow_10_4375"/>
<feBlend mode="normal" in="SourceGraphic" in2="effect1_dropShadow_10_4375" result="shape"/>
</filter>
<filter id="filter7_d_10_4375" x="683" y="168" width="361" height="219" filterUnits="userSpaceOnUse" color-interpolation-filters="sRGB">
<feFlood flood-opacity="0" result="BackgroundImageFix"/>
<feColorMatrix in="SourceAlpha" type="matrix" values="0 0 0 0 0 0 0 0 0 0 0 0 0 0 0 0 0 0 127 0" result="hardAlpha"/>
<feOffset dy="2"/>
<feGaussianBlur stdDeviation="1"/>
<feColorMatrix type="matrix" values="0 0 0 0 0 0 0 0 0 0 0 0 0 0 0 0 0 0 0.1 0"/>
<feBlend mode="normal" in2="BackgroundImageFix" result="effect1_dropShadow_10_4375"/>
<feBlend mode="normal" in="SourceGraphic" in2="effect1_dropShadow_10_4375" result="shape"/>
</filter>
<filter id="filter8_d_10_4375" x="306" y="888" width="1102" height="481" filterUnits="userSpaceOnUse" color-interpolation-filters="sRGB">
<feFlood flood-opacity="0" result="BackgroundImageFix"/>
<feColorMatrix in="SourceAlpha" type="matrix" values="0 0 0 0 0 0 0 0 0 0 0 0 0 0 0 0 0 0 127 0" result="hardAlpha"/>
<feOffset dy="2"/>
<feGaussianBlur stdDeviation="1"/>
<feColorMatrix type="matrix" values="0 0 0 0 0 0 0 0 0 0 0 0 0 0 0 0 0 0 0.1 0"/>
<feBlend mode="normal" in2="BackgroundImageFix" result="effect1_dropShadow_10_4375"/>
<feBlend mode="normal" in="SourceGraphic" in2="effect1_dropShadow_10_4375" result="shape"/>
</filter>
<clipPath id="clip0_10_4375">
<rect width="1440" height="1443" fill="white"/>
</clipPath>
<clipPath id="clip1_10_4375">
<rect width="278" height="1443" rx="4" fill="white"/>
</clipPath>
<clipPath id="clip2_10_4375">
<rect x="308" y="168" width="357" height="215" rx="1" fill="white"/>
</clipPath>
<clipPath id="clip3_10_4375">
<rect x="308" y="403" width="357" height="215" rx="1" fill="white"/>
</clipPath>
<clipPath id="clip4_10_4375">
<rect x="685" y="403" width="357" height="215" rx="1" fill="white"/>
</clipPath>
<clipPath id="clip5_10_4375">
<rect x="308" y="638" width="357" height="215" rx="1" fill="white"/>
</clipPath>
<clipPath id="clip6_10_4375">
<rect x="1062" y="403" width="357" height="215" rx="1" fill="white"/>
</clipPath>
<clipPath id="clip7_10_4375">
<rect x="1062" y="168" width="357" height="215" rx="1" fill="white"/>
</clipPath>
<clipPath id="clip8_10_4375">
<rect x="685" y="168" width="357" height="215" rx="1" fill="white"/>
</clipPath>
<clipPath id="clip9_10_4375">
<rect x="308" y="888" width="1098" height="477" rx="1" fill="white"/>
</clipPath>
</defs>
</svg>
